%TF.GenerationSoftware,KiCad,Pcbnew,(5.99.0-11441-g1a5e63bcab)*%
%TF.CreationDate,2021-07-19T16:29:47+02:00*%
%TF.ProjectId,MQ Breakout,4d512042-7265-4616-9b6f-75742e6b6963,rev?*%
%TF.SameCoordinates,Original*%
%TF.FileFunction,Copper,L1,Top*%
%TF.FilePolarity,Positive*%
%FSLAX46Y46*%
G04 Gerber Fmt 4.6, Leading zero omitted, Abs format (unit mm)*
G04 Created by KiCad (PCBNEW (5.99.0-11441-g1a5e63bcab)) date 2021-07-19 16:29:47*
%MOMM*%
%LPD*%
G01*
G04 APERTURE LIST*
%TA.AperFunction,EtchedComponent*%
%ADD10C,0.200000*%
%TD*%
%TA.AperFunction,SMDPad,CuDef*%
%ADD11R,1.000000X0.640000*%
%TD*%
%TA.AperFunction,ComponentPad*%
%ADD12C,1.524000*%
%TD*%
%TA.AperFunction,SMDPad,CuDef*%
%ADD13R,0.750000X0.450000*%
%TD*%
%TA.AperFunction,SMDPad,CuDef*%
%ADD14C,1.000000*%
%TD*%
%TA.AperFunction,SMDPad,CuDef*%
%ADD15R,1.200000X1.200000*%
%TD*%
%TA.AperFunction,SMDPad,CuDef*%
%ADD16R,1.600000X1.500000*%
%TD*%
%TA.AperFunction,SMDPad,CuDef*%
%ADD17R,1.000000X0.660000*%
%TD*%
%TA.AperFunction,SMDPad,CuDef*%
%ADD18R,0.640000X0.540000*%
%TD*%
%TA.AperFunction,SMDPad,CuDef*%
%ADD19R,0.660000X1.000000*%
%TD*%
%TA.AperFunction,ComponentPad*%
%ADD20C,1.700000*%
%TD*%
%TA.AperFunction,SMDPad,CuDef*%
%ADD21R,1.550000X0.600000*%
%TD*%
%TA.AperFunction,ViaPad*%
%ADD22C,0.800000*%
%TD*%
%TA.AperFunction,Conductor*%
%ADD23C,0.400000*%
%TD*%
%TA.AperFunction,Conductor*%
%ADD24C,0.700000*%
%TD*%
G04 APERTURE END LIST*
D10*
%TO.C,FD1*%
X103000000Y-122600000D02*
G75*
G03*
X103000000Y-122600000I-1000000J0D01*
G01*
%TD*%
D11*
%TO.P,R1,2*%
%TO.N,AO*%
X111850000Y-115225000D03*
%TO.P,R1,1*%
%TO.N,GND*%
X111850000Y-116775000D03*
%TD*%
D12*
%TO.P,U1,6,B*%
%TO.N,AO*%
X105358757Y-112641243D03*
%TO.P,U1,5,H*%
%TO.N,GND*%
X106750000Y-116000000D03*
%TO.P,U1,4,B*%
%TO.N,AO*%
X105358757Y-119358757D03*
%TO.P,U1,3,A*%
%TO.N,5V*%
X98641243Y-119358757D03*
%TO.P,U1,2,H*%
X97250000Y-116000000D03*
%TO.P,U1,1,A*%
X98641243Y-112641243D03*
%TD*%
D13*
%TO.P,D1,2,K*%
%TO.N,GND*%
X111500000Y-105312500D03*
%TO.P,D1,1,A*%
%TO.N,Net-(D1-Pad1)*%
X111500000Y-104212500D03*
%TD*%
D14*
%TO.P,FD1,1*%
%TO.N,N/C*%
X102000000Y-122600000D03*
%TD*%
D15*
%TO.P,R2,3*%
%TO.N,GND*%
X94650000Y-105500000D03*
D16*
%TO.P,R2,2*%
%TO.N,POT*%
X93650000Y-102250000D03*
D15*
%TO.P,R2,1*%
%TO.N,5V*%
X92650000Y-105500000D03*
%TD*%
D17*
%TO.P,C1,2*%
%TO.N,AO*%
X97250000Y-104220000D03*
%TO.P,C1,1*%
%TO.N,GND*%
X97250000Y-105680000D03*
%TD*%
D18*
%TO.P,R4,2*%
%TO.N,Net-(D1-Pad1)*%
X111500000Y-102700000D03*
%TO.P,R4,1*%
%TO.N,D0*%
X111500000Y-101700000D03*
%TD*%
D19*
%TO.P,C2,2*%
%TO.N,5V*%
X106620000Y-101800000D03*
%TO.P,C2,1*%
%TO.N,GND*%
X108080000Y-101800000D03*
%TD*%
D20*
%TO.P,K1,4*%
%TO.N,5V*%
X105810000Y-93500000D03*
%TO.P,K1,3*%
%TO.N,D0*%
X103270000Y-93500000D03*
%TO.P,K1,2*%
%TO.N,AO*%
X100730000Y-93500000D03*
%TO.P,K1,1*%
%TO.N,GND*%
X98190000Y-93500000D03*
%TD*%
D11*
%TO.P,R3,2*%
%TO.N,5V*%
X97250000Y-100225000D03*
%TO.P,R3,1*%
%TO.N,D0*%
X97250000Y-101775000D03*
%TD*%
D21*
%TO.P,U2,8,VCC*%
%TO.N,5V*%
X104600000Y-101795000D03*
%TO.P,U2,7,2_OUT*%
%TO.N,unconnected-(U2-Pad7)*%
X104600000Y-103065000D03*
%TO.P,U2,6,2_IN-*%
%TO.N,unconnected-(U2-Pad6)*%
X104600000Y-104335000D03*
%TO.P,U2,5,2_IN+*%
%TO.N,unconnected-(U2-Pad5)*%
X104600000Y-105605000D03*
%TO.P,U2,4,GND*%
%TO.N,GND*%
X99400000Y-105605000D03*
%TO.P,U2,3,1_IN+*%
%TO.N,AO*%
X99400000Y-104335000D03*
%TO.P,U2,2,1_IN-*%
%TO.N,POT*%
X99400000Y-103065000D03*
%TO.P,U2,1,1_OUT*%
%TO.N,D0*%
X99300000Y-101795000D03*
%TD*%
D22*
%TO.N,GND*%
X99600000Y-99300000D03*
X97200000Y-107300000D03*
X105800000Y-107000000D03*
X111900000Y-94900000D03*
X95150000Y-116650000D03*
X107500000Y-117750000D03*
X104500000Y-99800000D03*
X102700000Y-102650000D03*
%TO.N,D0*%
X107800000Y-95100000D03*
X98200000Y-101800000D03*
%TO.N,AO*%
X101085000Y-104335000D03*
X101600000Y-99600000D03*
%TD*%
D23*
%TO.N,AO*%
X101600000Y-99600000D02*
X101600000Y-94370000D01*
X101600000Y-94370000D02*
X100730000Y-93500000D01*
%TO.N,5V*%
X103305000Y-100500000D02*
X104600000Y-101795000D01*
X97525000Y-100500000D02*
X103305000Y-100500000D01*
X97250000Y-100225000D02*
X97525000Y-100500000D01*
X97250000Y-100225000D02*
X92825000Y-100225000D01*
%TO.N,D0*%
X98200000Y-101800000D02*
X98175000Y-101775000D01*
X98175000Y-101775000D02*
X97250000Y-101775000D01*
X107800000Y-98000000D02*
X111500000Y-101700000D01*
X107800000Y-95100000D02*
X107800000Y-98000000D01*
%TO.N,5V*%
X105810000Y-100585000D02*
X104600000Y-101795000D01*
X105810000Y-93500000D02*
X105810000Y-100585000D01*
X92825000Y-100225000D02*
X92400000Y-100650000D01*
D24*
X97250000Y-117967514D02*
X98641243Y-119358757D01*
X97250000Y-116000000D02*
X97250000Y-117967514D01*
D23*
X92400000Y-105250000D02*
X92650000Y-105500000D01*
D24*
X98641243Y-112641243D02*
X97150000Y-114132486D01*
X97150000Y-115900000D02*
X97250000Y-116000000D01*
D23*
X104605000Y-101800000D02*
X104600000Y-101795000D01*
X106620000Y-101800000D02*
X104605000Y-101800000D01*
X92400000Y-100650000D02*
X92400000Y-105250000D01*
X92650000Y-105500000D02*
X92650000Y-106650000D01*
D24*
X97150000Y-114132486D02*
X97150000Y-115900000D01*
D23*
X92650000Y-106650000D02*
X98641243Y-112641243D01*
%TO.N,Net-(D1-Pad1)*%
X111500000Y-104212500D02*
X111500000Y-102700000D01*
%TO.N,D0*%
X97270000Y-101795000D02*
X97250000Y-101775000D01*
X99300000Y-101795000D02*
X97270000Y-101795000D01*
D24*
%TO.N,AO*%
X105358757Y-112641243D02*
X105358757Y-119358757D01*
D23*
X101085000Y-104335000D02*
X105358757Y-108608757D01*
D24*
X109625000Y-115225000D02*
X107041243Y-112641243D01*
D23*
X105358757Y-108608757D02*
X105358757Y-112641243D01*
X97365000Y-104335000D02*
X97250000Y-104220000D01*
X99400000Y-104335000D02*
X101085000Y-104335000D01*
D24*
X107041243Y-112641243D02*
X105358757Y-112641243D01*
D23*
X99400000Y-104335000D02*
X97365000Y-104335000D01*
D24*
X111850000Y-115225000D02*
X109625000Y-115225000D01*
D23*
%TO.N,POT*%
X99400000Y-103065000D02*
X95865000Y-103065000D01*
X95050000Y-102250000D02*
X93650000Y-102250000D01*
X95865000Y-103065000D02*
X95050000Y-102250000D01*
%TD*%
%TA.AperFunction,Conductor*%
%TO.N,GND*%
G36*
X95065119Y-103267089D02*
G01*
X95343550Y-103545520D01*
X95349404Y-103551785D01*
X95387439Y-103595385D01*
X95426784Y-103623037D01*
X95439719Y-103632128D01*
X95445014Y-103636061D01*
X95495282Y-103675476D01*
X95502198Y-103678599D01*
X95504484Y-103679983D01*
X95519165Y-103688357D01*
X95521525Y-103689622D01*
X95527739Y-103693990D01*
X95534818Y-103696750D01*
X95534820Y-103696751D01*
X95587275Y-103717202D01*
X95593344Y-103719753D01*
X95651573Y-103746045D01*
X95659046Y-103747430D01*
X95661612Y-103748234D01*
X95677835Y-103752855D01*
X95680427Y-103753520D01*
X95687509Y-103756282D01*
X95695044Y-103757274D01*
X95750861Y-103764622D01*
X95757377Y-103765654D01*
X95795770Y-103772770D01*
X95820186Y-103777295D01*
X95827766Y-103776858D01*
X95827767Y-103776858D01*
X95882380Y-103773709D01*
X95889633Y-103773500D01*
X96115500Y-103773500D01*
X96183621Y-103793502D01*
X96230114Y-103847158D01*
X96241500Y-103899500D01*
X96241500Y-104598134D01*
X96248255Y-104660316D01*
X96299385Y-104796705D01*
X96304771Y-104803891D01*
X96357953Y-104874852D01*
X96382801Y-104941358D01*
X96367748Y-105010741D01*
X96357953Y-105025982D01*
X96305214Y-105096352D01*
X96296676Y-105111946D01*
X96251522Y-105232394D01*
X96247895Y-105247649D01*
X96242369Y-105298514D01*
X96242000Y-105305328D01*
X96242000Y-105407885D01*
X96246475Y-105423124D01*
X96247865Y-105424329D01*
X96255548Y-105426000D01*
X98058885Y-105426000D01*
X98074124Y-105421525D01*
X98096389Y-105395830D01*
X98097811Y-105397062D01*
X98102815Y-105387900D01*
X98165129Y-105353878D01*
X98191906Y-105351000D01*
X100664885Y-105351000D01*
X100680124Y-105346525D01*
X100681329Y-105345135D01*
X100683000Y-105337452D01*
X100683000Y-105333946D01*
X100703002Y-105265825D01*
X100756658Y-105219332D01*
X100826932Y-105209228D01*
X100835197Y-105210699D01*
X100955569Y-105236285D01*
X101018467Y-105270437D01*
X104613352Y-108865323D01*
X104647378Y-108927635D01*
X104650257Y-108954418D01*
X104650257Y-111520755D01*
X104630255Y-111588876D01*
X104596527Y-111623968D01*
X104543492Y-111661103D01*
X104543486Y-111661108D01*
X104538976Y-111664266D01*
X104381780Y-111821462D01*
X104378623Y-111825970D01*
X104378621Y-111825973D01*
X104320472Y-111909019D01*
X104254269Y-112003567D01*
X104251946Y-112008549D01*
X104251943Y-112008554D01*
X104226340Y-112063460D01*
X104160317Y-112205047D01*
X104102779Y-112419780D01*
X104083404Y-112641243D01*
X104102779Y-112862706D01*
X104160317Y-113077439D01*
X104162639Y-113082420D01*
X104162640Y-113082421D01*
X104251943Y-113273932D01*
X104251946Y-113273937D01*
X104254269Y-113278919D01*
X104381780Y-113461024D01*
X104463352Y-113542596D01*
X104497378Y-113604908D01*
X104500257Y-113631691D01*
X104500257Y-118368309D01*
X104480255Y-118436430D01*
X104463352Y-118457404D01*
X104381780Y-118538976D01*
X104378623Y-118543484D01*
X104378621Y-118543487D01*
X104257426Y-118716572D01*
X104254269Y-118721081D01*
X104251946Y-118726063D01*
X104251943Y-118726068D01*
X104162640Y-118917579D01*
X104160317Y-118922561D01*
X104102779Y-119137294D01*
X104083404Y-119358757D01*
X104102779Y-119580220D01*
X104160317Y-119794953D01*
X104162639Y-119799934D01*
X104162640Y-119799935D01*
X104251943Y-119991446D01*
X104251946Y-119991451D01*
X104254269Y-119996433D01*
X104381780Y-120178538D01*
X104538976Y-120335734D01*
X104543484Y-120338891D01*
X104543487Y-120338893D01*
X104619252Y-120391944D01*
X104721080Y-120463245D01*
X104726062Y-120465568D01*
X104726067Y-120465571D01*
X104917579Y-120554874D01*
X104922561Y-120557197D01*
X104927869Y-120558619D01*
X104927871Y-120558620D01*
X104993706Y-120576260D01*
X105137294Y-120614735D01*
X105358757Y-120634110D01*
X105580220Y-120614735D01*
X105723808Y-120576260D01*
X105789643Y-120558620D01*
X105789645Y-120558619D01*
X105794953Y-120557197D01*
X105799935Y-120554874D01*
X105991447Y-120465571D01*
X105991452Y-120465568D01*
X105996434Y-120463245D01*
X106098262Y-120391944D01*
X106174027Y-120338893D01*
X106174030Y-120338891D01*
X106178538Y-120335734D01*
X106335734Y-120178538D01*
X106463245Y-119996433D01*
X106465568Y-119991451D01*
X106465571Y-119991446D01*
X106554874Y-119799935D01*
X106554875Y-119799934D01*
X106557197Y-119794953D01*
X106614735Y-119580220D01*
X106634110Y-119358757D01*
X106614735Y-119137294D01*
X106557197Y-118922561D01*
X106554874Y-118917579D01*
X106465571Y-118726068D01*
X106465568Y-118726063D01*
X106463245Y-118721081D01*
X106460088Y-118716572D01*
X106338893Y-118543487D01*
X106338891Y-118543484D01*
X106335734Y-118538976D01*
X106254162Y-118457404D01*
X106220136Y-118395092D01*
X106217257Y-118368309D01*
X106217257Y-117336259D01*
X106237259Y-117268138D01*
X106290915Y-117221645D01*
X106361189Y-117211541D01*
X106375868Y-117214552D01*
X106523309Y-117254059D01*
X106534104Y-117255962D01*
X106744525Y-117274372D01*
X106755475Y-117274372D01*
X106965896Y-117255962D01*
X106976691Y-117254059D01*
X107180715Y-117199391D01*
X107191007Y-117195645D01*
X107382445Y-117106376D01*
X107391931Y-117100898D01*
X107435764Y-117070207D01*
X107444139Y-117059729D01*
X107437071Y-117046281D01*
X107433338Y-117042548D01*
X110842000Y-117042548D01*
X110842000Y-117139672D01*
X110842369Y-117146486D01*
X110847895Y-117197351D01*
X110851522Y-117212606D01*
X110896676Y-117333054D01*
X110905214Y-117348649D01*
X110981715Y-117450724D01*
X110994276Y-117463285D01*
X111096351Y-117539786D01*
X111111946Y-117548324D01*
X111232394Y-117593478D01*
X111247649Y-117597105D01*
X111298514Y-117602631D01*
X111305328Y-117603000D01*
X111577885Y-117603000D01*
X111593124Y-117598525D01*
X111594329Y-117597135D01*
X111596000Y-117589452D01*
X111596000Y-117047115D01*
X111591525Y-117031876D01*
X111590135Y-117030671D01*
X111582452Y-117029000D01*
X110860115Y-117029000D01*
X110844876Y-117033475D01*
X110843671Y-117034865D01*
X110842000Y-117042548D01*
X107433338Y-117042548D01*
X106479885Y-116089095D01*
X106445859Y-116026783D01*
X106447694Y-116001132D01*
X107114408Y-116001132D01*
X107114539Y-116002965D01*
X107118790Y-116009580D01*
X107797003Y-116687793D01*
X107808777Y-116694223D01*
X107820793Y-116684926D01*
X107850897Y-116641932D01*
X107856377Y-116632441D01*
X107945645Y-116441007D01*
X107949391Y-116430715D01*
X108004059Y-116226691D01*
X108005962Y-116215896D01*
X108024372Y-116005475D01*
X108024372Y-115994525D01*
X108005962Y-115784104D01*
X108004059Y-115773309D01*
X107949391Y-115569285D01*
X107945645Y-115558993D01*
X107856377Y-115367559D01*
X107850897Y-115358068D01*
X107820206Y-115314235D01*
X107809729Y-115305860D01*
X107796282Y-115312928D01*
X107122022Y-115987188D01*
X107114408Y-116001132D01*
X106447694Y-116001132D01*
X106450924Y-115955968D01*
X106479885Y-115910905D01*
X107437793Y-114952997D01*
X107444223Y-114941223D01*
X107434926Y-114929207D01*
X107391931Y-114899102D01*
X107382445Y-114893624D01*
X107191007Y-114804355D01*
X107180715Y-114800609D01*
X106976691Y-114745941D01*
X106965896Y-114744038D01*
X106755475Y-114725628D01*
X106744525Y-114725628D01*
X106534104Y-114744038D01*
X106523309Y-114745941D01*
X106375868Y-114785448D01*
X106304892Y-114783758D01*
X106246096Y-114743964D01*
X106218148Y-114678700D01*
X106217257Y-114663741D01*
X106217257Y-113631691D01*
X106237259Y-113563570D01*
X106254162Y-113542596D01*
X106260110Y-113536648D01*
X106322422Y-113502622D01*
X106349205Y-113499743D01*
X106633451Y-113499743D01*
X106701572Y-113519745D01*
X106722546Y-113536648D01*
X108988674Y-115802776D01*
X108995816Y-115810542D01*
X109029471Y-115850367D01*
X109094017Y-115899717D01*
X109096419Y-115901601D01*
X109154411Y-115948228D01*
X109154417Y-115948232D01*
X109159738Y-115952510D01*
X109165857Y-115955547D01*
X109168652Y-115957335D01*
X109169013Y-115957588D01*
X109169380Y-115957790D01*
X109172238Y-115959521D01*
X109177652Y-115963660D01*
X109228108Y-115987188D01*
X109251262Y-115997985D01*
X109254033Y-115999319D01*
X109326814Y-116035447D01*
X109333435Y-116037098D01*
X109336563Y-116038249D01*
X109336956Y-116038413D01*
X109337361Y-116038532D01*
X109340525Y-116039609D01*
X109346704Y-116042490D01*
X109395961Y-116053500D01*
X109426002Y-116060215D01*
X109428998Y-116060924D01*
X109459051Y-116068417D01*
X109507801Y-116080572D01*
X109514622Y-116080763D01*
X109517925Y-116081215D01*
X109518809Y-116081374D01*
X109523692Y-116082052D01*
X109528740Y-116083180D01*
X109534463Y-116083500D01*
X109610844Y-116083500D01*
X109614363Y-116083549D01*
X109694257Y-116085781D01*
X109700961Y-116084502D01*
X109707762Y-116083955D01*
X109707804Y-116084475D01*
X109718125Y-116083500D01*
X110764904Y-116083500D01*
X110833025Y-116103502D01*
X110879518Y-116157158D01*
X110889622Y-116227432D01*
X110882886Y-116253729D01*
X110851522Y-116337391D01*
X110847895Y-116352649D01*
X110842369Y-116403514D01*
X110842000Y-116410328D01*
X110842000Y-116502885D01*
X110846475Y-116518124D01*
X110847865Y-116519329D01*
X110855548Y-116521000D01*
X111978000Y-116521000D01*
X112046121Y-116541002D01*
X112092614Y-116594658D01*
X112104000Y-116647000D01*
X112104000Y-117584885D01*
X112108475Y-117600124D01*
X112109865Y-117601329D01*
X112117548Y-117603000D01*
X112366000Y-117603000D01*
X112434121Y-117623002D01*
X112480614Y-117676658D01*
X112492000Y-117729000D01*
X112492000Y-128950679D01*
X112490500Y-128970062D01*
X112486815Y-128993730D01*
X112487979Y-129002632D01*
X112487979Y-129002634D01*
X112487992Y-129002730D01*
X112488263Y-129033170D01*
X112481254Y-129095375D01*
X112474975Y-129122882D01*
X112447966Y-129200069D01*
X112435724Y-129225490D01*
X112392215Y-129294734D01*
X112374623Y-129316794D01*
X112316795Y-129374621D01*
X112294736Y-129392212D01*
X112241065Y-129425936D01*
X112225492Y-129435721D01*
X112200071Y-129447963D01*
X112122883Y-129474972D01*
X112095376Y-129481251D01*
X112071428Y-129483949D01*
X112039744Y-129487519D01*
X112024103Y-129488302D01*
X112015145Y-129488193D01*
X112006271Y-129486811D01*
X111974727Y-129490936D01*
X111958389Y-129492000D01*
X92049307Y-129492000D01*
X92029922Y-129490500D01*
X92015140Y-129488198D01*
X92015137Y-129488198D01*
X92006268Y-129486817D01*
X91997267Y-129487994D01*
X91966828Y-129488265D01*
X91904622Y-129481256D01*
X91877115Y-129474977D01*
X91799930Y-129447969D01*
X91774508Y-129435727D01*
X91774499Y-129435721D01*
X91705256Y-129392212D01*
X91683201Y-129374622D01*
X91625378Y-129316799D01*
X91607786Y-129294740D01*
X91564277Y-129225496D01*
X91552034Y-129200074D01*
X91525024Y-129122881D01*
X91518746Y-129095376D01*
X91512478Y-129039750D01*
X91511695Y-129024103D01*
X91511804Y-129015146D01*
X91513186Y-129006272D01*
X91509064Y-128974749D01*
X91508000Y-128958412D01*
X91508000Y-126977869D01*
X91886689Y-126977869D01*
X91903238Y-127264883D01*
X91904063Y-127269088D01*
X91904064Y-127269096D01*
X91936010Y-127431921D01*
X91958586Y-127546995D01*
X91959973Y-127551045D01*
X91959974Y-127551050D01*
X92050321Y-127814930D01*
X92051710Y-127818986D01*
X92180885Y-128075822D01*
X92343721Y-128312750D01*
X92537206Y-128525388D01*
X92540501Y-128528143D01*
X92540502Y-128528144D01*
X92591258Y-128570582D01*
X92757759Y-128709798D01*
X93001298Y-128862571D01*
X93263318Y-128980877D01*
X93306709Y-128993730D01*
X93534857Y-129061311D01*
X93534862Y-129061312D01*
X93538970Y-129062529D01*
X93543204Y-129063177D01*
X93543209Y-129063178D01*
X93791811Y-129101219D01*
X93823153Y-129106015D01*
X93969485Y-129108314D01*
X94106317Y-129110464D01*
X94106323Y-129110464D01*
X94110608Y-129110531D01*
X94114860Y-129110016D01*
X94114868Y-129110016D01*
X94391756Y-129076508D01*
X94391761Y-129076507D01*
X94396017Y-129075992D01*
X94534163Y-129039750D01*
X94669954Y-129004126D01*
X94669955Y-129004126D01*
X94674097Y-129003039D01*
X94939704Y-128893021D01*
X95187922Y-128747974D01*
X95414159Y-128570582D01*
X95455285Y-128528144D01*
X95611244Y-128367206D01*
X95614227Y-128364128D01*
X95616760Y-128360680D01*
X95616764Y-128360675D01*
X95781887Y-128135886D01*
X95784425Y-128132431D01*
X95921604Y-127879779D01*
X96023225Y-127610848D01*
X96087407Y-127330613D01*
X96112963Y-127044260D01*
X96113427Y-127000000D01*
X96111918Y-126977869D01*
X107886689Y-126977869D01*
X107903238Y-127264883D01*
X107904063Y-127269088D01*
X107904064Y-127269096D01*
X107936010Y-127431921D01*
X107958586Y-127546995D01*
X107959973Y-127551045D01*
X107959974Y-127551050D01*
X108050321Y-127814930D01*
X108051710Y-127818986D01*
X108180885Y-128075822D01*
X108343721Y-128312750D01*
X108537206Y-128525388D01*
X108540501Y-128528143D01*
X108540502Y-128528144D01*
X108591258Y-128570582D01*
X108757759Y-128709798D01*
X109001298Y-128862571D01*
X109263318Y-128980877D01*
X109306709Y-128993730D01*
X109534857Y-129061311D01*
X109534862Y-129061312D01*
X109538970Y-129062529D01*
X109543204Y-129063177D01*
X109543209Y-129063178D01*
X109791811Y-129101219D01*
X109823153Y-129106015D01*
X109969485Y-129108314D01*
X110106317Y-129110464D01*
X110106323Y-129110464D01*
X110110608Y-129110531D01*
X110114860Y-129110016D01*
X110114868Y-129110016D01*
X110391756Y-129076508D01*
X110391761Y-129076507D01*
X110396017Y-129075992D01*
X110534163Y-129039750D01*
X110669954Y-129004126D01*
X110669955Y-129004126D01*
X110674097Y-129003039D01*
X110939704Y-128893021D01*
X111187922Y-128747974D01*
X111414159Y-128570582D01*
X111455285Y-128528144D01*
X111611244Y-128367206D01*
X111614227Y-128364128D01*
X111616760Y-128360680D01*
X111616764Y-128360675D01*
X111781887Y-128135886D01*
X111784425Y-128132431D01*
X111921604Y-127879779D01*
X112023225Y-127610848D01*
X112087407Y-127330613D01*
X112112963Y-127044260D01*
X112113427Y-127000000D01*
X112093873Y-126713175D01*
X112089336Y-126691264D01*
X112036443Y-126435855D01*
X112035574Y-126431658D01*
X111939607Y-126160657D01*
X111807750Y-125905188D01*
X111794488Y-125886317D01*
X111644904Y-125673482D01*
X111642441Y-125669977D01*
X111446740Y-125459378D01*
X111224268Y-125277287D01*
X110979142Y-125127073D01*
X110961048Y-125119130D01*
X110719830Y-125013243D01*
X110715898Y-125011517D01*
X110689963Y-125004129D01*
X110443534Y-124933932D01*
X110443535Y-124933932D01*
X110439406Y-124932756D01*
X110226704Y-124902485D01*
X110159036Y-124892854D01*
X110159034Y-124892854D01*
X110154784Y-124892249D01*
X110150495Y-124892227D01*
X110150488Y-124892226D01*
X109871583Y-124890765D01*
X109871576Y-124890765D01*
X109867297Y-124890743D01*
X109863053Y-124891302D01*
X109863049Y-124891302D01*
X109737660Y-124907810D01*
X109582266Y-124928268D01*
X109578126Y-124929401D01*
X109578124Y-124929401D01*
X109501311Y-124950415D01*
X109304964Y-125004129D01*
X109301016Y-125005813D01*
X109044476Y-125115237D01*
X109044472Y-125115239D01*
X109040524Y-125116923D01*
X108915960Y-125191473D01*
X108797521Y-125262357D01*
X108797517Y-125262360D01*
X108793839Y-125264561D01*
X108569472Y-125444313D01*
X108371577Y-125652851D01*
X108203814Y-125886317D01*
X108069288Y-126140392D01*
X107970489Y-126410373D01*
X107909245Y-126691264D01*
X107886689Y-126977869D01*
X96111918Y-126977869D01*
X96093873Y-126713175D01*
X96089336Y-126691264D01*
X96036443Y-126435855D01*
X96035574Y-126431658D01*
X95939607Y-126160657D01*
X95807750Y-125905188D01*
X95794488Y-125886317D01*
X95644904Y-125673482D01*
X95642441Y-125669977D01*
X95446740Y-125459378D01*
X95224268Y-125277287D01*
X94979142Y-125127073D01*
X94961048Y-125119130D01*
X94719830Y-125013243D01*
X94715898Y-125011517D01*
X94689963Y-125004129D01*
X94443534Y-124933932D01*
X94443535Y-124933932D01*
X94439406Y-124932756D01*
X94226704Y-124902485D01*
X94159036Y-124892854D01*
X94159034Y-124892854D01*
X94154784Y-124892249D01*
X94150495Y-124892227D01*
X94150488Y-124892226D01*
X93871583Y-124890765D01*
X93871576Y-124890765D01*
X93867297Y-124890743D01*
X93863053Y-124891302D01*
X93863049Y-124891302D01*
X93737660Y-124907810D01*
X93582266Y-124928268D01*
X93578126Y-124929401D01*
X93578124Y-124929401D01*
X93501311Y-124950415D01*
X93304964Y-125004129D01*
X93301016Y-125005813D01*
X93044476Y-125115237D01*
X93044472Y-125115239D01*
X93040524Y-125116923D01*
X92915960Y-125191473D01*
X92797521Y-125262357D01*
X92797517Y-125262360D01*
X92793839Y-125264561D01*
X92569472Y-125444313D01*
X92371577Y-125652851D01*
X92203814Y-125886317D01*
X92069288Y-126140392D01*
X91970489Y-126410373D01*
X91909245Y-126691264D01*
X91886689Y-126977869D01*
X91508000Y-126977869D01*
X91508000Y-122600000D01*
X100387028Y-122600000D01*
X100406886Y-122852324D01*
X100465972Y-123098436D01*
X100562831Y-123332274D01*
X100695078Y-123548081D01*
X100859457Y-123740543D01*
X101051919Y-123904922D01*
X101267726Y-124037169D01*
X101272296Y-124039062D01*
X101272300Y-124039064D01*
X101496991Y-124132134D01*
X101501564Y-124134028D01*
X101586655Y-124154457D01*
X101742863Y-124191959D01*
X101742869Y-124191960D01*
X101747676Y-124193114D01*
X102000000Y-124212972D01*
X102252324Y-124193114D01*
X102257131Y-124191960D01*
X102257137Y-124191959D01*
X102413345Y-124154457D01*
X102498436Y-124134028D01*
X102503009Y-124132134D01*
X102727700Y-124039064D01*
X102727704Y-124039062D01*
X102732274Y-124037169D01*
X102948081Y-123904922D01*
X103140543Y-123740543D01*
X103304922Y-123548081D01*
X103437169Y-123332274D01*
X103534028Y-123098436D01*
X103593114Y-122852324D01*
X103612972Y-122600000D01*
X103593114Y-122347676D01*
X103534028Y-122101564D01*
X103437169Y-121867726D01*
X103304922Y-121651919D01*
X103140543Y-121459457D01*
X102948081Y-121295078D01*
X102732274Y-121162831D01*
X102727704Y-121160938D01*
X102727700Y-121160936D01*
X102503009Y-121067866D01*
X102503007Y-121067865D01*
X102498436Y-121065972D01*
X102413345Y-121045543D01*
X102257137Y-121008041D01*
X102257131Y-121008040D01*
X102252324Y-121006886D01*
X102000000Y-120987028D01*
X101747676Y-121006886D01*
X101742869Y-121008040D01*
X101742863Y-121008041D01*
X101586655Y-121045543D01*
X101501564Y-121065972D01*
X101496993Y-121067865D01*
X101496991Y-121067866D01*
X101272300Y-121160936D01*
X101272296Y-121160938D01*
X101267726Y-121162831D01*
X101051919Y-121295078D01*
X100859457Y-121459457D01*
X100695078Y-121651919D01*
X100562831Y-121867726D01*
X100465972Y-122101564D01*
X100406886Y-122347676D01*
X100387028Y-122600000D01*
X91508000Y-122600000D01*
X91508000Y-106581194D01*
X91528002Y-106513073D01*
X91581658Y-106466580D01*
X91651932Y-106456476D01*
X91709565Y-106480368D01*
X91803295Y-106550615D01*
X91811704Y-106553767D01*
X91811707Y-106553769D01*
X91856303Y-106570487D01*
X91913068Y-106613128D01*
X91937689Y-106681285D01*
X91937275Y-106687352D01*
X91938582Y-106694839D01*
X91948261Y-106750299D01*
X91949223Y-106756821D01*
X91956898Y-106820242D01*
X91959581Y-106827343D01*
X91960222Y-106829952D01*
X91964685Y-106846262D01*
X91965450Y-106848798D01*
X91966757Y-106856284D01*
X91969811Y-106863241D01*
X91992442Y-106914795D01*
X91994933Y-106920899D01*
X92017513Y-106980656D01*
X92021817Y-106986919D01*
X92023054Y-106989285D01*
X92031299Y-107004097D01*
X92032632Y-107006351D01*
X92035685Y-107013305D01*
X92040307Y-107019328D01*
X92074579Y-107063991D01*
X92078459Y-107069332D01*
X92110339Y-107115720D01*
X92110344Y-107115725D01*
X92114643Y-107121981D01*
X92120313Y-107127032D01*
X92120314Y-107127034D01*
X92161170Y-107163435D01*
X92166446Y-107168416D01*
X97346337Y-112348308D01*
X97380363Y-112410620D01*
X97382763Y-112448381D01*
X97365890Y-112641243D01*
X97366370Y-112646726D01*
X97366370Y-112649817D01*
X97346371Y-112717938D01*
X97329465Y-112738919D01*
X96572211Y-113496172D01*
X96564444Y-113503314D01*
X96529847Y-113532550D01*
X96529843Y-113532554D01*
X96524633Y-113536957D01*
X96520486Y-113542381D01*
X96520485Y-113542382D01*
X96475326Y-113601448D01*
X96473432Y-113603865D01*
X96422490Y-113667224D01*
X96419453Y-113673343D01*
X96417665Y-113676138D01*
X96417412Y-113676499D01*
X96417210Y-113676866D01*
X96415479Y-113679724D01*
X96411340Y-113685138D01*
X96408459Y-113691317D01*
X96377015Y-113758748D01*
X96375681Y-113761519D01*
X96339553Y-113834300D01*
X96337902Y-113840921D01*
X96336751Y-113844049D01*
X96336587Y-113844442D01*
X96336468Y-113844847D01*
X96335391Y-113848011D01*
X96332510Y-113854190D01*
X96319662Y-113911668D01*
X96314785Y-113933488D01*
X96314076Y-113936484D01*
X96294428Y-114015287D01*
X96294237Y-114022108D01*
X96293785Y-114025411D01*
X96293626Y-114026295D01*
X96292948Y-114031178D01*
X96291820Y-114036226D01*
X96291500Y-114041949D01*
X96291500Y-114118330D01*
X96291451Y-114121849D01*
X96289219Y-114201743D01*
X96290498Y-114208447D01*
X96291045Y-114215248D01*
X96290525Y-114215290D01*
X96291500Y-114225611D01*
X96291500Y-115114103D01*
X96268713Y-115186373D01*
X96148672Y-115357810D01*
X96148669Y-115357815D01*
X96145512Y-115362324D01*
X96143189Y-115367306D01*
X96143186Y-115367311D01*
X96053883Y-115558822D01*
X96051560Y-115563804D01*
X95994022Y-115778537D01*
X95974647Y-116000000D01*
X95994022Y-116221463D01*
X96051560Y-116436196D01*
X96053882Y-116441177D01*
X96053883Y-116441178D01*
X96143186Y-116632689D01*
X96143189Y-116632694D01*
X96145512Y-116637676D01*
X96148668Y-116642183D01*
X96148669Y-116642185D01*
X96185107Y-116694223D01*
X96273023Y-116819781D01*
X96354595Y-116901353D01*
X96388621Y-116963665D01*
X96391500Y-116990448D01*
X96391500Y-117926124D01*
X96391058Y-117936666D01*
X96386696Y-117988613D01*
X96387598Y-117995373D01*
X96387598Y-117995375D01*
X96397437Y-118069116D01*
X96397807Y-118072171D01*
X96399563Y-118088331D01*
X96406583Y-118152951D01*
X96408758Y-118159415D01*
X96409478Y-118162690D01*
X96409548Y-118163086D01*
X96409671Y-118163510D01*
X96410462Y-118166730D01*
X96411366Y-118173503D01*
X96439139Y-118249808D01*
X96440156Y-118252712D01*
X96446407Y-118271287D01*
X96466078Y-118329737D01*
X96469596Y-118335591D01*
X96470985Y-118338598D01*
X96471152Y-118339003D01*
X96471357Y-118339379D01*
X96472827Y-118342366D01*
X96475162Y-118348782D01*
X96518730Y-118417434D01*
X96520255Y-118419903D01*
X96562147Y-118489623D01*
X96566834Y-118494580D01*
X96568851Y-118497237D01*
X96569369Y-118497983D01*
X96572343Y-118501914D01*
X96575109Y-118506273D01*
X96578930Y-118510546D01*
X96580176Y-118511792D01*
X96580193Y-118511810D01*
X96632927Y-118564544D01*
X96635345Y-118567029D01*
X96690308Y-118625150D01*
X96695949Y-118628983D01*
X96701147Y-118633407D01*
X96700807Y-118633806D01*
X96708798Y-118640414D01*
X97329465Y-119261082D01*
X97363490Y-119323394D01*
X97366369Y-119350177D01*
X97366369Y-119353281D01*
X97365890Y-119358757D01*
X97385265Y-119580220D01*
X97442803Y-119794953D01*
X97445125Y-119799934D01*
X97445126Y-119799935D01*
X97534429Y-119991446D01*
X97534432Y-119991451D01*
X97536755Y-119996433D01*
X97664266Y-120178538D01*
X97821462Y-120335734D01*
X97825970Y-120338891D01*
X97825973Y-120338893D01*
X97901738Y-120391944D01*
X98003566Y-120463245D01*
X98008548Y-120465568D01*
X98008553Y-120465571D01*
X98200065Y-120554874D01*
X98205047Y-120557197D01*
X98210355Y-120558619D01*
X98210357Y-120558620D01*
X98276192Y-120576260D01*
X98419780Y-120614735D01*
X98641243Y-120634110D01*
X98862706Y-120614735D01*
X99006294Y-120576260D01*
X99072129Y-120558620D01*
X99072131Y-120558619D01*
X99077439Y-120557197D01*
X99082421Y-120554874D01*
X99273933Y-120465571D01*
X99273938Y-120465568D01*
X99278920Y-120463245D01*
X99380748Y-120391944D01*
X99456513Y-120338893D01*
X99456516Y-120338891D01*
X99461024Y-120335734D01*
X99618220Y-120178538D01*
X99745731Y-119996433D01*
X99748054Y-119991451D01*
X99748057Y-119991446D01*
X99837360Y-119799935D01*
X99837361Y-119799934D01*
X99839683Y-119794953D01*
X99897221Y-119580220D01*
X99916596Y-119358757D01*
X99897221Y-119137294D01*
X99839683Y-118922561D01*
X99837360Y-118917579D01*
X99748057Y-118726068D01*
X99748054Y-118726063D01*
X99745731Y-118721081D01*
X99742574Y-118716572D01*
X99621379Y-118543487D01*
X99621377Y-118543484D01*
X99618220Y-118538976D01*
X99461024Y-118381780D01*
X99456516Y-118378623D01*
X99456513Y-118378621D01*
X99377462Y-118323269D01*
X99278920Y-118254269D01*
X99273938Y-118251946D01*
X99273933Y-118251943D01*
X99082421Y-118162640D01*
X99082420Y-118162639D01*
X99077439Y-118160317D01*
X99072131Y-118158895D01*
X99072129Y-118158894D01*
X99006294Y-118141254D01*
X98862706Y-118102779D01*
X98641243Y-118083404D01*
X98635767Y-118083883D01*
X98632662Y-118083883D01*
X98564541Y-118063881D01*
X98543567Y-118046978D01*
X98145405Y-117648816D01*
X98111379Y-117586504D01*
X98108500Y-117559721D01*
X98108500Y-116990448D01*
X98128502Y-116922327D01*
X98145405Y-116901353D01*
X98226977Y-116819781D01*
X98314894Y-116694223D01*
X98351331Y-116642185D01*
X98351332Y-116642183D01*
X98354488Y-116637676D01*
X98356811Y-116632694D01*
X98356814Y-116632689D01*
X98446117Y-116441178D01*
X98446118Y-116441177D01*
X98448440Y-116436196D01*
X98505978Y-116221463D01*
X98525353Y-116000000D01*
X98505978Y-115778537D01*
X98448440Y-115563804D01*
X98446117Y-115558822D01*
X98356814Y-115367311D01*
X98356811Y-115367306D01*
X98354488Y-115362324D01*
X98226977Y-115180219D01*
X98069781Y-115023023D01*
X98062229Y-115017735D01*
X98061203Y-115016452D01*
X98061057Y-115016329D01*
X98061082Y-115016300D01*
X98017901Y-114962278D01*
X98008500Y-114914522D01*
X98008500Y-114540278D01*
X98028502Y-114472157D01*
X98045405Y-114451183D01*
X98543567Y-113953021D01*
X98605879Y-113918995D01*
X98632668Y-113916116D01*
X98635760Y-113916116D01*
X98641243Y-113916596D01*
X98646718Y-113916117D01*
X98646721Y-113916117D01*
X98736326Y-113908278D01*
X98862706Y-113897221D01*
X99059141Y-113844586D01*
X99072129Y-113841106D01*
X99072131Y-113841105D01*
X99077439Y-113839683D01*
X99102086Y-113828190D01*
X99273933Y-113748057D01*
X99273938Y-113748054D01*
X99278920Y-113745731D01*
X99391039Y-113667224D01*
X99456513Y-113621379D01*
X99456516Y-113621377D01*
X99461024Y-113618220D01*
X99618220Y-113461024D01*
X99745731Y-113278919D01*
X99748054Y-113273937D01*
X99748057Y-113273932D01*
X99837360Y-113082421D01*
X99837361Y-113082420D01*
X99839683Y-113077439D01*
X99897221Y-112862706D01*
X99916596Y-112641243D01*
X99897221Y-112419780D01*
X99839683Y-112205047D01*
X99773660Y-112063460D01*
X99748057Y-112008554D01*
X99748054Y-112008549D01*
X99745731Y-112003567D01*
X99679528Y-111909019D01*
X99621379Y-111825973D01*
X99621377Y-111825970D01*
X99618220Y-111821462D01*
X99461024Y-111664266D01*
X99456516Y-111661109D01*
X99456513Y-111661107D01*
X99324272Y-111568511D01*
X99278920Y-111536755D01*
X99273938Y-111534432D01*
X99273933Y-111534429D01*
X99082421Y-111445126D01*
X99082420Y-111445125D01*
X99077439Y-111442803D01*
X99072131Y-111441381D01*
X99072129Y-111441380D01*
X99006294Y-111423740D01*
X98862706Y-111385265D01*
X98641243Y-111365890D01*
X98448382Y-111382763D01*
X98378779Y-111368774D01*
X98348307Y-111346337D01*
X93811494Y-106809524D01*
X93777468Y-106747212D01*
X93782533Y-106676397D01*
X93825080Y-106619561D01*
X93891600Y-106594750D01*
X93929736Y-106597846D01*
X93947651Y-106602106D01*
X93998514Y-106607631D01*
X94005328Y-106608000D01*
X94377885Y-106608000D01*
X94393124Y-106603525D01*
X94394329Y-106602135D01*
X94396000Y-106594452D01*
X94396000Y-105767548D01*
X94904000Y-105767548D01*
X94904000Y-106589885D01*
X94908475Y-106605124D01*
X94909865Y-106606329D01*
X94917548Y-106608000D01*
X95294672Y-106608000D01*
X95301486Y-106607631D01*
X95352351Y-106602105D01*
X95367606Y-106598478D01*
X95488054Y-106553324D01*
X95503649Y-106544786D01*
X95605724Y-106468285D01*
X95618285Y-106455724D01*
X95694786Y-106353649D01*
X95703324Y-106338054D01*
X95748478Y-106217606D01*
X95752105Y-106202351D01*
X95757631Y-106151486D01*
X95758000Y-106144672D01*
X95758000Y-105947548D01*
X96242000Y-105947548D01*
X96242000Y-106054672D01*
X96242369Y-106061486D01*
X96247895Y-106112351D01*
X96251522Y-106127606D01*
X96296676Y-106248054D01*
X96305214Y-106263649D01*
X96381715Y-106365724D01*
X96394276Y-106378285D01*
X96496351Y-106454786D01*
X96511946Y-106463324D01*
X96632394Y-106508478D01*
X96647649Y-106512105D01*
X96698514Y-106517631D01*
X96705328Y-106518000D01*
X96977885Y-106518000D01*
X96993124Y-106513525D01*
X96994329Y-106512135D01*
X96996000Y-106504452D01*
X96996000Y-105952115D01*
X96994659Y-105947548D01*
X97504000Y-105947548D01*
X97504000Y-106499885D01*
X97508475Y-106515124D01*
X97509865Y-106516329D01*
X97517548Y-106518000D01*
X97794672Y-106518000D01*
X97801486Y-106517631D01*
X97852351Y-106512105D01*
X97867606Y-106508478D01*
X97988054Y-106463324D01*
X98003649Y-106454786D01*
X98105724Y-106378285D01*
X98118284Y-106365725D01*
X98141387Y-106334898D01*
X98198246Y-106292382D01*
X98269064Y-106287356D01*
X98317779Y-106309636D01*
X98371351Y-106349786D01*
X98386946Y-106358324D01*
X98507394Y-106403478D01*
X98522649Y-106407105D01*
X98573514Y-106412631D01*
X98580328Y-106413000D01*
X99127885Y-106413000D01*
X99143124Y-106408525D01*
X99144329Y-106407135D01*
X99146000Y-106399452D01*
X99146000Y-105877115D01*
X99144659Y-105872548D01*
X99654000Y-105872548D01*
X99654000Y-106394885D01*
X99658475Y-106410124D01*
X99659865Y-106411329D01*
X99667548Y-106413000D01*
X100219672Y-106413000D01*
X100226486Y-106412631D01*
X100277351Y-106407105D01*
X100292606Y-106403478D01*
X100413054Y-106358324D01*
X100428649Y-106349786D01*
X100530724Y-106273285D01*
X100543285Y-106260724D01*
X100619786Y-106158649D01*
X100628324Y-106143054D01*
X100673478Y-106022606D01*
X100677105Y-106007351D01*
X100682631Y-105956486D01*
X100683000Y-105949672D01*
X100683000Y-105877115D01*
X100678525Y-105861876D01*
X100677135Y-105860671D01*
X100669452Y-105859000D01*
X99672115Y-105859000D01*
X99656876Y-105863475D01*
X99655671Y-105864865D01*
X99654000Y-105872548D01*
X99144659Y-105872548D01*
X99141525Y-105861876D01*
X99140135Y-105860671D01*
X99132452Y-105859000D01*
X98316115Y-105859000D01*
X98300876Y-105863475D01*
X98278611Y-105889170D01*
X98277189Y-105887938D01*
X98272185Y-105897100D01*
X98209871Y-105931122D01*
X98183094Y-105934000D01*
X97522115Y-105934000D01*
X97506876Y-105938475D01*
X97505671Y-105939865D01*
X97504000Y-105947548D01*
X96994659Y-105947548D01*
X96991525Y-105936876D01*
X96990135Y-105935671D01*
X96982452Y-105934000D01*
X96260115Y-105934000D01*
X96244876Y-105938475D01*
X96243671Y-105939865D01*
X96242000Y-105947548D01*
X95758000Y-105947548D01*
X95758000Y-105772115D01*
X95753525Y-105756876D01*
X95752135Y-105755671D01*
X95744452Y-105754000D01*
X94922115Y-105754000D01*
X94906876Y-105758475D01*
X94905671Y-105759865D01*
X94904000Y-105767548D01*
X94396000Y-105767548D01*
X94396000Y-104410115D01*
X94394659Y-104405548D01*
X94904000Y-104405548D01*
X94904000Y-105227885D01*
X94908475Y-105243124D01*
X94909865Y-105244329D01*
X94917548Y-105246000D01*
X95739885Y-105246000D01*
X95755124Y-105241525D01*
X95756329Y-105240135D01*
X95758000Y-105232452D01*
X95758000Y-104855328D01*
X95757631Y-104848514D01*
X95752105Y-104797649D01*
X95748478Y-104782394D01*
X95703324Y-104661946D01*
X95694786Y-104646351D01*
X95618285Y-104544276D01*
X95605724Y-104531715D01*
X95503649Y-104455214D01*
X95488054Y-104446676D01*
X95367606Y-104401522D01*
X95352351Y-104397895D01*
X95301486Y-104392369D01*
X95294672Y-104392000D01*
X94922115Y-104392000D01*
X94906876Y-104396475D01*
X94905671Y-104397865D01*
X94904000Y-104405548D01*
X94394659Y-104405548D01*
X94391525Y-104394876D01*
X94390135Y-104393671D01*
X94382452Y-104392000D01*
X94005328Y-104392000D01*
X93998514Y-104392369D01*
X93947649Y-104397895D01*
X93932394Y-104401522D01*
X93811946Y-104446676D01*
X93796352Y-104455214D01*
X93725982Y-104507953D01*
X93659476Y-104532801D01*
X93590093Y-104517748D01*
X93574852Y-104507953D01*
X93572955Y-104506531D01*
X93496705Y-104449385D01*
X93360316Y-104398255D01*
X93298134Y-104391500D01*
X93234500Y-104391500D01*
X93166379Y-104371498D01*
X93119886Y-104317842D01*
X93108500Y-104265500D01*
X93108500Y-103634500D01*
X93128502Y-103566379D01*
X93182158Y-103519886D01*
X93234500Y-103508500D01*
X94498134Y-103508500D01*
X94560316Y-103501745D01*
X94696705Y-103450615D01*
X94813261Y-103363261D01*
X94833731Y-103335948D01*
X94875198Y-103280619D01*
X94932057Y-103238104D01*
X95002876Y-103233078D01*
X95065119Y-103267089D01*
G37*
%TD.AperFunction*%
%TA.AperFunction,Conductor*%
G36*
X111970078Y-92509500D02*
G01*
X111984860Y-92511802D01*
X111984863Y-92511802D01*
X111993732Y-92513183D01*
X112002733Y-92512006D01*
X112033172Y-92511735D01*
X112095378Y-92518744D01*
X112122885Y-92525023D01*
X112200070Y-92552031D01*
X112225492Y-92564273D01*
X112294741Y-92607786D01*
X112316799Y-92625378D01*
X112374622Y-92683201D01*
X112392214Y-92705260D01*
X112435723Y-92774504D01*
X112447966Y-92799926D01*
X112474976Y-92877119D01*
X112481254Y-92904624D01*
X112487522Y-92960250D01*
X112488305Y-92975897D01*
X112488196Y-92984854D01*
X112486814Y-92993728D01*
X112487979Y-93002634D01*
X112490936Y-93025251D01*
X112492000Y-93041588D01*
X112492000Y-101100470D01*
X112471998Y-101168591D01*
X112418342Y-101215084D01*
X112348068Y-101225188D01*
X112283488Y-101195694D01*
X112265174Y-101176035D01*
X112188642Y-101073919D01*
X112183261Y-101066739D01*
X112066705Y-100979385D01*
X111930316Y-100928255D01*
X111868134Y-100921500D01*
X111775660Y-100921500D01*
X111707539Y-100901498D01*
X111686565Y-100884595D01*
X108545405Y-97743435D01*
X108511379Y-97681123D01*
X108508500Y-97654340D01*
X108508500Y-95718744D01*
X108528502Y-95650623D01*
X108532564Y-95644683D01*
X108534621Y-95641852D01*
X108539040Y-95636944D01*
X108634527Y-95471556D01*
X108693542Y-95289928D01*
X108713504Y-95100000D01*
X108693542Y-94910072D01*
X108634527Y-94728444D01*
X108539040Y-94563056D01*
X108519337Y-94541173D01*
X108415675Y-94426045D01*
X108415674Y-94426044D01*
X108411253Y-94421134D01*
X108256752Y-94308882D01*
X108250724Y-94306198D01*
X108250722Y-94306197D01*
X108088319Y-94233891D01*
X108088318Y-94233891D01*
X108082288Y-94231206D01*
X107988888Y-94211353D01*
X107901944Y-94192872D01*
X107901939Y-94192872D01*
X107895487Y-94191500D01*
X107704513Y-94191500D01*
X107698061Y-94192872D01*
X107698056Y-94192872D01*
X107611113Y-94211353D01*
X107517712Y-94231206D01*
X107511682Y-94233891D01*
X107511681Y-94233891D01*
X107349278Y-94306197D01*
X107349276Y-94306198D01*
X107343248Y-94308882D01*
X107188747Y-94421134D01*
X107184326Y-94426044D01*
X107184325Y-94426045D01*
X107080664Y-94541173D01*
X107060960Y-94563056D01*
X106965473Y-94728444D01*
X106906458Y-94910072D01*
X106886496Y-95100000D01*
X106906458Y-95289928D01*
X106965473Y-95471556D01*
X107060960Y-95636944D01*
X107065379Y-95641852D01*
X107067436Y-95644683D01*
X107091295Y-95711551D01*
X107091500Y-95718744D01*
X107091500Y-97971088D01*
X107091208Y-97979658D01*
X107087275Y-98037352D01*
X107088580Y-98044829D01*
X107088580Y-98044830D01*
X107098261Y-98100299D01*
X107099223Y-98106821D01*
X107106898Y-98170242D01*
X107109581Y-98177343D01*
X107110222Y-98179952D01*
X107114685Y-98196262D01*
X107115450Y-98198798D01*
X107116757Y-98206284D01*
X107119811Y-98213241D01*
X107142442Y-98264795D01*
X107144933Y-98270899D01*
X107167513Y-98330656D01*
X107171817Y-98336919D01*
X107173054Y-98339285D01*
X107181299Y-98354097D01*
X107182632Y-98356351D01*
X107185685Y-98363305D01*
X107190307Y-98369328D01*
X107224579Y-98413991D01*
X107228459Y-98419332D01*
X107260339Y-98465720D01*
X107260344Y-98465725D01*
X107264643Y-98471981D01*
X107270313Y-98477032D01*
X107270314Y-98477034D01*
X107311170Y-98513435D01*
X107316446Y-98518416D01*
X110634595Y-101836566D01*
X110668621Y-101898878D01*
X110671500Y-101925661D01*
X110671500Y-102018134D01*
X110678255Y-102080316D01*
X110698883Y-102135340D01*
X110706542Y-102155770D01*
X110711725Y-102226577D01*
X110706543Y-102244227D01*
X110678255Y-102319684D01*
X110671500Y-102381866D01*
X110671500Y-103018134D01*
X110678255Y-103080316D01*
X110729385Y-103216705D01*
X110734771Y-103223891D01*
X110766326Y-103265995D01*
X110791174Y-103332501D01*
X110791500Y-103341560D01*
X110791500Y-103544087D01*
X110771498Y-103612208D01*
X110761898Y-103624120D01*
X110761739Y-103624239D01*
X110760905Y-103625352D01*
X110760900Y-103625358D01*
X110754049Y-103634500D01*
X110674385Y-103740795D01*
X110623255Y-103877184D01*
X110616500Y-103987500D01*
X110616500Y-104437500D01*
X110623255Y-104547816D01*
X110674385Y-104684205D01*
X110679771Y-104691392D01*
X110684079Y-104699260D01*
X110681681Y-104700573D01*
X110701591Y-104753847D01*
X110686545Y-104823231D01*
X110683059Y-104828655D01*
X110671676Y-104849446D01*
X110627045Y-104968499D01*
X110623174Y-104986668D01*
X110618107Y-105069415D01*
X110621615Y-105084781D01*
X110632500Y-105087500D01*
X111599000Y-105087500D01*
X111667121Y-105107502D01*
X111713614Y-105161158D01*
X111725000Y-105213500D01*
X111725000Y-106027385D01*
X111729475Y-106042624D01*
X111730865Y-106043829D01*
X111738548Y-106045500D01*
X111919672Y-106045500D01*
X111926486Y-106045131D01*
X111977351Y-106039605D01*
X111992606Y-106035978D01*
X112113054Y-105990824D01*
X112128649Y-105982286D01*
X112230724Y-105905785D01*
X112243286Y-105893223D01*
X112265174Y-105864018D01*
X112322034Y-105821503D01*
X112392852Y-105816478D01*
X112455145Y-105850537D01*
X112489135Y-105912869D01*
X112492000Y-105939583D01*
X112492000Y-114270500D01*
X112471998Y-114338621D01*
X112418342Y-114385114D01*
X112366000Y-114396500D01*
X112092948Y-114396500D01*
X112065462Y-114393465D01*
X112028102Y-114385114D01*
X111946260Y-114366820D01*
X111940537Y-114366500D01*
X110032792Y-114366500D01*
X109964671Y-114346498D01*
X109943697Y-114329595D01*
X107677563Y-112063460D01*
X107670420Y-112055693D01*
X107641178Y-112021090D01*
X107636772Y-112015876D01*
X107627196Y-112008554D01*
X107572281Y-111966569D01*
X107569858Y-111964670D01*
X107511826Y-111918011D01*
X107511825Y-111918010D01*
X107506505Y-111913733D01*
X107500386Y-111910696D01*
X107497591Y-111908908D01*
X107497230Y-111908655D01*
X107496863Y-111908453D01*
X107494005Y-111906722D01*
X107488591Y-111902583D01*
X107414979Y-111868257D01*
X107412207Y-111866923D01*
X107345539Y-111833829D01*
X107339429Y-111830796D01*
X107332808Y-111829145D01*
X107329680Y-111827994D01*
X107329287Y-111827830D01*
X107328882Y-111827711D01*
X107325718Y-111826634D01*
X107319539Y-111823753D01*
X107240243Y-111806028D01*
X107237245Y-111805319D01*
X107165064Y-111787322D01*
X107165063Y-111787322D01*
X107158442Y-111785671D01*
X107151621Y-111785480D01*
X107148318Y-111785028D01*
X107147434Y-111784869D01*
X107142551Y-111784191D01*
X107137503Y-111783063D01*
X107131780Y-111782743D01*
X107055399Y-111782743D01*
X107051880Y-111782694D01*
X106971986Y-111780462D01*
X106965282Y-111781741D01*
X106958481Y-111782288D01*
X106958439Y-111781768D01*
X106948118Y-111782743D01*
X106349205Y-111782743D01*
X106281084Y-111762741D01*
X106260110Y-111745838D01*
X106178538Y-111664266D01*
X106174028Y-111661108D01*
X106174022Y-111661103D01*
X106120987Y-111623968D01*
X106076658Y-111568511D01*
X106067257Y-111520755D01*
X106067257Y-108637669D01*
X106067549Y-108629099D01*
X106070966Y-108578981D01*
X106070966Y-108578977D01*
X106071482Y-108571405D01*
X106060495Y-108508454D01*
X106059533Y-108501932D01*
X106052771Y-108446055D01*
X106051859Y-108438515D01*
X106049176Y-108431414D01*
X106048535Y-108428805D01*
X106044072Y-108412495D01*
X106043307Y-108409959D01*
X106042000Y-108402473D01*
X106016313Y-108343957D01*
X106013822Y-108337853D01*
X105993930Y-108285209D01*
X105993929Y-108285208D01*
X105991244Y-108278101D01*
X105986940Y-108271838D01*
X105985703Y-108269472D01*
X105977458Y-108254660D01*
X105976125Y-108252406D01*
X105973072Y-108245452D01*
X105934170Y-108194755D01*
X105930298Y-108189425D01*
X105898418Y-108143037D01*
X105898413Y-108143032D01*
X105894114Y-108136776D01*
X105847586Y-108095321D01*
X105842311Y-108090341D01*
X104380565Y-106628595D01*
X104346539Y-106566283D01*
X104351604Y-106495468D01*
X104394151Y-106438632D01*
X104460671Y-106413821D01*
X104469660Y-106413500D01*
X105423134Y-106413500D01*
X105485316Y-106406745D01*
X105621705Y-106355615D01*
X105738261Y-106268261D01*
X105825615Y-106151705D01*
X105876745Y-106015316D01*
X105883500Y-105953134D01*
X105883500Y-105552970D01*
X110617947Y-105552970D01*
X110623174Y-105638332D01*
X110627045Y-105656501D01*
X110671676Y-105775554D01*
X110680214Y-105791149D01*
X110756715Y-105893224D01*
X110769276Y-105905785D01*
X110871351Y-105982286D01*
X110886946Y-105990824D01*
X111007394Y-106035978D01*
X111022649Y-106039605D01*
X111073514Y-106045131D01*
X111080328Y-106045500D01*
X111256885Y-106045500D01*
X111272124Y-106041025D01*
X111273329Y-106039635D01*
X111275000Y-106031952D01*
X111275000Y-105555615D01*
X111270525Y-105540376D01*
X111269135Y-105539171D01*
X111261452Y-105537500D01*
X110635115Y-105537500D01*
X110619996Y-105541939D01*
X110617947Y-105552970D01*
X105883500Y-105552970D01*
X105883500Y-105256866D01*
X105876745Y-105194684D01*
X105825615Y-105058295D01*
X105816074Y-105045565D01*
X105791226Y-104979061D01*
X105806278Y-104909678D01*
X105816070Y-104894441D01*
X105825615Y-104881705D01*
X105876745Y-104745316D01*
X105883500Y-104683134D01*
X105883500Y-103986866D01*
X105876745Y-103924684D01*
X105825615Y-103788295D01*
X105816074Y-103775565D01*
X105791226Y-103709061D01*
X105806278Y-103639678D01*
X105816070Y-103624441D01*
X105825615Y-103611705D01*
X105876745Y-103475316D01*
X105883500Y-103413134D01*
X105883500Y-102872509D01*
X105903502Y-102804388D01*
X105957158Y-102757895D01*
X106027432Y-102747791D01*
X106053729Y-102754527D01*
X106172282Y-102798971D01*
X106172288Y-102798973D01*
X106179684Y-102801745D01*
X106241866Y-102808500D01*
X106998134Y-102808500D01*
X107060316Y-102801745D01*
X107196705Y-102750615D01*
X107274852Y-102692047D01*
X107341358Y-102667199D01*
X107410741Y-102682252D01*
X107425982Y-102692047D01*
X107496352Y-102744786D01*
X107511946Y-102753324D01*
X107632394Y-102798478D01*
X107647649Y-102802105D01*
X107698514Y-102807631D01*
X107705328Y-102808000D01*
X107807885Y-102808000D01*
X107823124Y-102803525D01*
X107824329Y-102802135D01*
X107826000Y-102794452D01*
X107826000Y-102067548D01*
X108334000Y-102067548D01*
X108334000Y-102789885D01*
X108338475Y-102805124D01*
X108339865Y-102806329D01*
X108347548Y-102808000D01*
X108454672Y-102808000D01*
X108461486Y-102807631D01*
X108512351Y-102802105D01*
X108527606Y-102798478D01*
X108648054Y-102753324D01*
X108663649Y-102744786D01*
X108765724Y-102668285D01*
X108778285Y-102655724D01*
X108854786Y-102553649D01*
X108863324Y-102538054D01*
X108908478Y-102417606D01*
X108912105Y-102402351D01*
X108917631Y-102351486D01*
X108918000Y-102344672D01*
X108918000Y-102072115D01*
X108913525Y-102056876D01*
X108912135Y-102055671D01*
X108904452Y-102054000D01*
X108352115Y-102054000D01*
X108336876Y-102058475D01*
X108335671Y-102059865D01*
X108334000Y-102067548D01*
X107826000Y-102067548D01*
X107826000Y-100810115D01*
X107824659Y-100805548D01*
X108334000Y-100805548D01*
X108334000Y-101527885D01*
X108338475Y-101543124D01*
X108339865Y-101544329D01*
X108347548Y-101546000D01*
X108899885Y-101546000D01*
X108915124Y-101541525D01*
X108916329Y-101540135D01*
X108918000Y-101532452D01*
X108918000Y-101255328D01*
X108917631Y-101248514D01*
X108912105Y-101197649D01*
X108908478Y-101182394D01*
X108863324Y-101061946D01*
X108854786Y-101046351D01*
X108778285Y-100944276D01*
X108765724Y-100931715D01*
X108663649Y-100855214D01*
X108648054Y-100846676D01*
X108527606Y-100801522D01*
X108512351Y-100797895D01*
X108461486Y-100792369D01*
X108454672Y-100792000D01*
X108352115Y-100792000D01*
X108336876Y-100796475D01*
X108335671Y-100797865D01*
X108334000Y-100805548D01*
X107824659Y-100805548D01*
X107821525Y-100794876D01*
X107820135Y-100793671D01*
X107812452Y-100792000D01*
X107705328Y-100792000D01*
X107698514Y-100792369D01*
X107647649Y-100797895D01*
X107632394Y-100801522D01*
X107511946Y-100846676D01*
X107496352Y-100855214D01*
X107425982Y-100907953D01*
X107359476Y-100932801D01*
X107290093Y-100917748D01*
X107274852Y-100907953D01*
X107266239Y-100901498D01*
X107196705Y-100849385D01*
X107060316Y-100798255D01*
X106998134Y-100791500D01*
X106643827Y-100791500D01*
X106575706Y-100771498D01*
X106529213Y-100717842D01*
X106519936Y-100642541D01*
X106522295Y-100629814D01*
X106518709Y-100567620D01*
X106518500Y-100560367D01*
X106518500Y-94728297D01*
X106538502Y-94660176D01*
X106571332Y-94625718D01*
X106685656Y-94544172D01*
X106685659Y-94544170D01*
X106689860Y-94541173D01*
X106848096Y-94383489D01*
X106898918Y-94312763D01*
X106975435Y-94206277D01*
X106978453Y-94202077D01*
X106983003Y-94192872D01*
X107075136Y-94006453D01*
X107075137Y-94006451D01*
X107077430Y-94001811D01*
X107142370Y-93788069D01*
X107171529Y-93566590D01*
X107173156Y-93500000D01*
X107154852Y-93277361D01*
X107100431Y-93060702D01*
X107011354Y-92855840D01*
X106912115Y-92702440D01*
X106891908Y-92634380D01*
X106911704Y-92566199D01*
X106965219Y-92519545D01*
X107017907Y-92508000D01*
X111950693Y-92508000D01*
X111970078Y-92509500D01*
G37*
%TD.AperFunction*%
%TA.AperFunction,Conductor*%
G36*
X103027461Y-101228502D02*
G01*
X103048435Y-101245405D01*
X103279595Y-101476565D01*
X103313621Y-101538877D01*
X103316500Y-101565660D01*
X103316500Y-102143134D01*
X103323255Y-102205316D01*
X103374385Y-102341705D01*
X103383926Y-102354435D01*
X103408774Y-102420939D01*
X103393722Y-102490322D01*
X103383930Y-102505559D01*
X103374385Y-102518295D01*
X103323255Y-102654684D01*
X103316500Y-102716866D01*
X103316500Y-103413134D01*
X103323255Y-103475316D01*
X103374385Y-103611705D01*
X103383926Y-103624435D01*
X103408774Y-103690939D01*
X103393722Y-103760322D01*
X103383930Y-103775559D01*
X103374385Y-103788295D01*
X103323255Y-103924684D01*
X103316500Y-103986866D01*
X103316500Y-104683134D01*
X103323255Y-104745316D01*
X103374385Y-104881705D01*
X103383926Y-104894435D01*
X103408774Y-104960939D01*
X103393722Y-105030322D01*
X103383930Y-105045559D01*
X103374385Y-105058295D01*
X103323255Y-105194684D01*
X103316500Y-105256866D01*
X103316500Y-105260340D01*
X103316496Y-105260353D01*
X103316316Y-105263680D01*
X103315532Y-105263638D01*
X103296498Y-105328461D01*
X103242842Y-105374954D01*
X103172568Y-105385058D01*
X103107988Y-105355564D01*
X103101405Y-105349435D01*
X102019665Y-104267695D01*
X101985639Y-104205383D01*
X101983450Y-104191770D01*
X101979232Y-104151637D01*
X101978542Y-104145072D01*
X101919527Y-103963444D01*
X101824040Y-103798056D01*
X101696253Y-103656134D01*
X101541752Y-103543882D01*
X101535724Y-103541198D01*
X101535722Y-103541197D01*
X101373319Y-103468891D01*
X101373318Y-103468891D01*
X101367288Y-103466206D01*
X101268600Y-103445229D01*
X101186944Y-103427872D01*
X101186939Y-103427872D01*
X101180487Y-103426500D01*
X100989513Y-103426500D01*
X100983061Y-103427872D01*
X100983056Y-103427872D01*
X100901400Y-103445229D01*
X100835696Y-103459195D01*
X100764906Y-103453793D01*
X100708274Y-103410976D01*
X100683780Y-103344339D01*
X100683500Y-103335948D01*
X100683500Y-102716866D01*
X100676745Y-102654684D01*
X100625615Y-102518295D01*
X100577260Y-102453775D01*
X100556201Y-102425676D01*
X100531353Y-102359170D01*
X100539045Y-102305882D01*
X100573971Y-102212718D01*
X100573973Y-102212712D01*
X100576745Y-102205316D01*
X100583500Y-102143134D01*
X100583500Y-101446866D01*
X100576745Y-101384684D01*
X100573971Y-101377284D01*
X100572144Y-101369600D01*
X100573816Y-101369203D01*
X100569330Y-101307921D01*
X100603252Y-101245553D01*
X100665507Y-101211424D01*
X100692495Y-101208500D01*
X102959340Y-101208500D01*
X103027461Y-101228502D01*
G37*
%TD.AperFunction*%
%TA.AperFunction,Conductor*%
G36*
X104622026Y-94175144D02*
G01*
X104649875Y-94206994D01*
X104709987Y-94305088D01*
X104856250Y-94473938D01*
X105028126Y-94616632D01*
X105039070Y-94623027D01*
X105087793Y-94674664D01*
X105101500Y-94731815D01*
X105101500Y-100239340D01*
X105081498Y-100307461D01*
X105064595Y-100328435D01*
X104689095Y-100703935D01*
X104626783Y-100737961D01*
X104555968Y-100732896D01*
X104510905Y-100703935D01*
X103826442Y-100019472D01*
X103820588Y-100013206D01*
X103787556Y-99975340D01*
X103787553Y-99975337D01*
X103782561Y-99969615D01*
X103730280Y-99932871D01*
X103724986Y-99928939D01*
X103680693Y-99894209D01*
X103674718Y-99889524D01*
X103667802Y-99886401D01*
X103665516Y-99885017D01*
X103650835Y-99876643D01*
X103648475Y-99875378D01*
X103642261Y-99871010D01*
X103635182Y-99868250D01*
X103635180Y-99868249D01*
X103582725Y-99847798D01*
X103576656Y-99845247D01*
X103518427Y-99818955D01*
X103510960Y-99817571D01*
X103508405Y-99816770D01*
X103492152Y-99812141D01*
X103489572Y-99811478D01*
X103482491Y-99808718D01*
X103474960Y-99807727D01*
X103474958Y-99807726D01*
X103445339Y-99803827D01*
X103419139Y-99800378D01*
X103412641Y-99799348D01*
X103349814Y-99787704D01*
X103342234Y-99788141D01*
X103342233Y-99788141D01*
X103287608Y-99791291D01*
X103280354Y-99791500D01*
X102633314Y-99791500D01*
X102565193Y-99771498D01*
X102518700Y-99717842D01*
X102508004Y-99652330D01*
X102512814Y-99606565D01*
X102513504Y-99600000D01*
X102507703Y-99544809D01*
X102494232Y-99416635D01*
X102494232Y-99416633D01*
X102493542Y-99410072D01*
X102434527Y-99228444D01*
X102339040Y-99063056D01*
X102334621Y-99058148D01*
X102332564Y-99055317D01*
X102308705Y-98988449D01*
X102308500Y-98981256D01*
X102308500Y-94731231D01*
X102328502Y-94663110D01*
X102382158Y-94616617D01*
X102452432Y-94606513D01*
X102498070Y-94622443D01*
X102503675Y-94625718D01*
X102681000Y-94729338D01*
X102685825Y-94731180D01*
X102685826Y-94731181D01*
X102758612Y-94758975D01*
X102889692Y-94809030D01*
X102894760Y-94810061D01*
X102894763Y-94810062D01*
X102999604Y-94831392D01*
X103108597Y-94853567D01*
X103113772Y-94853757D01*
X103113774Y-94853757D01*
X103326673Y-94861564D01*
X103326677Y-94861564D01*
X103331837Y-94861753D01*
X103336957Y-94861097D01*
X103336959Y-94861097D01*
X103548288Y-94834025D01*
X103548289Y-94834025D01*
X103553416Y-94833368D01*
X103558366Y-94831883D01*
X103762429Y-94770661D01*
X103762434Y-94770659D01*
X103767384Y-94769174D01*
X103967994Y-94670896D01*
X104149860Y-94541173D01*
X104308096Y-94383489D01*
X104358918Y-94312763D01*
X104438453Y-94202077D01*
X104439776Y-94203028D01*
X104486645Y-94159857D01*
X104556580Y-94147625D01*
X104622026Y-94175144D01*
G37*
%TD.AperFunction*%
%TA.AperFunction,Conductor*%
G36*
X97052383Y-92528002D02*
G01*
X97098876Y-92581658D01*
X97108980Y-92651932D01*
X97088350Y-92705004D01*
X97008098Y-92822649D01*
X97003000Y-92831623D01*
X96913338Y-93024783D01*
X96909775Y-93034470D01*
X96852864Y-93239681D01*
X96850933Y-93249800D01*
X96828302Y-93461574D01*
X96828050Y-93471863D01*
X96840309Y-93684477D01*
X96841745Y-93694697D01*
X96888565Y-93902446D01*
X96891645Y-93912275D01*
X96971770Y-94109603D01*
X96976413Y-94118794D01*
X97056460Y-94249420D01*
X97066916Y-94258880D01*
X97075694Y-94255096D01*
X98100905Y-93229885D01*
X98163217Y-93195859D01*
X98234032Y-93200924D01*
X98279095Y-93229885D01*
X99300474Y-94251264D01*
X99312484Y-94257823D01*
X99324223Y-94248855D01*
X99358022Y-94201819D01*
X99359277Y-94202721D01*
X99406391Y-94159355D01*
X99476330Y-94147148D01*
X99541767Y-94174691D01*
X99569580Y-94206513D01*
X99627287Y-94300683D01*
X99627291Y-94300688D01*
X99629987Y-94305088D01*
X99776250Y-94473938D01*
X99948126Y-94616632D01*
X100141000Y-94729338D01*
X100145825Y-94731180D01*
X100145826Y-94731181D01*
X100218612Y-94758975D01*
X100349692Y-94809030D01*
X100354760Y-94810061D01*
X100354763Y-94810062D01*
X100459604Y-94831392D01*
X100568597Y-94853567D01*
X100573772Y-94853757D01*
X100573774Y-94853757D01*
X100770117Y-94860957D01*
X100837459Y-94883442D01*
X100881955Y-94938765D01*
X100891500Y-94986872D01*
X100891500Y-98981256D01*
X100871498Y-99049377D01*
X100867436Y-99055317D01*
X100865379Y-99058148D01*
X100860960Y-99063056D01*
X100765473Y-99228444D01*
X100706458Y-99410072D01*
X100705768Y-99416633D01*
X100705768Y-99416635D01*
X100692297Y-99544809D01*
X100686496Y-99600000D01*
X100687186Y-99606565D01*
X100691996Y-99652330D01*
X100679224Y-99722168D01*
X100630722Y-99774015D01*
X100566686Y-99791500D01*
X98337879Y-99791500D01*
X98269758Y-99771498D01*
X98223265Y-99717842D01*
X98219897Y-99709730D01*
X98219793Y-99709451D01*
X98200615Y-99658295D01*
X98195235Y-99651116D01*
X98195233Y-99651113D01*
X98118642Y-99548919D01*
X98113261Y-99541739D01*
X97996705Y-99454385D01*
X97860316Y-99403255D01*
X97798134Y-99396500D01*
X96701866Y-99396500D01*
X96639684Y-99403255D01*
X96503295Y-99454385D01*
X96454005Y-99491326D01*
X96387499Y-99516174D01*
X96378440Y-99516500D01*
X92853927Y-99516500D01*
X92845358Y-99516208D01*
X92795225Y-99512790D01*
X92795221Y-99512790D01*
X92787648Y-99512274D01*
X92724681Y-99523264D01*
X92718169Y-99524224D01*
X92654758Y-99531898D01*
X92647657Y-99534581D01*
X92645048Y-99535222D01*
X92628715Y-99539691D01*
X92626195Y-99540452D01*
X92618717Y-99541757D01*
X92611765Y-99544809D01*
X92611764Y-99544809D01*
X92560204Y-99567441D01*
X92554099Y-99569932D01*
X92501456Y-99589825D01*
X92501452Y-99589827D01*
X92494344Y-99592513D01*
X92488083Y-99596816D01*
X92485717Y-99598053D01*
X92470937Y-99606280D01*
X92468652Y-99607631D01*
X92461695Y-99610685D01*
X92455675Y-99615305D01*
X92455669Y-99615308D01*
X92424542Y-99639194D01*
X92410998Y-99649587D01*
X92405668Y-99653459D01*
X92359280Y-99685339D01*
X92359275Y-99685344D01*
X92353019Y-99689643D01*
X92347968Y-99695313D01*
X92347966Y-99695314D01*
X92311565Y-99736170D01*
X92306584Y-99741446D01*
X91919480Y-100128550D01*
X91913215Y-100134404D01*
X91869615Y-100172439D01*
X91865248Y-100178653D01*
X91832872Y-100224719D01*
X91828939Y-100230014D01*
X91789524Y-100280282D01*
X91786401Y-100287198D01*
X91785017Y-100289484D01*
X91776643Y-100304165D01*
X91775378Y-100306525D01*
X91771010Y-100312739D01*
X91768250Y-100319818D01*
X91751393Y-100363054D01*
X91708012Y-100419255D01*
X91641133Y-100443082D01*
X91571989Y-100426968D01*
X91522533Y-100376031D01*
X91508000Y-100317284D01*
X91508000Y-94624853D01*
X97429977Y-94624853D01*
X97435258Y-94631907D01*
X97596756Y-94726279D01*
X97606042Y-94730729D01*
X97805001Y-94806703D01*
X97814899Y-94809579D01*
X98023595Y-94852038D01*
X98033823Y-94853257D01*
X98246650Y-94861062D01*
X98256936Y-94860595D01*
X98468185Y-94833534D01*
X98478262Y-94831392D01*
X98682255Y-94770191D01*
X98691842Y-94766433D01*
X98883098Y-94672738D01*
X98891944Y-94667465D01*
X98939247Y-94633723D01*
X98947648Y-94623023D01*
X98940660Y-94609870D01*
X98202812Y-93872022D01*
X98188868Y-93864408D01*
X98187035Y-93864539D01*
X98180420Y-93868790D01*
X97436737Y-94612473D01*
X97429977Y-94624853D01*
X91508000Y-94624853D01*
X91508000Y-93049307D01*
X91509500Y-93029922D01*
X91511802Y-93015140D01*
X91511802Y-93015137D01*
X91513183Y-93006268D01*
X91512006Y-92997267D01*
X91511735Y-92966828D01*
X91518744Y-92904622D01*
X91525023Y-92877115D01*
X91544470Y-92821538D01*
X91552031Y-92799929D01*
X91564273Y-92774508D01*
X91607786Y-92705259D01*
X91625378Y-92683201D01*
X91683201Y-92625378D01*
X91705260Y-92607786D01*
X91774504Y-92564277D01*
X91799926Y-92552034D01*
X91877119Y-92525024D01*
X91904624Y-92518746D01*
X91929766Y-92515913D01*
X91960256Y-92512478D01*
X91975897Y-92511695D01*
X91984854Y-92511804D01*
X91993728Y-92513186D01*
X92025251Y-92509064D01*
X92041588Y-92508000D01*
X96984262Y-92508000D01*
X97052383Y-92528002D01*
G37*
%TD.AperFunction*%
%TD*%
M02*
