%TF.GenerationSoftware,KiCad,Pcbnew,(5.99.0-11441-g1a5e63bcab)*%
%TF.CreationDate,2021-07-19T16:29:47+02:00*%
%TF.ProjectId,MQ Breakout,4d512042-7265-4616-9b6f-75742e6b6963,rev?*%
%TF.SameCoordinates,Original*%
%TF.FileFunction,Copper,L2,Bot*%
%TF.FilePolarity,Positive*%
%FSLAX46Y46*%
G04 Gerber Fmt 4.6, Leading zero omitted, Abs format (unit mm)*
G04 Created by KiCad (PCBNEW (5.99.0-11441-g1a5e63bcab)) date 2021-07-19 16:29:47*
%MOMM*%
%LPD*%
G01*
G04 APERTURE LIST*
%TA.AperFunction,ComponentPad*%
%ADD10C,1.524000*%
%TD*%
%TA.AperFunction,ComponentPad*%
%ADD11C,1.700000*%
%TD*%
%TA.AperFunction,ViaPad*%
%ADD12C,0.800000*%
%TD*%
%TA.AperFunction,Conductor*%
%ADD13C,0.400000*%
%TD*%
G04 APERTURE END LIST*
D10*
%TO.P,U1,6,B*%
%TO.N,AO*%
X105358757Y-112641243D03*
%TO.P,U1,5,H*%
%TO.N,GND*%
X106750000Y-116000000D03*
%TO.P,U1,4,B*%
%TO.N,AO*%
X105358757Y-119358757D03*
%TO.P,U1,3,A*%
%TO.N,5V*%
X98641243Y-119358757D03*
%TO.P,U1,2,H*%
X97250000Y-116000000D03*
%TO.P,U1,1,A*%
X98641243Y-112641243D03*
%TD*%
D11*
%TO.P,K1,4*%
%TO.N,5V*%
X105810000Y-93500000D03*
%TO.P,K1,3*%
%TO.N,D0*%
X103270000Y-93500000D03*
%TO.P,K1,2*%
%TO.N,AO*%
X100730000Y-93500000D03*
%TO.P,K1,1*%
%TO.N,GND*%
X98190000Y-93500000D03*
%TD*%
D12*
%TO.N,GND*%
X99600000Y-99300000D03*
X97200000Y-107300000D03*
X105800000Y-107000000D03*
X111900000Y-94900000D03*
X95150000Y-116650000D03*
X107500000Y-117750000D03*
X104500000Y-99800000D03*
X102700000Y-102650000D03*
%TO.N,D0*%
X107800000Y-95100000D03*
X98200000Y-101800000D03*
%TO.N,AO*%
X101085000Y-104335000D03*
X101600000Y-99600000D03*
%TD*%
D13*
%TO.N,D0*%
X103270000Y-93630000D02*
X103270000Y-93500000D01*
X98200000Y-98700000D02*
X103270000Y-93630000D01*
X98200000Y-101800000D02*
X98200000Y-98700000D01*
%TO.N,AO*%
X101600000Y-99600000D02*
X101200000Y-100000000D01*
X101200000Y-104220000D02*
X101085000Y-104335000D01*
X101200000Y-100000000D02*
X101200000Y-104220000D01*
%TO.N,D0*%
X107400000Y-95500000D02*
X104200000Y-95500000D01*
X104200000Y-95500000D02*
X103270000Y-94570000D01*
X103270000Y-94570000D02*
X103270000Y-93500000D01*
X107800000Y-95100000D02*
X107400000Y-95500000D01*
%TD*%
%TA.AperFunction,Conductor*%
%TO.N,GND*%
G36*
X97052383Y-92528002D02*
G01*
X97098876Y-92581658D01*
X97108980Y-92651932D01*
X97088350Y-92705004D01*
X97008098Y-92822649D01*
X97003000Y-92831623D01*
X96913338Y-93024783D01*
X96909775Y-93034470D01*
X96852864Y-93239681D01*
X96850933Y-93249800D01*
X96828302Y-93461574D01*
X96828050Y-93471863D01*
X96840309Y-93684477D01*
X96841745Y-93694697D01*
X96888565Y-93902446D01*
X96891645Y-93912275D01*
X96971770Y-94109603D01*
X96976413Y-94118794D01*
X97056460Y-94249420D01*
X97066916Y-94258880D01*
X97075694Y-94255096D01*
X98100905Y-93229885D01*
X98163217Y-93195859D01*
X98234032Y-93200924D01*
X98279095Y-93229885D01*
X99300474Y-94251264D01*
X99312484Y-94257823D01*
X99324223Y-94248855D01*
X99358022Y-94201819D01*
X99359277Y-94202721D01*
X99406391Y-94159355D01*
X99476330Y-94147148D01*
X99541767Y-94174691D01*
X99569580Y-94206513D01*
X99627287Y-94300683D01*
X99627291Y-94300688D01*
X99629987Y-94305088D01*
X99776250Y-94473938D01*
X99948126Y-94616632D01*
X100141000Y-94729338D01*
X100145825Y-94731180D01*
X100145826Y-94731181D01*
X100207144Y-94754596D01*
X100349692Y-94809030D01*
X100354760Y-94810061D01*
X100354763Y-94810062D01*
X100459604Y-94831392D01*
X100568597Y-94853567D01*
X100573772Y-94853757D01*
X100573774Y-94853757D01*
X100738736Y-94859806D01*
X100806078Y-94882291D01*
X100850574Y-94937614D01*
X100858096Y-95008211D01*
X100823214Y-95074816D01*
X97719480Y-98178550D01*
X97713215Y-98184404D01*
X97669615Y-98222439D01*
X97665248Y-98228653D01*
X97632872Y-98274719D01*
X97628939Y-98280014D01*
X97589524Y-98330282D01*
X97586401Y-98337198D01*
X97585017Y-98339484D01*
X97576643Y-98354165D01*
X97575378Y-98356525D01*
X97571010Y-98362739D01*
X97568250Y-98369818D01*
X97568249Y-98369820D01*
X97547798Y-98422275D01*
X97545247Y-98428344D01*
X97518955Y-98486573D01*
X97517571Y-98494040D01*
X97516770Y-98496595D01*
X97512141Y-98512848D01*
X97511478Y-98515428D01*
X97508718Y-98522509D01*
X97507727Y-98530040D01*
X97507726Y-98530042D01*
X97500379Y-98585852D01*
X97499348Y-98592359D01*
X97487704Y-98655186D01*
X97488141Y-98662766D01*
X97488141Y-98662767D01*
X97491291Y-98717392D01*
X97491500Y-98724646D01*
X97491500Y-101181256D01*
X97471498Y-101249377D01*
X97467436Y-101255317D01*
X97465379Y-101258148D01*
X97460960Y-101263056D01*
X97365473Y-101428444D01*
X97306458Y-101610072D01*
X97286496Y-101800000D01*
X97306458Y-101989928D01*
X97365473Y-102171556D01*
X97460960Y-102336944D01*
X97588747Y-102478866D01*
X97743248Y-102591118D01*
X97749276Y-102593802D01*
X97749278Y-102593803D01*
X97911681Y-102666109D01*
X97917712Y-102668794D01*
X98011112Y-102688647D01*
X98098056Y-102707128D01*
X98098061Y-102707128D01*
X98104513Y-102708500D01*
X98295487Y-102708500D01*
X98301939Y-102707128D01*
X98301944Y-102707128D01*
X98388888Y-102688647D01*
X98482288Y-102668794D01*
X98488319Y-102666109D01*
X98650722Y-102593803D01*
X98650724Y-102593802D01*
X98656752Y-102591118D01*
X98811253Y-102478866D01*
X98939040Y-102336944D01*
X99034527Y-102171556D01*
X99093542Y-101989928D01*
X99113504Y-101800000D01*
X99093542Y-101610072D01*
X99034527Y-101428444D01*
X98939040Y-101263056D01*
X98934621Y-101258148D01*
X98932564Y-101255317D01*
X98908705Y-101188449D01*
X98908500Y-101181256D01*
X98908500Y-99045660D01*
X98928502Y-98977539D01*
X98945405Y-98956565D01*
X102710905Y-95191065D01*
X102773217Y-95157039D01*
X102844032Y-95162104D01*
X102889095Y-95191065D01*
X103678550Y-95980520D01*
X103684404Y-95986785D01*
X103722439Y-96030385D01*
X103728657Y-96034755D01*
X103774697Y-96067112D01*
X103779993Y-96071045D01*
X103830282Y-96110477D01*
X103837204Y-96113602D01*
X103839452Y-96114964D01*
X103854185Y-96123368D01*
X103856524Y-96124622D01*
X103862739Y-96128990D01*
X103869815Y-96131749D01*
X103869819Y-96131751D01*
X103922274Y-96152202D01*
X103928352Y-96154757D01*
X103986574Y-96181045D01*
X103994045Y-96182429D01*
X103996599Y-96183230D01*
X104012878Y-96187867D01*
X104015433Y-96188523D01*
X104022509Y-96191282D01*
X104043262Y-96194014D01*
X104085851Y-96199621D01*
X104092367Y-96200653D01*
X104145865Y-96210568D01*
X104155187Y-96212296D01*
X104162767Y-96211859D01*
X104162768Y-96211859D01*
X104217398Y-96208709D01*
X104224651Y-96208500D01*
X107371088Y-96208500D01*
X107379658Y-96208792D01*
X107429776Y-96212209D01*
X107429780Y-96212209D01*
X107437352Y-96212725D01*
X107444829Y-96211420D01*
X107444830Y-96211420D01*
X107471308Y-96206799D01*
X107500303Y-96201738D01*
X107506821Y-96200777D01*
X107570242Y-96193102D01*
X107577343Y-96190419D01*
X107579952Y-96189778D01*
X107596262Y-96185315D01*
X107598798Y-96184550D01*
X107606284Y-96183243D01*
X107664800Y-96157556D01*
X107670904Y-96155065D01*
X107671717Y-96154758D01*
X107730656Y-96132487D01*
X107736919Y-96128183D01*
X107739285Y-96126946D01*
X107754097Y-96118701D01*
X107756351Y-96117368D01*
X107763305Y-96114315D01*
X107814002Y-96075413D01*
X107819332Y-96071541D01*
X107865720Y-96039661D01*
X107865725Y-96039656D01*
X107871981Y-96035357D01*
X107877035Y-96029685D01*
X107878037Y-96028801D01*
X107935167Y-96000066D01*
X108082288Y-95968794D01*
X108088319Y-95966109D01*
X108250722Y-95893803D01*
X108250724Y-95893802D01*
X108256752Y-95891118D01*
X108411253Y-95778866D01*
X108539040Y-95636944D01*
X108634527Y-95471556D01*
X108693542Y-95289928D01*
X108713504Y-95100000D01*
X108693542Y-94910072D01*
X108634527Y-94728444D01*
X108539040Y-94563056D01*
X108519337Y-94541173D01*
X108415675Y-94426045D01*
X108415674Y-94426044D01*
X108411253Y-94421134D01*
X108256752Y-94308882D01*
X108250724Y-94306198D01*
X108250722Y-94306197D01*
X108088319Y-94233891D01*
X108088318Y-94233891D01*
X108082288Y-94231206D01*
X107988888Y-94211353D01*
X107901944Y-94192872D01*
X107901939Y-94192872D01*
X107895487Y-94191500D01*
X107704513Y-94191500D01*
X107698061Y-94192872D01*
X107698056Y-94192872D01*
X107611113Y-94211353D01*
X107517712Y-94231206D01*
X107511682Y-94233891D01*
X107511681Y-94233891D01*
X107349278Y-94306197D01*
X107349276Y-94306198D01*
X107343248Y-94308882D01*
X107188747Y-94421134D01*
X107184326Y-94426044D01*
X107184325Y-94426045D01*
X107080664Y-94541173D01*
X107060960Y-94563056D01*
X106965473Y-94728444D01*
X106962824Y-94726915D01*
X106925350Y-94770914D01*
X106856329Y-94791500D01*
X106732538Y-94791500D01*
X106664417Y-94771498D01*
X106617924Y-94717842D01*
X106607820Y-94647568D01*
X106637314Y-94582988D01*
X106659370Y-94562921D01*
X106689860Y-94541173D01*
X106848096Y-94383489D01*
X106898918Y-94312763D01*
X106975435Y-94206277D01*
X106978453Y-94202077D01*
X106983003Y-94192872D01*
X107075136Y-94006453D01*
X107075137Y-94006451D01*
X107077430Y-94001811D01*
X107142370Y-93788069D01*
X107171529Y-93566590D01*
X107173156Y-93500000D01*
X107154852Y-93277361D01*
X107100431Y-93060702D01*
X107011354Y-92855840D01*
X106912115Y-92702440D01*
X106891908Y-92634380D01*
X106911704Y-92566199D01*
X106965219Y-92519545D01*
X107017907Y-92508000D01*
X111950693Y-92508000D01*
X111970078Y-92509500D01*
X111984860Y-92511802D01*
X111984863Y-92511802D01*
X111993732Y-92513183D01*
X112002733Y-92512006D01*
X112033172Y-92511735D01*
X112095378Y-92518744D01*
X112122885Y-92525023D01*
X112200070Y-92552031D01*
X112225492Y-92564273D01*
X112294741Y-92607786D01*
X112316799Y-92625378D01*
X112374622Y-92683201D01*
X112392214Y-92705260D01*
X112435723Y-92774504D01*
X112447966Y-92799926D01*
X112474976Y-92877119D01*
X112481254Y-92904624D01*
X112487522Y-92960250D01*
X112488305Y-92975897D01*
X112488196Y-92984854D01*
X112486814Y-92993728D01*
X112487979Y-93002634D01*
X112490936Y-93025251D01*
X112492000Y-93041588D01*
X112492000Y-128950679D01*
X112490500Y-128970062D01*
X112486815Y-128993730D01*
X112487979Y-129002632D01*
X112487979Y-129002634D01*
X112487992Y-129002730D01*
X112488263Y-129033170D01*
X112481254Y-129095375D01*
X112474975Y-129122882D01*
X112447966Y-129200069D01*
X112435724Y-129225490D01*
X112392215Y-129294734D01*
X112374623Y-129316794D01*
X112316795Y-129374621D01*
X112294736Y-129392212D01*
X112241065Y-129425936D01*
X112225492Y-129435721D01*
X112200071Y-129447963D01*
X112122883Y-129474972D01*
X112095376Y-129481251D01*
X112071428Y-129483949D01*
X112039744Y-129487519D01*
X112024103Y-129488302D01*
X112015145Y-129488193D01*
X112006271Y-129486811D01*
X111974727Y-129490936D01*
X111958389Y-129492000D01*
X92049307Y-129492000D01*
X92029922Y-129490500D01*
X92015140Y-129488198D01*
X92015137Y-129488198D01*
X92006268Y-129486817D01*
X91997267Y-129487994D01*
X91966828Y-129488265D01*
X91904622Y-129481256D01*
X91877115Y-129474977D01*
X91799930Y-129447969D01*
X91774508Y-129435727D01*
X91774499Y-129435721D01*
X91705256Y-129392212D01*
X91683201Y-129374622D01*
X91625378Y-129316799D01*
X91607786Y-129294740D01*
X91564277Y-129225496D01*
X91552034Y-129200074D01*
X91525024Y-129122881D01*
X91518746Y-129095376D01*
X91512478Y-129039750D01*
X91511695Y-129024103D01*
X91511804Y-129015146D01*
X91513186Y-129006272D01*
X91509064Y-128974749D01*
X91508000Y-128958412D01*
X91508000Y-126977869D01*
X91886689Y-126977869D01*
X91903238Y-127264883D01*
X91904063Y-127269088D01*
X91904064Y-127269096D01*
X91936010Y-127431921D01*
X91958586Y-127546995D01*
X91959973Y-127551045D01*
X91959974Y-127551050D01*
X92050321Y-127814930D01*
X92051710Y-127818986D01*
X92180885Y-128075822D01*
X92343721Y-128312750D01*
X92537206Y-128525388D01*
X92540501Y-128528143D01*
X92540502Y-128528144D01*
X92591258Y-128570582D01*
X92757759Y-128709798D01*
X93001298Y-128862571D01*
X93263318Y-128980877D01*
X93306709Y-128993730D01*
X93534857Y-129061311D01*
X93534862Y-129061312D01*
X93538970Y-129062529D01*
X93543204Y-129063177D01*
X93543209Y-129063178D01*
X93791811Y-129101219D01*
X93823153Y-129106015D01*
X93969485Y-129108314D01*
X94106317Y-129110464D01*
X94106323Y-129110464D01*
X94110608Y-129110531D01*
X94114860Y-129110016D01*
X94114868Y-129110016D01*
X94391756Y-129076508D01*
X94391761Y-129076507D01*
X94396017Y-129075992D01*
X94534163Y-129039750D01*
X94669954Y-129004126D01*
X94669955Y-129004126D01*
X94674097Y-129003039D01*
X94939704Y-128893021D01*
X95187922Y-128747974D01*
X95414159Y-128570582D01*
X95455285Y-128528144D01*
X95611244Y-128367206D01*
X95614227Y-128364128D01*
X95616760Y-128360680D01*
X95616764Y-128360675D01*
X95781887Y-128135886D01*
X95784425Y-128132431D01*
X95921604Y-127879779D01*
X96023225Y-127610848D01*
X96087407Y-127330613D01*
X96112963Y-127044260D01*
X96113427Y-127000000D01*
X96111918Y-126977869D01*
X107886689Y-126977869D01*
X107903238Y-127264883D01*
X107904063Y-127269088D01*
X107904064Y-127269096D01*
X107936010Y-127431921D01*
X107958586Y-127546995D01*
X107959973Y-127551045D01*
X107959974Y-127551050D01*
X108050321Y-127814930D01*
X108051710Y-127818986D01*
X108180885Y-128075822D01*
X108343721Y-128312750D01*
X108537206Y-128525388D01*
X108540501Y-128528143D01*
X108540502Y-128528144D01*
X108591258Y-128570582D01*
X108757759Y-128709798D01*
X109001298Y-128862571D01*
X109263318Y-128980877D01*
X109306709Y-128993730D01*
X109534857Y-129061311D01*
X109534862Y-129061312D01*
X109538970Y-129062529D01*
X109543204Y-129063177D01*
X109543209Y-129063178D01*
X109791811Y-129101219D01*
X109823153Y-129106015D01*
X109969485Y-129108314D01*
X110106317Y-129110464D01*
X110106323Y-129110464D01*
X110110608Y-129110531D01*
X110114860Y-129110016D01*
X110114868Y-129110016D01*
X110391756Y-129076508D01*
X110391761Y-129076507D01*
X110396017Y-129075992D01*
X110534163Y-129039750D01*
X110669954Y-129004126D01*
X110669955Y-129004126D01*
X110674097Y-129003039D01*
X110939704Y-128893021D01*
X111187922Y-128747974D01*
X111414159Y-128570582D01*
X111455285Y-128528144D01*
X111611244Y-128367206D01*
X111614227Y-128364128D01*
X111616760Y-128360680D01*
X111616764Y-128360675D01*
X111781887Y-128135886D01*
X111784425Y-128132431D01*
X111921604Y-127879779D01*
X112023225Y-127610848D01*
X112087407Y-127330613D01*
X112112963Y-127044260D01*
X112113427Y-127000000D01*
X112093873Y-126713175D01*
X112089336Y-126691264D01*
X112036443Y-126435855D01*
X112035574Y-126431658D01*
X111939607Y-126160657D01*
X111807750Y-125905188D01*
X111794488Y-125886317D01*
X111644904Y-125673482D01*
X111642441Y-125669977D01*
X111446740Y-125459378D01*
X111224268Y-125277287D01*
X110979142Y-125127073D01*
X110961048Y-125119130D01*
X110719830Y-125013243D01*
X110715898Y-125011517D01*
X110689963Y-125004129D01*
X110443534Y-124933932D01*
X110443535Y-124933932D01*
X110439406Y-124932756D01*
X110226704Y-124902485D01*
X110159036Y-124892854D01*
X110159034Y-124892854D01*
X110154784Y-124892249D01*
X110150495Y-124892227D01*
X110150488Y-124892226D01*
X109871583Y-124890765D01*
X109871576Y-124890765D01*
X109867297Y-124890743D01*
X109863053Y-124891302D01*
X109863049Y-124891302D01*
X109737660Y-124907810D01*
X109582266Y-124928268D01*
X109578126Y-124929401D01*
X109578124Y-124929401D01*
X109501311Y-124950415D01*
X109304964Y-125004129D01*
X109301016Y-125005813D01*
X109044476Y-125115237D01*
X109044472Y-125115239D01*
X109040524Y-125116923D01*
X108915960Y-125191473D01*
X108797521Y-125262357D01*
X108797517Y-125262360D01*
X108793839Y-125264561D01*
X108569472Y-125444313D01*
X108371577Y-125652851D01*
X108203814Y-125886317D01*
X108069288Y-126140392D01*
X107970489Y-126410373D01*
X107909245Y-126691264D01*
X107886689Y-126977869D01*
X96111918Y-126977869D01*
X96093873Y-126713175D01*
X96089336Y-126691264D01*
X96036443Y-126435855D01*
X96035574Y-126431658D01*
X95939607Y-126160657D01*
X95807750Y-125905188D01*
X95794488Y-125886317D01*
X95644904Y-125673482D01*
X95642441Y-125669977D01*
X95446740Y-125459378D01*
X95224268Y-125277287D01*
X94979142Y-125127073D01*
X94961048Y-125119130D01*
X94719830Y-125013243D01*
X94715898Y-125011517D01*
X94689963Y-125004129D01*
X94443534Y-124933932D01*
X94443535Y-124933932D01*
X94439406Y-124932756D01*
X94226704Y-124902485D01*
X94159036Y-124892854D01*
X94159034Y-124892854D01*
X94154784Y-124892249D01*
X94150495Y-124892227D01*
X94150488Y-124892226D01*
X93871583Y-124890765D01*
X93871576Y-124890765D01*
X93867297Y-124890743D01*
X93863053Y-124891302D01*
X93863049Y-124891302D01*
X93737660Y-124907810D01*
X93582266Y-124928268D01*
X93578126Y-124929401D01*
X93578124Y-124929401D01*
X93501311Y-124950415D01*
X93304964Y-125004129D01*
X93301016Y-125005813D01*
X93044476Y-125115237D01*
X93044472Y-125115239D01*
X93040524Y-125116923D01*
X92915960Y-125191473D01*
X92797521Y-125262357D01*
X92797517Y-125262360D01*
X92793839Y-125264561D01*
X92569472Y-125444313D01*
X92371577Y-125652851D01*
X92203814Y-125886317D01*
X92069288Y-126140392D01*
X91970489Y-126410373D01*
X91909245Y-126691264D01*
X91886689Y-126977869D01*
X91508000Y-126977869D01*
X91508000Y-119358757D01*
X97365890Y-119358757D01*
X97385265Y-119580220D01*
X97442803Y-119794953D01*
X97445125Y-119799934D01*
X97445126Y-119799935D01*
X97534429Y-119991446D01*
X97534432Y-119991451D01*
X97536755Y-119996433D01*
X97664266Y-120178538D01*
X97821462Y-120335734D01*
X97825970Y-120338891D01*
X97825973Y-120338893D01*
X97901738Y-120391944D01*
X98003566Y-120463245D01*
X98008548Y-120465568D01*
X98008553Y-120465571D01*
X98200065Y-120554874D01*
X98205047Y-120557197D01*
X98210355Y-120558619D01*
X98210357Y-120558620D01*
X98276192Y-120576260D01*
X98419780Y-120614735D01*
X98641243Y-120634110D01*
X98862706Y-120614735D01*
X99006294Y-120576260D01*
X99072129Y-120558620D01*
X99072131Y-120558619D01*
X99077439Y-120557197D01*
X99082421Y-120554874D01*
X99273933Y-120465571D01*
X99273938Y-120465568D01*
X99278920Y-120463245D01*
X99380748Y-120391944D01*
X99456513Y-120338893D01*
X99456516Y-120338891D01*
X99461024Y-120335734D01*
X99618220Y-120178538D01*
X99745731Y-119996433D01*
X99748054Y-119991451D01*
X99748057Y-119991446D01*
X99837360Y-119799935D01*
X99837361Y-119799934D01*
X99839683Y-119794953D01*
X99897221Y-119580220D01*
X99916596Y-119358757D01*
X104083404Y-119358757D01*
X104102779Y-119580220D01*
X104160317Y-119794953D01*
X104162639Y-119799934D01*
X104162640Y-119799935D01*
X104251943Y-119991446D01*
X104251946Y-119991451D01*
X104254269Y-119996433D01*
X104381780Y-120178538D01*
X104538976Y-120335734D01*
X104543484Y-120338891D01*
X104543487Y-120338893D01*
X104619252Y-120391944D01*
X104721080Y-120463245D01*
X104726062Y-120465568D01*
X104726067Y-120465571D01*
X104917579Y-120554874D01*
X104922561Y-120557197D01*
X104927869Y-120558619D01*
X104927871Y-120558620D01*
X104993706Y-120576260D01*
X105137294Y-120614735D01*
X105358757Y-120634110D01*
X105580220Y-120614735D01*
X105723808Y-120576260D01*
X105789643Y-120558620D01*
X105789645Y-120558619D01*
X105794953Y-120557197D01*
X105799935Y-120554874D01*
X105991447Y-120465571D01*
X105991452Y-120465568D01*
X105996434Y-120463245D01*
X106098262Y-120391944D01*
X106174027Y-120338893D01*
X106174030Y-120338891D01*
X106178538Y-120335734D01*
X106335734Y-120178538D01*
X106463245Y-119996433D01*
X106465568Y-119991451D01*
X106465571Y-119991446D01*
X106554874Y-119799935D01*
X106554875Y-119799934D01*
X106557197Y-119794953D01*
X106614735Y-119580220D01*
X106634110Y-119358757D01*
X106614735Y-119137294D01*
X106557197Y-118922561D01*
X106554874Y-118917579D01*
X106465571Y-118726068D01*
X106465568Y-118726063D01*
X106463245Y-118721081D01*
X106335734Y-118538976D01*
X106178538Y-118381780D01*
X106174030Y-118378623D01*
X106174027Y-118378621D01*
X106098262Y-118325570D01*
X105996434Y-118254269D01*
X105991452Y-118251946D01*
X105991447Y-118251943D01*
X105799935Y-118162640D01*
X105799934Y-118162639D01*
X105794953Y-118160317D01*
X105789645Y-118158895D01*
X105789643Y-118158894D01*
X105723808Y-118141254D01*
X105580220Y-118102779D01*
X105358757Y-118083404D01*
X105137294Y-118102779D01*
X104993706Y-118141254D01*
X104927871Y-118158894D01*
X104927869Y-118158895D01*
X104922561Y-118160317D01*
X104917580Y-118162639D01*
X104917579Y-118162640D01*
X104726068Y-118251943D01*
X104726063Y-118251946D01*
X104721081Y-118254269D01*
X104716574Y-118257425D01*
X104716572Y-118257426D01*
X104543487Y-118378621D01*
X104543484Y-118378623D01*
X104538976Y-118381780D01*
X104381780Y-118538976D01*
X104254269Y-118721081D01*
X104251946Y-118726063D01*
X104251943Y-118726068D01*
X104162640Y-118917579D01*
X104160317Y-118922561D01*
X104102779Y-119137294D01*
X104083404Y-119358757D01*
X99916596Y-119358757D01*
X99897221Y-119137294D01*
X99839683Y-118922561D01*
X99837360Y-118917579D01*
X99748057Y-118726068D01*
X99748054Y-118726063D01*
X99745731Y-118721081D01*
X99618220Y-118538976D01*
X99461024Y-118381780D01*
X99456516Y-118378623D01*
X99456513Y-118378621D01*
X99380748Y-118325570D01*
X99278920Y-118254269D01*
X99273938Y-118251946D01*
X99273933Y-118251943D01*
X99082421Y-118162640D01*
X99082420Y-118162639D01*
X99077439Y-118160317D01*
X99072131Y-118158895D01*
X99072129Y-118158894D01*
X99006294Y-118141254D01*
X98862706Y-118102779D01*
X98641243Y-118083404D01*
X98419780Y-118102779D01*
X98276192Y-118141254D01*
X98210357Y-118158894D01*
X98210355Y-118158895D01*
X98205047Y-118160317D01*
X98200066Y-118162639D01*
X98200065Y-118162640D01*
X98008554Y-118251943D01*
X98008549Y-118251946D01*
X98003567Y-118254269D01*
X97999060Y-118257425D01*
X97999058Y-118257426D01*
X97825973Y-118378621D01*
X97825970Y-118378623D01*
X97821462Y-118381780D01*
X97664266Y-118538976D01*
X97536755Y-118721081D01*
X97534432Y-118726063D01*
X97534429Y-118726068D01*
X97445126Y-118917579D01*
X97442803Y-118922561D01*
X97385265Y-119137294D01*
X97365890Y-119358757D01*
X91508000Y-119358757D01*
X91508000Y-116000000D01*
X95974647Y-116000000D01*
X95994022Y-116221463D01*
X96051560Y-116436196D01*
X96053882Y-116441177D01*
X96053883Y-116441178D01*
X96143186Y-116632689D01*
X96143189Y-116632694D01*
X96145512Y-116637676D01*
X96148668Y-116642183D01*
X96148669Y-116642185D01*
X96185107Y-116694223D01*
X96273023Y-116819781D01*
X96430219Y-116976977D01*
X96434727Y-116980134D01*
X96434730Y-116980136D01*
X96510495Y-117033187D01*
X96612323Y-117104488D01*
X96617305Y-117106811D01*
X96617310Y-117106814D01*
X96807810Y-117195645D01*
X96813804Y-117198440D01*
X96819112Y-117199862D01*
X96819114Y-117199863D01*
X96884949Y-117217503D01*
X97028537Y-117255978D01*
X97250000Y-117275353D01*
X97471463Y-117255978D01*
X97615051Y-117217503D01*
X97680886Y-117199863D01*
X97680888Y-117199862D01*
X97686196Y-117198440D01*
X97692190Y-117195645D01*
X97882690Y-117106814D01*
X97882695Y-117106811D01*
X97887677Y-117104488D01*
X97952959Y-117058777D01*
X106055777Y-117058777D01*
X106065074Y-117070793D01*
X106108069Y-117100898D01*
X106117555Y-117106376D01*
X106308993Y-117195645D01*
X106319285Y-117199391D01*
X106523309Y-117254059D01*
X106534104Y-117255962D01*
X106744525Y-117274372D01*
X106755475Y-117274372D01*
X106965896Y-117255962D01*
X106976691Y-117254059D01*
X107180715Y-117199391D01*
X107191007Y-117195645D01*
X107382445Y-117106376D01*
X107391931Y-117100898D01*
X107435764Y-117070207D01*
X107444139Y-117059729D01*
X107437071Y-117046281D01*
X106762812Y-116372022D01*
X106748868Y-116364408D01*
X106747035Y-116364539D01*
X106740420Y-116368790D01*
X106062207Y-117047003D01*
X106055777Y-117058777D01*
X97952959Y-117058777D01*
X97989505Y-117033187D01*
X98065270Y-116980136D01*
X98065273Y-116980134D01*
X98069781Y-116976977D01*
X98226977Y-116819781D01*
X98314894Y-116694223D01*
X98351331Y-116642185D01*
X98351332Y-116642183D01*
X98354488Y-116637676D01*
X98356811Y-116632694D01*
X98356814Y-116632689D01*
X98446117Y-116441178D01*
X98446118Y-116441177D01*
X98448440Y-116436196D01*
X98505978Y-116221463D01*
X98525353Y-116000000D01*
X98524874Y-115994525D01*
X105475628Y-115994525D01*
X105475628Y-116005475D01*
X105494038Y-116215896D01*
X105495941Y-116226691D01*
X105550609Y-116430715D01*
X105554355Y-116441007D01*
X105643623Y-116632441D01*
X105649103Y-116641932D01*
X105679794Y-116685765D01*
X105690271Y-116694140D01*
X105703718Y-116687072D01*
X106377978Y-116012812D01*
X106384356Y-116001132D01*
X107114408Y-116001132D01*
X107114539Y-116002965D01*
X107118790Y-116009580D01*
X107797003Y-116687793D01*
X107808777Y-116694223D01*
X107820793Y-116684926D01*
X107850897Y-116641932D01*
X107856377Y-116632441D01*
X107945645Y-116441007D01*
X107949391Y-116430715D01*
X108004059Y-116226691D01*
X108005962Y-116215896D01*
X108024372Y-116005475D01*
X108024372Y-115994525D01*
X108005962Y-115784104D01*
X108004059Y-115773309D01*
X107949391Y-115569285D01*
X107945645Y-115558993D01*
X107856377Y-115367559D01*
X107850897Y-115358068D01*
X107820206Y-115314235D01*
X107809729Y-115305860D01*
X107796282Y-115312928D01*
X107122022Y-115987188D01*
X107114408Y-116001132D01*
X106384356Y-116001132D01*
X106385592Y-115998868D01*
X106385461Y-115997035D01*
X106381210Y-115990420D01*
X105702997Y-115312207D01*
X105691223Y-115305777D01*
X105679207Y-115315074D01*
X105649103Y-115358068D01*
X105643623Y-115367559D01*
X105554355Y-115558993D01*
X105550609Y-115569285D01*
X105495941Y-115773309D01*
X105494038Y-115784104D01*
X105475628Y-115994525D01*
X98524874Y-115994525D01*
X98505978Y-115778537D01*
X98448440Y-115563804D01*
X98446117Y-115558822D01*
X98356814Y-115367311D01*
X98356811Y-115367306D01*
X98354488Y-115362324D01*
X98351331Y-115357815D01*
X98230136Y-115184730D01*
X98230134Y-115184727D01*
X98226977Y-115180219D01*
X98069781Y-115023023D01*
X98065273Y-115019866D01*
X98065270Y-115019864D01*
X97989505Y-114966813D01*
X97951599Y-114940271D01*
X106055860Y-114940271D01*
X106062928Y-114953718D01*
X106737188Y-115627978D01*
X106751132Y-115635592D01*
X106752965Y-115635461D01*
X106759580Y-115631210D01*
X107437793Y-114952997D01*
X107444223Y-114941223D01*
X107434926Y-114929207D01*
X107391931Y-114899102D01*
X107382445Y-114893624D01*
X107191007Y-114804355D01*
X107180715Y-114800609D01*
X106976691Y-114745941D01*
X106965896Y-114744038D01*
X106755475Y-114725628D01*
X106744525Y-114725628D01*
X106534104Y-114744038D01*
X106523309Y-114745941D01*
X106319285Y-114800609D01*
X106308993Y-114804355D01*
X106117559Y-114893623D01*
X106108068Y-114899103D01*
X106064235Y-114929794D01*
X106055860Y-114940271D01*
X97951599Y-114940271D01*
X97887677Y-114895512D01*
X97882695Y-114893189D01*
X97882690Y-114893186D01*
X97691178Y-114803883D01*
X97691177Y-114803882D01*
X97686196Y-114801560D01*
X97680888Y-114800138D01*
X97680886Y-114800137D01*
X97615051Y-114782497D01*
X97471463Y-114744022D01*
X97250000Y-114724647D01*
X97028537Y-114744022D01*
X96884949Y-114782497D01*
X96819114Y-114800137D01*
X96819112Y-114800138D01*
X96813804Y-114801560D01*
X96808823Y-114803882D01*
X96808822Y-114803883D01*
X96617311Y-114893186D01*
X96617306Y-114893189D01*
X96612324Y-114895512D01*
X96607817Y-114898668D01*
X96607815Y-114898669D01*
X96434730Y-115019864D01*
X96434727Y-115019866D01*
X96430219Y-115023023D01*
X96273023Y-115180219D01*
X96269866Y-115184727D01*
X96269864Y-115184730D01*
X96148669Y-115357815D01*
X96145512Y-115362324D01*
X96143189Y-115367306D01*
X96143186Y-115367311D01*
X96053883Y-115558822D01*
X96051560Y-115563804D01*
X95994022Y-115778537D01*
X95974647Y-116000000D01*
X91508000Y-116000000D01*
X91508000Y-112641243D01*
X97365890Y-112641243D01*
X97385265Y-112862706D01*
X97442803Y-113077439D01*
X97445125Y-113082420D01*
X97445126Y-113082421D01*
X97534429Y-113273932D01*
X97534432Y-113273937D01*
X97536755Y-113278919D01*
X97664266Y-113461024D01*
X97821462Y-113618220D01*
X97825970Y-113621377D01*
X97825973Y-113621379D01*
X97901738Y-113674430D01*
X98003566Y-113745731D01*
X98008548Y-113748054D01*
X98008553Y-113748057D01*
X98200065Y-113837360D01*
X98205047Y-113839683D01*
X98210355Y-113841105D01*
X98210357Y-113841106D01*
X98276192Y-113858746D01*
X98419780Y-113897221D01*
X98641243Y-113916596D01*
X98862706Y-113897221D01*
X99006294Y-113858746D01*
X99072129Y-113841106D01*
X99072131Y-113841105D01*
X99077439Y-113839683D01*
X99082421Y-113837360D01*
X99273933Y-113748057D01*
X99273938Y-113748054D01*
X99278920Y-113745731D01*
X99380748Y-113674430D01*
X99456513Y-113621379D01*
X99456516Y-113621377D01*
X99461024Y-113618220D01*
X99618220Y-113461024D01*
X99745731Y-113278919D01*
X99748054Y-113273937D01*
X99748057Y-113273932D01*
X99837360Y-113082421D01*
X99837361Y-113082420D01*
X99839683Y-113077439D01*
X99897221Y-112862706D01*
X99916596Y-112641243D01*
X104083404Y-112641243D01*
X104102779Y-112862706D01*
X104160317Y-113077439D01*
X104162639Y-113082420D01*
X104162640Y-113082421D01*
X104251943Y-113273932D01*
X104251946Y-113273937D01*
X104254269Y-113278919D01*
X104381780Y-113461024D01*
X104538976Y-113618220D01*
X104543484Y-113621377D01*
X104543487Y-113621379D01*
X104619252Y-113674430D01*
X104721080Y-113745731D01*
X104726062Y-113748054D01*
X104726067Y-113748057D01*
X104917579Y-113837360D01*
X104922561Y-113839683D01*
X104927869Y-113841105D01*
X104927871Y-113841106D01*
X104993706Y-113858746D01*
X105137294Y-113897221D01*
X105358757Y-113916596D01*
X105580220Y-113897221D01*
X105723808Y-113858746D01*
X105789643Y-113841106D01*
X105789645Y-113841105D01*
X105794953Y-113839683D01*
X105799935Y-113837360D01*
X105991447Y-113748057D01*
X105991452Y-113748054D01*
X105996434Y-113745731D01*
X106098262Y-113674430D01*
X106174027Y-113621379D01*
X106174030Y-113621377D01*
X106178538Y-113618220D01*
X106335734Y-113461024D01*
X106463245Y-113278919D01*
X106465568Y-113273937D01*
X106465571Y-113273932D01*
X106554874Y-113082421D01*
X106554875Y-113082420D01*
X106557197Y-113077439D01*
X106614735Y-112862706D01*
X106634110Y-112641243D01*
X106614735Y-112419780D01*
X106557197Y-112205047D01*
X106554874Y-112200065D01*
X106465571Y-112008554D01*
X106465568Y-112008549D01*
X106463245Y-112003567D01*
X106335734Y-111821462D01*
X106178538Y-111664266D01*
X106174030Y-111661109D01*
X106174027Y-111661107D01*
X106098262Y-111608056D01*
X105996434Y-111536755D01*
X105991452Y-111534432D01*
X105991447Y-111534429D01*
X105799935Y-111445126D01*
X105799934Y-111445125D01*
X105794953Y-111442803D01*
X105789645Y-111441381D01*
X105789643Y-111441380D01*
X105723808Y-111423740D01*
X105580220Y-111385265D01*
X105358757Y-111365890D01*
X105137294Y-111385265D01*
X104993706Y-111423740D01*
X104927871Y-111441380D01*
X104927869Y-111441381D01*
X104922561Y-111442803D01*
X104917580Y-111445125D01*
X104917579Y-111445126D01*
X104726068Y-111534429D01*
X104726063Y-111534432D01*
X104721081Y-111536755D01*
X104716574Y-111539911D01*
X104716572Y-111539912D01*
X104543487Y-111661107D01*
X104543484Y-111661109D01*
X104538976Y-111664266D01*
X104381780Y-111821462D01*
X104254269Y-112003567D01*
X104251946Y-112008549D01*
X104251943Y-112008554D01*
X104162640Y-112200065D01*
X104160317Y-112205047D01*
X104102779Y-112419780D01*
X104083404Y-112641243D01*
X99916596Y-112641243D01*
X99897221Y-112419780D01*
X99839683Y-112205047D01*
X99837360Y-112200065D01*
X99748057Y-112008554D01*
X99748054Y-112008549D01*
X99745731Y-112003567D01*
X99618220Y-111821462D01*
X99461024Y-111664266D01*
X99456516Y-111661109D01*
X99456513Y-111661107D01*
X99380748Y-111608056D01*
X99278920Y-111536755D01*
X99273938Y-111534432D01*
X99273933Y-111534429D01*
X99082421Y-111445126D01*
X99082420Y-111445125D01*
X99077439Y-111442803D01*
X99072131Y-111441381D01*
X99072129Y-111441380D01*
X99006294Y-111423740D01*
X98862706Y-111385265D01*
X98641243Y-111365890D01*
X98419780Y-111385265D01*
X98276192Y-111423740D01*
X98210357Y-111441380D01*
X98210355Y-111441381D01*
X98205047Y-111442803D01*
X98200066Y-111445125D01*
X98200065Y-111445126D01*
X98008554Y-111534429D01*
X98008549Y-111534432D01*
X98003567Y-111536755D01*
X97999060Y-111539911D01*
X97999058Y-111539912D01*
X97825973Y-111661107D01*
X97825970Y-111661109D01*
X97821462Y-111664266D01*
X97664266Y-111821462D01*
X97536755Y-112003567D01*
X97534432Y-112008549D01*
X97534429Y-112008554D01*
X97445126Y-112200065D01*
X97442803Y-112205047D01*
X97385265Y-112419780D01*
X97365890Y-112641243D01*
X91508000Y-112641243D01*
X91508000Y-104335000D01*
X100171496Y-104335000D01*
X100191458Y-104524928D01*
X100250473Y-104706556D01*
X100345960Y-104871944D01*
X100473747Y-105013866D01*
X100628248Y-105126118D01*
X100634276Y-105128802D01*
X100634278Y-105128803D01*
X100796681Y-105201109D01*
X100802712Y-105203794D01*
X100896113Y-105223647D01*
X100983056Y-105242128D01*
X100983061Y-105242128D01*
X100989513Y-105243500D01*
X101180487Y-105243500D01*
X101186939Y-105242128D01*
X101186944Y-105242128D01*
X101273887Y-105223647D01*
X101367288Y-105203794D01*
X101373319Y-105201109D01*
X101535722Y-105128803D01*
X101535724Y-105128802D01*
X101541752Y-105126118D01*
X101696253Y-105013866D01*
X101824040Y-104871944D01*
X101919527Y-104706556D01*
X101978542Y-104524928D01*
X101998504Y-104335000D01*
X101978542Y-104145072D01*
X101919527Y-103963444D01*
X101918845Y-103962263D01*
X101908500Y-103913592D01*
X101908500Y-100538950D01*
X101928502Y-100470829D01*
X101983251Y-100423843D01*
X102050722Y-100393803D01*
X102050724Y-100393802D01*
X102056752Y-100391118D01*
X102211253Y-100278866D01*
X102339040Y-100136944D01*
X102434527Y-99971556D01*
X102493542Y-99789928D01*
X102494623Y-99779648D01*
X102512814Y-99606565D01*
X102513504Y-99600000D01*
X102493542Y-99410072D01*
X102434527Y-99228444D01*
X102339040Y-99063056D01*
X102211253Y-98921134D01*
X102056752Y-98808882D01*
X102050724Y-98806198D01*
X102050722Y-98806197D01*
X101888319Y-98733891D01*
X101888318Y-98733891D01*
X101882288Y-98731206D01*
X101788888Y-98711353D01*
X101701944Y-98692872D01*
X101701939Y-98692872D01*
X101695487Y-98691500D01*
X101504513Y-98691500D01*
X101498061Y-98692872D01*
X101498056Y-98692872D01*
X101411113Y-98711353D01*
X101317712Y-98731206D01*
X101311682Y-98733891D01*
X101311681Y-98733891D01*
X101149278Y-98806197D01*
X101149276Y-98806198D01*
X101143248Y-98808882D01*
X100988747Y-98921134D01*
X100860960Y-99063056D01*
X100765473Y-99228444D01*
X100706458Y-99410072D01*
X100705768Y-99416633D01*
X100705768Y-99416635D01*
X100702073Y-99451792D01*
X100675059Y-99517449D01*
X100674267Y-99518381D01*
X100669615Y-99522439D01*
X100665248Y-99528653D01*
X100632872Y-99574719D01*
X100628939Y-99580014D01*
X100589524Y-99630282D01*
X100586401Y-99637198D01*
X100585017Y-99639484D01*
X100576643Y-99654165D01*
X100575378Y-99656525D01*
X100571010Y-99662739D01*
X100568250Y-99669818D01*
X100568249Y-99669820D01*
X100547798Y-99722275D01*
X100545247Y-99728344D01*
X100518955Y-99786573D01*
X100517571Y-99794040D01*
X100516770Y-99796595D01*
X100512141Y-99812848D01*
X100511478Y-99815428D01*
X100508718Y-99822509D01*
X100507727Y-99830040D01*
X100507726Y-99830042D01*
X100500379Y-99885852D01*
X100499348Y-99892359D01*
X100487704Y-99955186D01*
X100488141Y-99962766D01*
X100488141Y-99962767D01*
X100491291Y-100017392D01*
X100491500Y-100024646D01*
X100491500Y-103588051D01*
X100471498Y-103656172D01*
X100459136Y-103672361D01*
X100345960Y-103798056D01*
X100250473Y-103963444D01*
X100191458Y-104145072D01*
X100171496Y-104335000D01*
X91508000Y-104335000D01*
X91508000Y-94624853D01*
X97429977Y-94624853D01*
X97435258Y-94631907D01*
X97596756Y-94726279D01*
X97606042Y-94730729D01*
X97805001Y-94806703D01*
X97814899Y-94809579D01*
X98023595Y-94852038D01*
X98033823Y-94853257D01*
X98246650Y-94861062D01*
X98256936Y-94860595D01*
X98468185Y-94833534D01*
X98478262Y-94831392D01*
X98682255Y-94770191D01*
X98691842Y-94766433D01*
X98883098Y-94672738D01*
X98891944Y-94667465D01*
X98939247Y-94633723D01*
X98947648Y-94623023D01*
X98940660Y-94609870D01*
X98202812Y-93872022D01*
X98188868Y-93864408D01*
X98187035Y-93864539D01*
X98180420Y-93868790D01*
X97436737Y-94612473D01*
X97429977Y-94624853D01*
X91508000Y-94624853D01*
X91508000Y-93049307D01*
X91509500Y-93029922D01*
X91511802Y-93015140D01*
X91511802Y-93015137D01*
X91513183Y-93006268D01*
X91512006Y-92997267D01*
X91511735Y-92966828D01*
X91518744Y-92904622D01*
X91525023Y-92877115D01*
X91544470Y-92821538D01*
X91552031Y-92799929D01*
X91564273Y-92774508D01*
X91607786Y-92705259D01*
X91625378Y-92683201D01*
X91683201Y-92625378D01*
X91705260Y-92607786D01*
X91774504Y-92564277D01*
X91799926Y-92552034D01*
X91877119Y-92525024D01*
X91904624Y-92518746D01*
X91929766Y-92515913D01*
X91960256Y-92512478D01*
X91975897Y-92511695D01*
X91984854Y-92511804D01*
X91993728Y-92513186D01*
X92025251Y-92509064D01*
X92041588Y-92508000D01*
X96984262Y-92508000D01*
X97052383Y-92528002D01*
G37*
%TD.AperFunction*%
%TD*%
M02*
