%TF.GenerationSoftware,KiCad,Pcbnew,(5.99.0-11441-g1a5e63bcab)*%
%TF.CreationDate,2021-07-19T16:29:47+02:00*%
%TF.ProjectId,MQ Breakout,4d512042-7265-4616-9b6f-75742e6b6963,rev?*%
%TF.SameCoordinates,Original*%
%TF.FileFunction,Legend,Top*%
%TF.FilePolarity,Positive*%
%FSLAX46Y46*%
G04 Gerber Fmt 4.6, Leading zero omitted, Abs format (unit mm)*
G04 Created by KiCad (PCBNEW (5.99.0-11441-g1a5e63bcab)) date 2021-07-19 16:29:47*
%MOMM*%
%LPD*%
G01*
G04 APERTURE LIST*
%ADD10C,0.150000*%
%ADD11C,0.010000*%
%ADD12C,0.200000*%
%ADD13C,0.120000*%
%ADD14C,0.060000*%
G04 APERTURE END LIST*
D10*
%TO.C,*%
D11*
X95760000Y-126360000D02*
X95860000Y-126360000D01*
X95860000Y-126360000D02*
X95890000Y-126270000D01*
X95890000Y-126270000D02*
X95890000Y-125760000D01*
X95890000Y-125760000D02*
X95910000Y-125700000D01*
X95910000Y-125700000D02*
X96140000Y-126270000D01*
X96140000Y-126270000D02*
X96170000Y-126360000D01*
X96170000Y-126360000D02*
X96270000Y-126360000D01*
X96270000Y-126360000D02*
X96330000Y-126300000D01*
X96330000Y-126300000D02*
X96560000Y-125410000D01*
X96560000Y-125410000D02*
X96590000Y-125360000D01*
X96590000Y-125360000D02*
X96590000Y-126280000D01*
X96590000Y-126280000D02*
X96630000Y-126360000D01*
X96630000Y-126360000D02*
X96730000Y-126360000D01*
X96730000Y-126360000D02*
X96760000Y-126270000D01*
X96760000Y-126270000D02*
X96760000Y-125050000D01*
X96760000Y-125050000D02*
X96690000Y-124990000D01*
X96690000Y-124990000D02*
X96590000Y-124990000D01*
X96590000Y-124990000D02*
X96500000Y-125010000D01*
X96500000Y-125010000D02*
X96470000Y-125110000D01*
X96470000Y-125110000D02*
X96280000Y-125580000D01*
X96280000Y-125580000D02*
X96240000Y-125660000D01*
X96240000Y-125660000D02*
X96200000Y-125570000D01*
X96200000Y-125570000D02*
X96010000Y-125090000D01*
X96010000Y-125090000D02*
X95980000Y-125000000D01*
X95980000Y-125000000D02*
X95770000Y-124990000D01*
X95770000Y-124990000D02*
X95720000Y-125060000D01*
X95720000Y-125060000D02*
X95720000Y-126280000D01*
X95720000Y-126280000D02*
X95760000Y-126360000D01*
X95760000Y-126360000D02*
X95760000Y-126360000D01*
G36*
X96760000Y-125050000D02*
G01*
X96760000Y-126270000D01*
X96730000Y-126360000D01*
X96630000Y-126360000D01*
X96590000Y-126280000D01*
X96590000Y-125360000D01*
X96560000Y-125410000D01*
X96330000Y-126300000D01*
X96270000Y-126360000D01*
X96170000Y-126360000D01*
X96140000Y-126270000D01*
X95910000Y-125700000D01*
X95890000Y-125760000D01*
X95890000Y-126270000D01*
X95860000Y-126360000D01*
X95760000Y-126360000D01*
X95720000Y-126280000D01*
X95720000Y-125060000D01*
X95770000Y-124990000D01*
X95980000Y-125000000D01*
X96010000Y-125090000D01*
X96200000Y-125570000D01*
X96240000Y-125660000D01*
X96280000Y-125580000D01*
X96470000Y-125110000D01*
X96500000Y-125010000D01*
X96590000Y-124990000D01*
X96690000Y-124990000D01*
X96760000Y-125050000D01*
G37*
X96760000Y-125050000D02*
X96760000Y-126270000D01*
X96730000Y-126360000D01*
X96630000Y-126360000D01*
X96590000Y-126280000D01*
X96590000Y-125360000D01*
X96560000Y-125410000D01*
X96330000Y-126300000D01*
X96270000Y-126360000D01*
X96170000Y-126360000D01*
X96140000Y-126270000D01*
X95910000Y-125700000D01*
X95890000Y-125760000D01*
X95890000Y-126270000D01*
X95860000Y-126360000D01*
X95760000Y-126360000D01*
X95720000Y-126280000D01*
X95720000Y-125060000D01*
X95770000Y-124990000D01*
X95980000Y-125000000D01*
X96010000Y-125090000D01*
X96200000Y-125570000D01*
X96240000Y-125660000D01*
X96280000Y-125580000D01*
X96470000Y-125110000D01*
X96500000Y-125010000D01*
X96590000Y-124990000D01*
X96690000Y-124990000D01*
X96760000Y-125050000D01*
X97810000Y-126420000D02*
X97760000Y-126320000D01*
X97760000Y-126320000D02*
X97790000Y-126230000D01*
X97790000Y-126230000D02*
X97840000Y-126150000D01*
X97840000Y-126150000D02*
X97860000Y-126060000D01*
X97860000Y-126060000D02*
X97880000Y-125950000D01*
X97880000Y-125950000D02*
X97880000Y-125860000D01*
X97880000Y-125860000D02*
X97880000Y-125760000D01*
X97880000Y-125760000D02*
X97880000Y-125640000D01*
X97880000Y-125640000D02*
X97880000Y-125530000D01*
X97880000Y-125530000D02*
X97880000Y-125440000D01*
X97880000Y-125440000D02*
X97870000Y-125340000D01*
X97870000Y-125340000D02*
X97840000Y-125240000D01*
X97840000Y-125240000D02*
X97810000Y-125170000D01*
X97810000Y-125170000D02*
X97750000Y-125100000D01*
X97750000Y-125100000D02*
X97660000Y-125020000D01*
X97660000Y-125020000D02*
X97560000Y-124980000D01*
X97560000Y-124980000D02*
X97360000Y-124980000D01*
X97360000Y-124980000D02*
X97250000Y-125040000D01*
X97250000Y-125040000D02*
X97180000Y-125110000D01*
X97180000Y-125110000D02*
X97130000Y-125180000D01*
X97130000Y-125180000D02*
X97090000Y-125260000D01*
X97090000Y-125260000D02*
X97070000Y-125360000D01*
X97070000Y-125360000D02*
X97060000Y-125450000D01*
X97060000Y-125450000D02*
X97050000Y-125550000D01*
X97050000Y-125550000D02*
X97050000Y-125670000D01*
X97050000Y-125670000D02*
X97050000Y-125780000D01*
X97050000Y-125780000D02*
X97060000Y-125880000D01*
X97060000Y-125880000D02*
X97070000Y-125970000D01*
X97070000Y-125970000D02*
X97090000Y-126070000D01*
X97090000Y-126070000D02*
X97130000Y-126150000D01*
X97130000Y-126150000D02*
X97180000Y-126210000D01*
X97180000Y-126210000D02*
X97300000Y-126120000D01*
X97300000Y-126120000D02*
X97260000Y-126030000D01*
X97260000Y-126030000D02*
X97240000Y-125930000D01*
X97240000Y-125930000D02*
X97230000Y-125840000D01*
X97230000Y-125840000D02*
X97230000Y-125740000D01*
X97230000Y-125740000D02*
X97230000Y-125620000D01*
X97230000Y-125620000D02*
X97230000Y-125510000D01*
X97230000Y-125510000D02*
X97230000Y-125420000D01*
X97230000Y-125420000D02*
X97250000Y-125310000D01*
X97250000Y-125310000D02*
X97280000Y-125240000D01*
X97280000Y-125240000D02*
X97350000Y-125160000D01*
X97350000Y-125160000D02*
X97450000Y-125130000D01*
X97450000Y-125130000D02*
X97550000Y-125130000D01*
X97550000Y-125130000D02*
X97630000Y-125210000D01*
X97630000Y-125210000D02*
X97680000Y-125280000D01*
X97680000Y-125280000D02*
X97700000Y-125380000D01*
X97700000Y-125380000D02*
X97710000Y-125470000D01*
X97710000Y-125470000D02*
X97710000Y-125570000D01*
X97710000Y-125570000D02*
X97710000Y-125800000D01*
X97710000Y-125800000D02*
X97710000Y-125890000D01*
X97710000Y-125890000D02*
X97690000Y-126000000D01*
X97690000Y-126000000D02*
X97660000Y-126080000D01*
X97660000Y-126080000D02*
X97600000Y-126150000D01*
X97600000Y-126150000D02*
X97500000Y-126190000D01*
X97500000Y-126190000D02*
X97400000Y-126190000D01*
X97400000Y-126190000D02*
X97320000Y-126140000D01*
X97320000Y-126140000D02*
X97300000Y-126120000D01*
X97300000Y-126120000D02*
X97180000Y-126220000D01*
X97180000Y-126220000D02*
X97260000Y-126290000D01*
X97260000Y-126290000D02*
X97370000Y-126340000D01*
X97370000Y-126340000D02*
X97570000Y-126340000D01*
X97570000Y-126340000D02*
X97630000Y-126410000D01*
X97630000Y-126410000D02*
X97660000Y-126500000D01*
X97660000Y-126500000D02*
X97730000Y-126560000D01*
X97730000Y-126560000D02*
X97830000Y-126560000D01*
X97830000Y-126560000D02*
X97840000Y-126490000D01*
X97840000Y-126490000D02*
X97810000Y-126420000D01*
X97810000Y-126420000D02*
X97810000Y-126420000D01*
G36*
X97660000Y-125020000D02*
G01*
X97750000Y-125100000D01*
X97810000Y-125170000D01*
X97840000Y-125240000D01*
X97870000Y-125340000D01*
X97880000Y-125440000D01*
X97880000Y-125950000D01*
X97860000Y-126060000D01*
X97840000Y-126150000D01*
X97790000Y-126230000D01*
X97760000Y-126320000D01*
X97810000Y-126420000D01*
X97840000Y-126490000D01*
X97830000Y-126560000D01*
X97730000Y-126560000D01*
X97660000Y-126500000D01*
X97630000Y-126410000D01*
X97570000Y-126340000D01*
X97370000Y-126340000D01*
X97260000Y-126290000D01*
X97180000Y-126220000D01*
X97300000Y-126120000D01*
X97320000Y-126140000D01*
X97400000Y-126190000D01*
X97500000Y-126190000D01*
X97600000Y-126150000D01*
X97660000Y-126080000D01*
X97690000Y-126000000D01*
X97710000Y-125890000D01*
X97710000Y-125470000D01*
X97700000Y-125380000D01*
X97680000Y-125280000D01*
X97630000Y-125210000D01*
X97550000Y-125130000D01*
X97450000Y-125130000D01*
X97350000Y-125160000D01*
X97280000Y-125240000D01*
X97250000Y-125310000D01*
X97230000Y-125420000D01*
X97230000Y-125840000D01*
X97240000Y-125930000D01*
X97260000Y-126030000D01*
X97300000Y-126120000D01*
X97180000Y-126210000D01*
X97130000Y-126150000D01*
X97090000Y-126070000D01*
X97070000Y-125970000D01*
X97060000Y-125880000D01*
X97050000Y-125780000D01*
X97050000Y-125550000D01*
X97060000Y-125450000D01*
X97070000Y-125360000D01*
X97090000Y-125260000D01*
X97130000Y-125180000D01*
X97180000Y-125110000D01*
X97250000Y-125040000D01*
X97360000Y-124980000D01*
X97560000Y-124980000D01*
X97660000Y-125020000D01*
G37*
X97660000Y-125020000D02*
X97750000Y-125100000D01*
X97810000Y-125170000D01*
X97840000Y-125240000D01*
X97870000Y-125340000D01*
X97880000Y-125440000D01*
X97880000Y-125950000D01*
X97860000Y-126060000D01*
X97840000Y-126150000D01*
X97790000Y-126230000D01*
X97760000Y-126320000D01*
X97810000Y-126420000D01*
X97840000Y-126490000D01*
X97830000Y-126560000D01*
X97730000Y-126560000D01*
X97660000Y-126500000D01*
X97630000Y-126410000D01*
X97570000Y-126340000D01*
X97370000Y-126340000D01*
X97260000Y-126290000D01*
X97180000Y-126220000D01*
X97300000Y-126120000D01*
X97320000Y-126140000D01*
X97400000Y-126190000D01*
X97500000Y-126190000D01*
X97600000Y-126150000D01*
X97660000Y-126080000D01*
X97690000Y-126000000D01*
X97710000Y-125890000D01*
X97710000Y-125470000D01*
X97700000Y-125380000D01*
X97680000Y-125280000D01*
X97630000Y-125210000D01*
X97550000Y-125130000D01*
X97450000Y-125130000D01*
X97350000Y-125160000D01*
X97280000Y-125240000D01*
X97250000Y-125310000D01*
X97230000Y-125420000D01*
X97230000Y-125840000D01*
X97240000Y-125930000D01*
X97260000Y-126030000D01*
X97300000Y-126120000D01*
X97180000Y-126210000D01*
X97130000Y-126150000D01*
X97090000Y-126070000D01*
X97070000Y-125970000D01*
X97060000Y-125880000D01*
X97050000Y-125780000D01*
X97050000Y-125550000D01*
X97060000Y-125450000D01*
X97070000Y-125360000D01*
X97090000Y-125260000D01*
X97130000Y-125180000D01*
X97180000Y-125110000D01*
X97250000Y-125040000D01*
X97360000Y-124980000D01*
X97560000Y-124980000D01*
X97660000Y-125020000D01*
X98230000Y-126360000D02*
X98330000Y-126360000D01*
X98330000Y-126360000D02*
X98410000Y-126310000D01*
X98410000Y-126310000D02*
X98580000Y-126060000D01*
X98580000Y-126060000D02*
X98650000Y-126050000D01*
X98650000Y-126050000D02*
X98820000Y-126300000D01*
X98820000Y-126300000D02*
X98890000Y-126360000D01*
X98890000Y-126360000D02*
X98990000Y-126360000D01*
X98990000Y-126360000D02*
X99040000Y-126300000D01*
X99040000Y-126300000D02*
X98730000Y-125670000D01*
X98730000Y-125670000D02*
X98750000Y-125580000D01*
X98750000Y-125580000D02*
X98970000Y-125120000D01*
X98970000Y-125120000D02*
X99010000Y-125030000D01*
X99010000Y-125030000D02*
X98930000Y-124990000D01*
X98930000Y-124990000D02*
X98840000Y-125010000D01*
X98840000Y-125010000D02*
X98660000Y-125250000D01*
X98660000Y-125250000D02*
X98590000Y-125270000D01*
X98590000Y-125270000D02*
X98410000Y-125030000D01*
X98410000Y-125030000D02*
X98330000Y-124990000D01*
X98330000Y-124990000D02*
X98230000Y-125010000D01*
X98230000Y-125010000D02*
X98250000Y-125100000D01*
X98250000Y-125100000D02*
X98520000Y-125640000D01*
X98520000Y-125640000D02*
X98220000Y-126280000D01*
X98220000Y-126280000D02*
X98230000Y-126360000D01*
X98230000Y-126360000D02*
X98230000Y-126360000D01*
G36*
X99010000Y-125030000D02*
G01*
X98970000Y-125120000D01*
X98750000Y-125580000D01*
X98730000Y-125670000D01*
X99040000Y-126300000D01*
X98990000Y-126360000D01*
X98890000Y-126360000D01*
X98820000Y-126300000D01*
X98650000Y-126050000D01*
X98580000Y-126060000D01*
X98410000Y-126310000D01*
X98330000Y-126360000D01*
X98230000Y-126360000D01*
X98220000Y-126280000D01*
X98520000Y-125640000D01*
X98250000Y-125100000D01*
X98230000Y-125010000D01*
X98330000Y-124990000D01*
X98410000Y-125030000D01*
X98590000Y-125270000D01*
X98660000Y-125250000D01*
X98840000Y-125010000D01*
X98930000Y-124990000D01*
X99010000Y-125030000D01*
G37*
X99010000Y-125030000D02*
X98970000Y-125120000D01*
X98750000Y-125580000D01*
X98730000Y-125670000D01*
X99040000Y-126300000D01*
X98990000Y-126360000D01*
X98890000Y-126360000D01*
X98820000Y-126300000D01*
X98650000Y-126050000D01*
X98580000Y-126060000D01*
X98410000Y-126310000D01*
X98330000Y-126360000D01*
X98230000Y-126360000D01*
X98220000Y-126280000D01*
X98520000Y-125640000D01*
X98250000Y-125100000D01*
X98230000Y-125010000D01*
X98330000Y-124990000D01*
X98410000Y-125030000D01*
X98590000Y-125270000D01*
X98660000Y-125250000D01*
X98840000Y-125010000D01*
X98930000Y-124990000D01*
X99010000Y-125030000D01*
X100060000Y-126360000D02*
X100360000Y-126360000D01*
X100360000Y-126360000D02*
X100470000Y-126340000D01*
X100470000Y-126340000D02*
X100430000Y-126190000D01*
X100430000Y-126190000D02*
X100330000Y-126200000D01*
X100330000Y-126200000D02*
X100130000Y-126200000D01*
X100130000Y-126200000D02*
X100130000Y-125790000D01*
X100130000Y-125790000D02*
X100200000Y-125760000D01*
X100200000Y-125760000D02*
X100410000Y-125760000D01*
X100410000Y-125760000D02*
X100490000Y-125850000D01*
X100490000Y-125850000D02*
X100530000Y-125930000D01*
X100530000Y-125930000D02*
X100530000Y-126010000D01*
X100530000Y-126010000D02*
X100500000Y-126100000D01*
X100500000Y-126100000D02*
X100430000Y-126180000D01*
X100430000Y-126180000D02*
X100470000Y-126340000D01*
X100470000Y-126340000D02*
X100570000Y-126270000D01*
X100570000Y-126270000D02*
X100630000Y-126210000D01*
X100630000Y-126210000D02*
X100680000Y-126140000D01*
X100680000Y-126140000D02*
X100700000Y-126040000D01*
X100700000Y-126040000D02*
X100710000Y-125940000D01*
X100710000Y-125940000D02*
X100690000Y-125840000D01*
X100690000Y-125840000D02*
X100640000Y-125740000D01*
X100640000Y-125740000D02*
X100580000Y-125660000D01*
X100580000Y-125660000D02*
X100620000Y-125580000D01*
X100620000Y-125580000D02*
X100670000Y-125480000D01*
X100670000Y-125480000D02*
X100690000Y-125380000D01*
X100690000Y-125380000D02*
X100680000Y-125280000D01*
X100680000Y-125280000D02*
X100650000Y-125180000D01*
X100650000Y-125180000D02*
X100610000Y-125110000D01*
X100610000Y-125110000D02*
X100530000Y-125050000D01*
X100530000Y-125050000D02*
X100420000Y-125170000D01*
X100420000Y-125170000D02*
X100480000Y-125260000D01*
X100480000Y-125260000D02*
X100510000Y-125350000D01*
X100510000Y-125350000D02*
X100500000Y-125430000D01*
X100500000Y-125430000D02*
X100460000Y-125530000D01*
X100460000Y-125530000D02*
X100380000Y-125590000D01*
X100380000Y-125590000D02*
X100330000Y-125590000D01*
X100330000Y-125590000D02*
X100220000Y-125590000D01*
X100220000Y-125590000D02*
X100130000Y-125580000D01*
X100130000Y-125580000D02*
X100130000Y-125170000D01*
X100130000Y-125170000D02*
X100220000Y-125160000D01*
X100220000Y-125160000D02*
X100320000Y-125160000D01*
X100320000Y-125160000D02*
X100420000Y-125160000D01*
X100420000Y-125160000D02*
X100530000Y-125050000D01*
X100530000Y-125050000D02*
X100420000Y-124990000D01*
X100420000Y-124990000D02*
X100010000Y-124990000D01*
X100010000Y-124990000D02*
X99960000Y-125060000D01*
X99960000Y-125060000D02*
X99960000Y-126280000D01*
X99960000Y-126280000D02*
X100000000Y-126360000D01*
X100000000Y-126360000D02*
X100060000Y-126360000D01*
X100060000Y-126360000D02*
X100060000Y-126360000D01*
G36*
X100530000Y-125050000D02*
G01*
X100420000Y-125160000D01*
X100220000Y-125160000D01*
X100130000Y-125170000D01*
X100130000Y-125580000D01*
X100220000Y-125590000D01*
X100380000Y-125590000D01*
X100460000Y-125530000D01*
X100500000Y-125430000D01*
X100510000Y-125350000D01*
X100480000Y-125260000D01*
X100420000Y-125170000D01*
X100530000Y-125050000D01*
X100610000Y-125110000D01*
X100650000Y-125180000D01*
X100680000Y-125280000D01*
X100690000Y-125380000D01*
X100670000Y-125480000D01*
X100580000Y-125660000D01*
X100640000Y-125740000D01*
X100690000Y-125840000D01*
X100710000Y-125940000D01*
X100700000Y-126040000D01*
X100680000Y-126140000D01*
X100630000Y-126210000D01*
X100570000Y-126270000D01*
X100470000Y-126340000D01*
X100430000Y-126180000D01*
X100500000Y-126100000D01*
X100530000Y-126010000D01*
X100530000Y-125930000D01*
X100490000Y-125850000D01*
X100410000Y-125760000D01*
X100200000Y-125760000D01*
X100130000Y-125790000D01*
X100130000Y-126200000D01*
X100330000Y-126200000D01*
X100430000Y-126190000D01*
X100470000Y-126340000D01*
X100360000Y-126360000D01*
X100000000Y-126360000D01*
X99960000Y-126280000D01*
X99960000Y-125060000D01*
X100010000Y-124990000D01*
X100420000Y-124990000D01*
X100530000Y-125050000D01*
G37*
X100530000Y-125050000D02*
X100420000Y-125160000D01*
X100220000Y-125160000D01*
X100130000Y-125170000D01*
X100130000Y-125580000D01*
X100220000Y-125590000D01*
X100380000Y-125590000D01*
X100460000Y-125530000D01*
X100500000Y-125430000D01*
X100510000Y-125350000D01*
X100480000Y-125260000D01*
X100420000Y-125170000D01*
X100530000Y-125050000D01*
X100610000Y-125110000D01*
X100650000Y-125180000D01*
X100680000Y-125280000D01*
X100690000Y-125380000D01*
X100670000Y-125480000D01*
X100580000Y-125660000D01*
X100640000Y-125740000D01*
X100690000Y-125840000D01*
X100710000Y-125940000D01*
X100700000Y-126040000D01*
X100680000Y-126140000D01*
X100630000Y-126210000D01*
X100570000Y-126270000D01*
X100470000Y-126340000D01*
X100430000Y-126180000D01*
X100500000Y-126100000D01*
X100530000Y-126010000D01*
X100530000Y-125930000D01*
X100490000Y-125850000D01*
X100410000Y-125760000D01*
X100200000Y-125760000D01*
X100130000Y-125790000D01*
X100130000Y-126200000D01*
X100330000Y-126200000D01*
X100430000Y-126190000D01*
X100470000Y-126340000D01*
X100360000Y-126360000D01*
X100000000Y-126360000D01*
X99960000Y-126280000D01*
X99960000Y-125060000D01*
X100010000Y-124990000D01*
X100420000Y-124990000D01*
X100530000Y-125050000D01*
X101110000Y-126360000D02*
X101200000Y-126330000D01*
X101200000Y-126330000D02*
X101200000Y-125820000D01*
X101200000Y-125820000D02*
X101240000Y-125760000D01*
X101240000Y-125760000D02*
X101340000Y-125760000D01*
X101340000Y-125760000D02*
X101380000Y-125850000D01*
X101380000Y-125850000D02*
X101580000Y-126320000D01*
X101580000Y-126320000D02*
X101650000Y-126360000D01*
X101650000Y-126360000D02*
X101750000Y-126360000D01*
X101750000Y-126360000D02*
X101760000Y-126260000D01*
X101760000Y-126260000D02*
X101560000Y-125800000D01*
X101560000Y-125800000D02*
X101580000Y-125710000D01*
X101580000Y-125710000D02*
X101660000Y-125650000D01*
X101660000Y-125650000D02*
X101720000Y-125570000D01*
X101720000Y-125570000D02*
X101760000Y-125480000D01*
X101760000Y-125480000D02*
X101770000Y-125370000D01*
X101770000Y-125370000D02*
X101750000Y-125270000D01*
X101750000Y-125270000D02*
X101720000Y-125180000D01*
X101720000Y-125180000D02*
X101670000Y-125120000D01*
X101670000Y-125120000D02*
X101590000Y-125050000D01*
X101590000Y-125050000D02*
X101490000Y-125190000D01*
X101490000Y-125190000D02*
X101560000Y-125270000D01*
X101560000Y-125270000D02*
X101590000Y-125360000D01*
X101590000Y-125360000D02*
X101580000Y-125440000D01*
X101580000Y-125440000D02*
X101530000Y-125520000D01*
X101530000Y-125520000D02*
X101450000Y-125590000D01*
X101450000Y-125590000D02*
X101390000Y-125590000D01*
X101390000Y-125590000D02*
X101290000Y-125590000D01*
X101290000Y-125590000D02*
X101200000Y-125580000D01*
X101200000Y-125580000D02*
X101200000Y-125170000D01*
X101200000Y-125170000D02*
X101290000Y-125170000D01*
X101290000Y-125170000D02*
X101390000Y-125170000D01*
X101390000Y-125170000D02*
X101490000Y-125180000D01*
X101490000Y-125180000D02*
X101580000Y-125050000D01*
X101580000Y-125050000D02*
X101480000Y-124990000D01*
X101480000Y-124990000D02*
X101070000Y-124990000D01*
X101070000Y-124990000D02*
X101020000Y-125060000D01*
X101020000Y-125060000D02*
X101020000Y-126280000D01*
X101020000Y-126280000D02*
X101070000Y-126360000D01*
X101070000Y-126360000D02*
X101110000Y-126360000D01*
X101110000Y-126360000D02*
X101110000Y-126360000D01*
G36*
X101580000Y-125050000D02*
G01*
X101490000Y-125180000D01*
X101390000Y-125170000D01*
X101200000Y-125170000D01*
X101200000Y-125580000D01*
X101290000Y-125590000D01*
X101450000Y-125590000D01*
X101530000Y-125520000D01*
X101580000Y-125440000D01*
X101590000Y-125360000D01*
X101560000Y-125270000D01*
X101490000Y-125190000D01*
X101590000Y-125050000D01*
X101670000Y-125120000D01*
X101720000Y-125180000D01*
X101750000Y-125270000D01*
X101770000Y-125370000D01*
X101760000Y-125480000D01*
X101720000Y-125570000D01*
X101660000Y-125650000D01*
X101580000Y-125710000D01*
X101560000Y-125800000D01*
X101760000Y-126260000D01*
X101750000Y-126360000D01*
X101650000Y-126360000D01*
X101580000Y-126320000D01*
X101380000Y-125850000D01*
X101340000Y-125760000D01*
X101240000Y-125760000D01*
X101200000Y-125820000D01*
X101200000Y-126330000D01*
X101110000Y-126360000D01*
X101070000Y-126360000D01*
X101020000Y-126280000D01*
X101020000Y-125060000D01*
X101070000Y-124990000D01*
X101480000Y-124990000D01*
X101580000Y-125050000D01*
G37*
X101580000Y-125050000D02*
X101490000Y-125180000D01*
X101390000Y-125170000D01*
X101200000Y-125170000D01*
X101200000Y-125580000D01*
X101290000Y-125590000D01*
X101450000Y-125590000D01*
X101530000Y-125520000D01*
X101580000Y-125440000D01*
X101590000Y-125360000D01*
X101560000Y-125270000D01*
X101490000Y-125190000D01*
X101590000Y-125050000D01*
X101670000Y-125120000D01*
X101720000Y-125180000D01*
X101750000Y-125270000D01*
X101770000Y-125370000D01*
X101760000Y-125480000D01*
X101720000Y-125570000D01*
X101660000Y-125650000D01*
X101580000Y-125710000D01*
X101560000Y-125800000D01*
X101760000Y-126260000D01*
X101750000Y-126360000D01*
X101650000Y-126360000D01*
X101580000Y-126320000D01*
X101380000Y-125850000D01*
X101340000Y-125760000D01*
X101240000Y-125760000D01*
X101200000Y-125820000D01*
X101200000Y-126330000D01*
X101110000Y-126360000D01*
X101070000Y-126360000D01*
X101020000Y-126280000D01*
X101020000Y-125060000D01*
X101070000Y-124990000D01*
X101480000Y-124990000D01*
X101580000Y-125050000D01*
X102110000Y-126360000D02*
X102620000Y-126360000D01*
X102620000Y-126360000D02*
X102720000Y-126360000D01*
X102720000Y-126360000D02*
X102730000Y-126260000D01*
X102730000Y-126260000D02*
X102680000Y-126200000D01*
X102680000Y-126200000D02*
X102280000Y-126200000D01*
X102280000Y-126200000D02*
X102240000Y-126130000D01*
X102240000Y-126130000D02*
X102240000Y-125830000D01*
X102240000Y-125830000D02*
X102270000Y-125760000D01*
X102270000Y-125760000D02*
X102680000Y-125760000D01*
X102680000Y-125760000D02*
X102710000Y-125680000D01*
X102710000Y-125680000D02*
X102680000Y-125590000D01*
X102680000Y-125590000D02*
X102270000Y-125590000D01*
X102270000Y-125590000D02*
X102240000Y-125520000D01*
X102240000Y-125520000D02*
X102240000Y-125220000D01*
X102240000Y-125220000D02*
X102280000Y-125160000D01*
X102280000Y-125160000D02*
X102690000Y-125160000D01*
X102690000Y-125160000D02*
X102730000Y-125090000D01*
X102730000Y-125090000D02*
X102710000Y-125000000D01*
X102710000Y-125000000D02*
X102610000Y-124990000D01*
X102610000Y-124990000D02*
X102110000Y-124990000D01*
X102110000Y-124990000D02*
X102070000Y-125080000D01*
X102070000Y-125080000D02*
X102070000Y-126280000D01*
X102070000Y-126280000D02*
X102110000Y-126360000D01*
X102110000Y-126360000D02*
X102110000Y-126360000D01*
G36*
X102710000Y-125000000D02*
G01*
X102730000Y-125090000D01*
X102690000Y-125160000D01*
X102280000Y-125160000D01*
X102240000Y-125220000D01*
X102240000Y-125520000D01*
X102270000Y-125590000D01*
X102680000Y-125590000D01*
X102710000Y-125680000D01*
X102680000Y-125760000D01*
X102270000Y-125760000D01*
X102240000Y-125830000D01*
X102240000Y-126130000D01*
X102280000Y-126200000D01*
X102680000Y-126200000D01*
X102730000Y-126260000D01*
X102720000Y-126360000D01*
X102110000Y-126360000D01*
X102070000Y-126280000D01*
X102070000Y-125080000D01*
X102110000Y-124990000D01*
X102610000Y-124990000D01*
X102710000Y-125000000D01*
G37*
X102710000Y-125000000D02*
X102730000Y-125090000D01*
X102690000Y-125160000D01*
X102280000Y-125160000D01*
X102240000Y-125220000D01*
X102240000Y-125520000D01*
X102270000Y-125590000D01*
X102680000Y-125590000D01*
X102710000Y-125680000D01*
X102680000Y-125760000D01*
X102270000Y-125760000D01*
X102240000Y-125830000D01*
X102240000Y-126130000D01*
X102280000Y-126200000D01*
X102680000Y-126200000D01*
X102730000Y-126260000D01*
X102720000Y-126360000D01*
X102110000Y-126360000D01*
X102070000Y-126280000D01*
X102070000Y-125080000D01*
X102110000Y-124990000D01*
X102610000Y-124990000D01*
X102710000Y-125000000D01*
X103130000Y-126360000D02*
X103210000Y-126330000D01*
X103210000Y-126330000D02*
X103260000Y-126250000D01*
X103260000Y-126250000D02*
X103340000Y-126210000D01*
X103340000Y-126210000D02*
X103370000Y-126050000D01*
X103370000Y-126050000D02*
X103350000Y-125980000D01*
X103350000Y-125980000D02*
X103440000Y-125380000D01*
X103440000Y-125380000D02*
X103470000Y-125330000D01*
X103470000Y-125330000D02*
X103580000Y-125930000D01*
X103580000Y-125930000D02*
X103600000Y-126030000D01*
X103600000Y-126030000D02*
X103570000Y-126050000D01*
X103570000Y-126050000D02*
X103370000Y-126050000D01*
X103370000Y-126050000D02*
X103350000Y-126210000D01*
X103350000Y-126210000D02*
X103550000Y-126210000D01*
X103550000Y-126210000D02*
X103650000Y-126220000D01*
X103650000Y-126220000D02*
X103700000Y-126300000D01*
X103700000Y-126300000D02*
X103770000Y-126360000D01*
X103770000Y-126360000D02*
X103870000Y-126360000D01*
X103870000Y-126360000D02*
X103890000Y-126280000D01*
X103890000Y-126280000D02*
X103560000Y-125010000D01*
X103560000Y-125010000D02*
X103470000Y-124990000D01*
X103470000Y-124990000D02*
X103370000Y-125020000D01*
X103370000Y-125020000D02*
X103040000Y-126280000D01*
X103040000Y-126280000D02*
X103070000Y-126360000D01*
X103070000Y-126360000D02*
X103130000Y-126360000D01*
X103130000Y-126360000D02*
X103130000Y-126360000D01*
G36*
X103560000Y-125010000D02*
G01*
X103890000Y-126280000D01*
X103870000Y-126360000D01*
X103770000Y-126360000D01*
X103700000Y-126300000D01*
X103650000Y-126220000D01*
X103550000Y-126210000D01*
X103350000Y-126210000D01*
X103370000Y-126050000D01*
X103570000Y-126050000D01*
X103600000Y-126030000D01*
X103580000Y-125930000D01*
X103470000Y-125330000D01*
X103440000Y-125380000D01*
X103350000Y-125980000D01*
X103370000Y-126050000D01*
X103340000Y-126210000D01*
X103260000Y-126250000D01*
X103210000Y-126330000D01*
X103130000Y-126360000D01*
X103070000Y-126360000D01*
X103040000Y-126280000D01*
X103370000Y-125020000D01*
X103470000Y-124990000D01*
X103560000Y-125010000D01*
G37*
X103560000Y-125010000D02*
X103890000Y-126280000D01*
X103870000Y-126360000D01*
X103770000Y-126360000D01*
X103700000Y-126300000D01*
X103650000Y-126220000D01*
X103550000Y-126210000D01*
X103350000Y-126210000D01*
X103370000Y-126050000D01*
X103570000Y-126050000D01*
X103600000Y-126030000D01*
X103580000Y-125930000D01*
X103470000Y-125330000D01*
X103440000Y-125380000D01*
X103350000Y-125980000D01*
X103370000Y-126050000D01*
X103340000Y-126210000D01*
X103260000Y-126250000D01*
X103210000Y-126330000D01*
X103130000Y-126360000D01*
X103070000Y-126360000D01*
X103040000Y-126280000D01*
X103370000Y-125020000D01*
X103470000Y-124990000D01*
X103560000Y-125010000D01*
X104240000Y-126360000D02*
X104340000Y-126360000D01*
X104340000Y-126360000D02*
X104370000Y-126280000D01*
X104370000Y-126280000D02*
X104370000Y-125870000D01*
X104370000Y-125870000D02*
X104370000Y-125780000D01*
X104370000Y-125780000D02*
X104430000Y-125850000D01*
X104430000Y-125850000D02*
X104710000Y-126270000D01*
X104710000Y-126270000D02*
X104770000Y-126350000D01*
X104770000Y-126350000D02*
X104870000Y-126360000D01*
X104870000Y-126360000D02*
X104960000Y-126330000D01*
X104960000Y-126330000D02*
X104910000Y-126250000D01*
X104910000Y-126250000D02*
X104580000Y-125740000D01*
X104580000Y-125740000D02*
X104530000Y-125650000D01*
X104530000Y-125650000D02*
X104590000Y-125570000D01*
X104590000Y-125570000D02*
X104930000Y-125070000D01*
X104930000Y-125070000D02*
X104910000Y-124990000D01*
X104910000Y-124990000D02*
X104810000Y-124990000D01*
X104810000Y-124990000D02*
X104750000Y-125060000D01*
X104750000Y-125060000D02*
X104450000Y-125470000D01*
X104450000Y-125470000D02*
X104390000Y-125550000D01*
X104390000Y-125550000D02*
X104370000Y-125480000D01*
X104370000Y-125480000D02*
X104370000Y-125080000D01*
X104370000Y-125080000D02*
X104330000Y-124990000D01*
X104330000Y-124990000D02*
X104230000Y-124990000D01*
X104230000Y-124990000D02*
X104190000Y-125070000D01*
X104190000Y-125070000D02*
X104190000Y-126280000D01*
X104190000Y-126280000D02*
X104240000Y-126360000D01*
X104240000Y-126360000D02*
X104240000Y-126360000D01*
G36*
X104370000Y-125080000D02*
G01*
X104370000Y-125480000D01*
X104390000Y-125550000D01*
X104450000Y-125470000D01*
X104750000Y-125060000D01*
X104810000Y-124990000D01*
X104910000Y-124990000D01*
X104930000Y-125070000D01*
X104590000Y-125570000D01*
X104530000Y-125650000D01*
X104580000Y-125740000D01*
X104910000Y-126250000D01*
X104960000Y-126330000D01*
X104870000Y-126360000D01*
X104770000Y-126350000D01*
X104710000Y-126270000D01*
X104430000Y-125850000D01*
X104370000Y-125780000D01*
X104370000Y-126280000D01*
X104340000Y-126360000D01*
X104240000Y-126360000D01*
X104190000Y-126280000D01*
X104190000Y-125070000D01*
X104230000Y-124990000D01*
X104330000Y-124990000D01*
X104370000Y-125080000D01*
G37*
X104370000Y-125080000D02*
X104370000Y-125480000D01*
X104390000Y-125550000D01*
X104450000Y-125470000D01*
X104750000Y-125060000D01*
X104810000Y-124990000D01*
X104910000Y-124990000D01*
X104930000Y-125070000D01*
X104590000Y-125570000D01*
X104530000Y-125650000D01*
X104580000Y-125740000D01*
X104910000Y-126250000D01*
X104960000Y-126330000D01*
X104870000Y-126360000D01*
X104770000Y-126350000D01*
X104710000Y-126270000D01*
X104430000Y-125850000D01*
X104370000Y-125780000D01*
X104370000Y-126280000D01*
X104340000Y-126360000D01*
X104240000Y-126360000D01*
X104190000Y-126280000D01*
X104190000Y-125070000D01*
X104230000Y-124990000D01*
X104330000Y-124990000D01*
X104370000Y-125080000D01*
X105570000Y-126360000D02*
X105770000Y-126360000D01*
X105770000Y-126360000D02*
X105880000Y-126320000D01*
X105880000Y-126320000D02*
X105970000Y-126240000D01*
X105970000Y-126240000D02*
X106030000Y-126180000D01*
X106030000Y-126180000D02*
X106060000Y-126110000D01*
X106060000Y-126110000D02*
X106090000Y-126010000D01*
X106090000Y-126010000D02*
X106100000Y-125910000D01*
X106100000Y-125910000D02*
X106100000Y-125810000D01*
X106100000Y-125810000D02*
X106100000Y-125700000D01*
X106100000Y-125700000D02*
X106100000Y-125580000D01*
X106100000Y-125580000D02*
X106100000Y-125480000D01*
X106100000Y-125480000D02*
X106090000Y-125390000D01*
X106090000Y-125390000D02*
X106070000Y-125290000D01*
X106070000Y-125290000D02*
X106040000Y-125210000D01*
X106040000Y-125210000D02*
X105990000Y-125140000D01*
X105990000Y-125140000D02*
X105920000Y-125070000D01*
X105920000Y-125070000D02*
X105820000Y-124990000D01*
X105820000Y-124990000D02*
X105610000Y-124990000D01*
X105610000Y-124990000D02*
X105630000Y-125150000D01*
X105630000Y-125150000D02*
X105730000Y-125150000D01*
X105730000Y-125150000D02*
X105820000Y-125200000D01*
X105820000Y-125200000D02*
X105880000Y-125270000D01*
X105880000Y-125270000D02*
X105920000Y-125350000D01*
X105920000Y-125350000D02*
X105930000Y-125460000D01*
X105930000Y-125460000D02*
X105930000Y-125670000D01*
X105930000Y-125670000D02*
X105930000Y-125880000D01*
X105930000Y-125880000D02*
X105920000Y-125980000D01*
X105920000Y-125980000D02*
X105890000Y-126070000D01*
X105890000Y-126070000D02*
X105840000Y-126140000D01*
X105840000Y-126140000D02*
X105760000Y-126200000D01*
X105760000Y-126200000D02*
X105660000Y-126200000D01*
X105660000Y-126200000D02*
X105560000Y-126160000D01*
X105560000Y-126160000D02*
X105500000Y-126090000D01*
X105500000Y-126090000D02*
X105470000Y-126010000D01*
X105470000Y-126010000D02*
X105450000Y-125900000D01*
X105450000Y-125900000D02*
X105450000Y-125810000D01*
X105450000Y-125810000D02*
X105440000Y-125700000D01*
X105440000Y-125700000D02*
X105450000Y-125580000D01*
X105450000Y-125580000D02*
X105450000Y-125480000D01*
X105450000Y-125480000D02*
X105460000Y-125380000D01*
X105460000Y-125380000D02*
X105480000Y-125290000D01*
X105480000Y-125290000D02*
X105540000Y-125220000D01*
X105540000Y-125220000D02*
X105630000Y-125150000D01*
X105630000Y-125150000D02*
X105610000Y-125000000D01*
X105610000Y-125000000D02*
X105510000Y-125030000D01*
X105510000Y-125030000D02*
X105420000Y-125110000D01*
X105420000Y-125110000D02*
X105360000Y-125180000D01*
X105360000Y-125180000D02*
X105320000Y-125250000D01*
X105320000Y-125250000D02*
X105290000Y-125340000D01*
X105290000Y-125340000D02*
X105280000Y-125440000D01*
X105280000Y-125440000D02*
X105270000Y-125530000D01*
X105270000Y-125530000D02*
X105270000Y-125640000D01*
X105270000Y-125640000D02*
X105270000Y-125760000D01*
X105270000Y-125760000D02*
X105280000Y-125870000D01*
X105280000Y-125870000D02*
X105280000Y-125960000D01*
X105280000Y-125960000D02*
X105300000Y-126060000D01*
X105300000Y-126060000D02*
X105340000Y-126140000D01*
X105340000Y-126140000D02*
X105380000Y-126210000D01*
X105380000Y-126210000D02*
X105450000Y-126280000D01*
X105450000Y-126280000D02*
X105560000Y-126360000D01*
X105560000Y-126360000D02*
X105570000Y-126360000D01*
X105570000Y-126360000D02*
X105570000Y-126360000D01*
G36*
X105920000Y-125070000D02*
G01*
X105990000Y-125140000D01*
X106040000Y-125210000D01*
X106070000Y-125290000D01*
X106090000Y-125390000D01*
X106100000Y-125480000D01*
X106100000Y-125910000D01*
X106090000Y-126010000D01*
X106060000Y-126110000D01*
X106030000Y-126180000D01*
X105970000Y-126240000D01*
X105880000Y-126320000D01*
X105770000Y-126360000D01*
X105560000Y-126360000D01*
X105450000Y-126280000D01*
X105380000Y-126210000D01*
X105340000Y-126140000D01*
X105300000Y-126060000D01*
X105280000Y-125960000D01*
X105280000Y-125870000D01*
X105270000Y-125760000D01*
X105270000Y-125530000D01*
X105280000Y-125440000D01*
X105290000Y-125340000D01*
X105320000Y-125250000D01*
X105360000Y-125180000D01*
X105420000Y-125110000D01*
X105510000Y-125030000D01*
X105610000Y-125000000D01*
X105630000Y-125150000D01*
X105540000Y-125220000D01*
X105480000Y-125290000D01*
X105460000Y-125380000D01*
X105450000Y-125480000D01*
X105450000Y-125580000D01*
X105440000Y-125700000D01*
X105450000Y-125810000D01*
X105450000Y-125900000D01*
X105470000Y-126010000D01*
X105500000Y-126090000D01*
X105560000Y-126160000D01*
X105660000Y-126200000D01*
X105760000Y-126200000D01*
X105840000Y-126140000D01*
X105890000Y-126070000D01*
X105920000Y-125980000D01*
X105930000Y-125880000D01*
X105930000Y-125460000D01*
X105920000Y-125350000D01*
X105880000Y-125270000D01*
X105820000Y-125200000D01*
X105730000Y-125150000D01*
X105630000Y-125150000D01*
X105610000Y-124990000D01*
X105820000Y-124990000D01*
X105920000Y-125070000D01*
G37*
X105920000Y-125070000D02*
X105990000Y-125140000D01*
X106040000Y-125210000D01*
X106070000Y-125290000D01*
X106090000Y-125390000D01*
X106100000Y-125480000D01*
X106100000Y-125910000D01*
X106090000Y-126010000D01*
X106060000Y-126110000D01*
X106030000Y-126180000D01*
X105970000Y-126240000D01*
X105880000Y-126320000D01*
X105770000Y-126360000D01*
X105560000Y-126360000D01*
X105450000Y-126280000D01*
X105380000Y-126210000D01*
X105340000Y-126140000D01*
X105300000Y-126060000D01*
X105280000Y-125960000D01*
X105280000Y-125870000D01*
X105270000Y-125760000D01*
X105270000Y-125530000D01*
X105280000Y-125440000D01*
X105290000Y-125340000D01*
X105320000Y-125250000D01*
X105360000Y-125180000D01*
X105420000Y-125110000D01*
X105510000Y-125030000D01*
X105610000Y-125000000D01*
X105630000Y-125150000D01*
X105540000Y-125220000D01*
X105480000Y-125290000D01*
X105460000Y-125380000D01*
X105450000Y-125480000D01*
X105450000Y-125580000D01*
X105440000Y-125700000D01*
X105450000Y-125810000D01*
X105450000Y-125900000D01*
X105470000Y-126010000D01*
X105500000Y-126090000D01*
X105560000Y-126160000D01*
X105660000Y-126200000D01*
X105760000Y-126200000D01*
X105840000Y-126140000D01*
X105890000Y-126070000D01*
X105920000Y-125980000D01*
X105930000Y-125880000D01*
X105930000Y-125460000D01*
X105920000Y-125350000D01*
X105880000Y-125270000D01*
X105820000Y-125200000D01*
X105730000Y-125150000D01*
X105630000Y-125150000D01*
X105610000Y-124990000D01*
X105820000Y-124990000D01*
X105920000Y-125070000D01*
X106620000Y-126360000D02*
X106930000Y-126360000D01*
X106930000Y-126360000D02*
X107030000Y-126320000D01*
X107030000Y-126320000D02*
X107100000Y-126230000D01*
X107100000Y-126230000D02*
X107160000Y-126140000D01*
X107160000Y-126140000D02*
X107200000Y-126060000D01*
X107200000Y-126060000D02*
X107220000Y-125970000D01*
X107220000Y-125970000D02*
X107220000Y-125880000D01*
X107220000Y-125880000D02*
X107220000Y-125060000D01*
X107220000Y-125060000D02*
X107170000Y-124990000D01*
X107170000Y-124990000D02*
X107070000Y-125000000D01*
X107070000Y-125000000D02*
X107050000Y-125100000D01*
X107050000Y-125100000D02*
X107050000Y-125910000D01*
X107050000Y-125910000D02*
X107050000Y-126010000D01*
X107050000Y-126010000D02*
X107010000Y-126090000D01*
X107010000Y-126090000D02*
X106940000Y-126190000D01*
X106940000Y-126190000D02*
X106850000Y-126200000D01*
X106850000Y-126200000D02*
X106740000Y-126200000D01*
X106740000Y-126200000D02*
X106650000Y-126150000D01*
X106650000Y-126150000D02*
X106600000Y-126070000D01*
X106600000Y-126070000D02*
X106570000Y-125980000D01*
X106570000Y-125980000D02*
X106570000Y-125060000D01*
X106570000Y-125060000D02*
X106520000Y-124990000D01*
X106520000Y-124990000D02*
X106420000Y-125010000D01*
X106420000Y-125010000D02*
X106400000Y-125100000D01*
X106400000Y-125100000D02*
X106400000Y-125920000D01*
X106400000Y-125920000D02*
X106410000Y-126010000D01*
X106410000Y-126010000D02*
X106430000Y-126090000D01*
X106430000Y-126090000D02*
X106480000Y-126180000D01*
X106480000Y-126180000D02*
X106540000Y-126270000D01*
X106540000Y-126270000D02*
X106620000Y-126360000D01*
X106620000Y-126360000D02*
X106620000Y-126360000D01*
G36*
X107220000Y-125060000D02*
G01*
X107220000Y-125970000D01*
X107200000Y-126060000D01*
X107160000Y-126140000D01*
X107100000Y-126230000D01*
X107030000Y-126320000D01*
X106930000Y-126360000D01*
X106620000Y-126360000D01*
X106540000Y-126270000D01*
X106480000Y-126180000D01*
X106430000Y-126090000D01*
X106410000Y-126010000D01*
X106400000Y-125920000D01*
X106400000Y-125100000D01*
X106420000Y-125010000D01*
X106520000Y-124990000D01*
X106570000Y-125060000D01*
X106570000Y-125980000D01*
X106600000Y-126070000D01*
X106650000Y-126150000D01*
X106740000Y-126200000D01*
X106850000Y-126200000D01*
X106940000Y-126190000D01*
X107010000Y-126090000D01*
X107050000Y-126010000D01*
X107050000Y-125100000D01*
X107070000Y-125000000D01*
X107170000Y-124990000D01*
X107220000Y-125060000D01*
G37*
X107220000Y-125060000D02*
X107220000Y-125970000D01*
X107200000Y-126060000D01*
X107160000Y-126140000D01*
X107100000Y-126230000D01*
X107030000Y-126320000D01*
X106930000Y-126360000D01*
X106620000Y-126360000D01*
X106540000Y-126270000D01*
X106480000Y-126180000D01*
X106430000Y-126090000D01*
X106410000Y-126010000D01*
X106400000Y-125920000D01*
X106400000Y-125100000D01*
X106420000Y-125010000D01*
X106520000Y-124990000D01*
X106570000Y-125060000D01*
X106570000Y-125980000D01*
X106600000Y-126070000D01*
X106650000Y-126150000D01*
X106740000Y-126200000D01*
X106850000Y-126200000D01*
X106940000Y-126190000D01*
X107010000Y-126090000D01*
X107050000Y-126010000D01*
X107050000Y-125100000D01*
X107070000Y-125000000D01*
X107170000Y-124990000D01*
X107220000Y-125060000D01*
X107850000Y-126360000D02*
X107950000Y-126360000D01*
X107950000Y-126360000D02*
X107990000Y-126280000D01*
X107990000Y-126280000D02*
X107990000Y-125170000D01*
X107990000Y-125170000D02*
X108090000Y-125170000D01*
X108090000Y-125170000D02*
X108190000Y-125170000D01*
X108190000Y-125170000D02*
X108280000Y-125130000D01*
X108280000Y-125130000D02*
X108280000Y-125040000D01*
X108280000Y-125040000D02*
X108200000Y-124990000D01*
X108200000Y-124990000D02*
X107600000Y-124990000D01*
X107600000Y-124990000D02*
X107530000Y-125040000D01*
X107530000Y-125040000D02*
X107530000Y-125140000D01*
X107530000Y-125140000D02*
X107620000Y-125170000D01*
X107620000Y-125170000D02*
X107820000Y-125170000D01*
X107820000Y-125170000D02*
X107820000Y-125260000D01*
X107820000Y-125260000D02*
X107820000Y-126270000D01*
X107820000Y-126270000D02*
X107850000Y-126360000D01*
X107850000Y-126360000D02*
X107850000Y-126360000D01*
G36*
X108280000Y-125040000D02*
G01*
X108280000Y-125130000D01*
X108190000Y-125170000D01*
X107990000Y-125170000D01*
X107990000Y-126280000D01*
X107950000Y-126360000D01*
X107850000Y-126360000D01*
X107820000Y-126270000D01*
X107820000Y-125170000D01*
X107620000Y-125170000D01*
X107530000Y-125140000D01*
X107530000Y-125040000D01*
X107600000Y-124990000D01*
X108200000Y-124990000D01*
X108280000Y-125040000D01*
G37*
X108280000Y-125040000D02*
X108280000Y-125130000D01*
X108190000Y-125170000D01*
X107990000Y-125170000D01*
X107990000Y-126280000D01*
X107950000Y-126360000D01*
X107850000Y-126360000D01*
X107820000Y-126270000D01*
X107820000Y-125170000D01*
X107620000Y-125170000D01*
X107530000Y-125140000D01*
X107530000Y-125040000D01*
X107600000Y-124990000D01*
X108200000Y-124990000D01*
X108280000Y-125040000D01*
X106610000Y-92360000D02*
X106610000Y-92040000D01*
X106610000Y-92040000D02*
X106570000Y-92000000D01*
X106570000Y-92000000D02*
X105060000Y-92000000D01*
X105060000Y-92000000D02*
X105010000Y-92030000D01*
X105010000Y-92030000D02*
X105010000Y-96880000D01*
X105010000Y-96880000D02*
X105490000Y-95470000D01*
X105490000Y-95470000D02*
X105430000Y-95440000D01*
X105430000Y-95440000D02*
X105350000Y-95390000D01*
X105350000Y-95390000D02*
X105290000Y-95320000D01*
X105290000Y-95320000D02*
X105290000Y-95160000D01*
X105290000Y-95160000D02*
X105330000Y-95030000D01*
X105330000Y-95030000D02*
X105380000Y-94970000D01*
X105380000Y-94970000D02*
X105430000Y-94930000D01*
X105430000Y-94930000D02*
X105500000Y-94910000D01*
X105500000Y-94910000D02*
X105550000Y-94950000D01*
X105550000Y-94950000D02*
X105550000Y-95030000D01*
X105550000Y-95030000D02*
X105490000Y-95050000D01*
X105490000Y-95050000D02*
X105420000Y-95110000D01*
X105420000Y-95110000D02*
X105400000Y-95190000D01*
X105400000Y-95190000D02*
X105400000Y-95270000D01*
X105400000Y-95270000D02*
X105470000Y-95320000D01*
X105470000Y-95320000D02*
X105540000Y-95350000D01*
X105540000Y-95350000D02*
X105610000Y-95360000D01*
X105610000Y-95360000D02*
X105680000Y-95340000D01*
X105680000Y-95340000D02*
X105750000Y-95290000D01*
X105750000Y-95290000D02*
X105770000Y-95220000D01*
X105770000Y-95220000D02*
X105760000Y-95140000D01*
X105760000Y-95140000D02*
X105710000Y-95070000D01*
X105710000Y-95070000D02*
X105680000Y-95020000D01*
X105680000Y-95020000D02*
X105700000Y-94950000D01*
X105700000Y-94950000D02*
X105780000Y-94940000D01*
X105780000Y-94940000D02*
X106340000Y-94940000D01*
X106340000Y-94940000D02*
X106360000Y-95010000D01*
X106360000Y-95010000D02*
X106360000Y-95400000D01*
X106360000Y-95400000D02*
X106320000Y-95450000D01*
X106320000Y-95450000D02*
X106350000Y-95730000D01*
X106350000Y-95730000D02*
X106360000Y-95800000D01*
X106360000Y-95800000D02*
X106340000Y-95860000D01*
X106340000Y-95860000D02*
X105570000Y-96050000D01*
X105570000Y-96050000D02*
X105520000Y-96080000D01*
X105520000Y-96080000D02*
X105600000Y-96100000D01*
X105600000Y-96100000D02*
X106290000Y-96260000D01*
X106290000Y-96260000D02*
X106360000Y-96290000D01*
X106360000Y-96290000D02*
X106360000Y-96370000D01*
X106360000Y-96370000D02*
X106320000Y-96410000D01*
X106320000Y-96410000D02*
X106240000Y-96400000D01*
X106240000Y-96400000D02*
X105320000Y-96150000D01*
X105320000Y-96150000D02*
X105290000Y-96090000D01*
X105290000Y-96090000D02*
X105290000Y-96020000D01*
X105290000Y-96020000D02*
X105290000Y-96010000D01*
X105290000Y-96010000D02*
X105350000Y-95980000D01*
X105350000Y-95980000D02*
X106280000Y-95730000D01*
X106280000Y-95730000D02*
X106350000Y-95730000D01*
X106350000Y-95730000D02*
X106320000Y-95450000D01*
X106320000Y-95450000D02*
X106250000Y-95430000D01*
X106250000Y-95430000D02*
X106250000Y-95110000D01*
X106250000Y-95110000D02*
X106220000Y-95060000D01*
X106220000Y-95060000D02*
X105900000Y-95060000D01*
X105900000Y-95060000D02*
X105850000Y-95090000D01*
X105850000Y-95090000D02*
X105880000Y-95150000D01*
X105880000Y-95150000D02*
X105880000Y-95240000D01*
X105880000Y-95240000D02*
X105880000Y-95320000D01*
X105880000Y-95320000D02*
X105830000Y-95390000D01*
X105830000Y-95390000D02*
X105760000Y-95440000D01*
X105760000Y-95440000D02*
X105690000Y-95470000D01*
X105690000Y-95470000D02*
X105620000Y-95490000D01*
X105620000Y-95490000D02*
X105560000Y-95490000D01*
X105560000Y-95490000D02*
X105490000Y-95470000D01*
X105490000Y-95470000D02*
X105010000Y-96890000D01*
X105010000Y-96890000D02*
X105040000Y-96950000D01*
X105040000Y-96950000D02*
X105750000Y-97300000D01*
X105750000Y-97300000D02*
X105830000Y-97320000D01*
X105830000Y-97320000D02*
X106540000Y-96970000D01*
X106540000Y-96970000D02*
X106610000Y-96930000D01*
X106610000Y-96930000D02*
X106610000Y-92400000D01*
X106610000Y-92400000D02*
X106610000Y-92360000D01*
X106610000Y-92360000D02*
X106610000Y-92360000D01*
G36*
X106610000Y-92040000D02*
G01*
X106610000Y-96930000D01*
X106540000Y-96970000D01*
X105830000Y-97320000D01*
X105750000Y-97300000D01*
X105040000Y-96950000D01*
X105010000Y-96890000D01*
X105290000Y-96061667D01*
X105290000Y-96090000D01*
X105320000Y-96150000D01*
X106240000Y-96400000D01*
X106320000Y-96410000D01*
X106360000Y-96370000D01*
X106360000Y-96290000D01*
X106290000Y-96260000D01*
X105600000Y-96100000D01*
X105520000Y-96080000D01*
X105570000Y-96050000D01*
X106340000Y-95860000D01*
X106360000Y-95800000D01*
X106350000Y-95730000D01*
X106280000Y-95730000D01*
X105350000Y-95980000D01*
X105311017Y-95999492D01*
X105290000Y-96061667D01*
X105290000Y-96057500D01*
X105309487Y-96000256D01*
X105311017Y-95999492D01*
X105490000Y-95470000D01*
X105560000Y-95490000D01*
X105620000Y-95490000D01*
X105690000Y-95470000D01*
X105760000Y-95440000D01*
X105830000Y-95390000D01*
X105880000Y-95320000D01*
X105880000Y-95150000D01*
X105850000Y-95090000D01*
X105900000Y-95060000D01*
X106220000Y-95060000D01*
X106250000Y-95110000D01*
X106250000Y-95430000D01*
X106320000Y-95450000D01*
X106360000Y-95400000D01*
X106360000Y-95010000D01*
X106340000Y-94940000D01*
X105780000Y-94940000D01*
X105700000Y-94950000D01*
X105680000Y-95020000D01*
X105710000Y-95070000D01*
X105760000Y-95140000D01*
X105770000Y-95220000D01*
X105750000Y-95290000D01*
X105680000Y-95340000D01*
X105610000Y-95360000D01*
X105540000Y-95350000D01*
X105470000Y-95320000D01*
X105400000Y-95270000D01*
X105400000Y-95190000D01*
X105420000Y-95110000D01*
X105490000Y-95050000D01*
X105550000Y-95030000D01*
X105550000Y-94950000D01*
X105500000Y-94910000D01*
X105430000Y-94930000D01*
X105380000Y-94970000D01*
X105330000Y-95030000D01*
X105290000Y-95160000D01*
X105290000Y-95320000D01*
X105350000Y-95390000D01*
X105430000Y-95440000D01*
X105490000Y-95470000D01*
X105309487Y-96000256D01*
X105290000Y-96010000D01*
X105290000Y-96057500D01*
X105010000Y-96880000D01*
X105010000Y-92030000D01*
X105060000Y-92000000D01*
X106570000Y-92000000D01*
X106610000Y-92040000D01*
G37*
X106610000Y-92040000D02*
X106610000Y-96930000D01*
X106540000Y-96970000D01*
X105830000Y-97320000D01*
X105750000Y-97300000D01*
X105040000Y-96950000D01*
X105010000Y-96890000D01*
X105290000Y-96061667D01*
X105290000Y-96090000D01*
X105320000Y-96150000D01*
X106240000Y-96400000D01*
X106320000Y-96410000D01*
X106360000Y-96370000D01*
X106360000Y-96290000D01*
X106290000Y-96260000D01*
X105600000Y-96100000D01*
X105520000Y-96080000D01*
X105570000Y-96050000D01*
X106340000Y-95860000D01*
X106360000Y-95800000D01*
X106350000Y-95730000D01*
X106280000Y-95730000D01*
X105350000Y-95980000D01*
X105311017Y-95999492D01*
X105290000Y-96061667D01*
X105290000Y-96057500D01*
X105309487Y-96000256D01*
X105311017Y-95999492D01*
X105490000Y-95470000D01*
X105560000Y-95490000D01*
X105620000Y-95490000D01*
X105690000Y-95470000D01*
X105760000Y-95440000D01*
X105830000Y-95390000D01*
X105880000Y-95320000D01*
X105880000Y-95150000D01*
X105850000Y-95090000D01*
X105900000Y-95060000D01*
X106220000Y-95060000D01*
X106250000Y-95110000D01*
X106250000Y-95430000D01*
X106320000Y-95450000D01*
X106360000Y-95400000D01*
X106360000Y-95010000D01*
X106340000Y-94940000D01*
X105780000Y-94940000D01*
X105700000Y-94950000D01*
X105680000Y-95020000D01*
X105710000Y-95070000D01*
X105760000Y-95140000D01*
X105770000Y-95220000D01*
X105750000Y-95290000D01*
X105680000Y-95340000D01*
X105610000Y-95360000D01*
X105540000Y-95350000D01*
X105470000Y-95320000D01*
X105400000Y-95270000D01*
X105400000Y-95190000D01*
X105420000Y-95110000D01*
X105490000Y-95050000D01*
X105550000Y-95030000D01*
X105550000Y-94950000D01*
X105500000Y-94910000D01*
X105430000Y-94930000D01*
X105380000Y-94970000D01*
X105330000Y-95030000D01*
X105290000Y-95160000D01*
X105290000Y-95320000D01*
X105350000Y-95390000D01*
X105430000Y-95440000D01*
X105490000Y-95470000D01*
X105309487Y-96000256D01*
X105290000Y-96010000D01*
X105290000Y-96057500D01*
X105010000Y-96880000D01*
X105010000Y-92030000D01*
X105060000Y-92000000D01*
X106570000Y-92000000D01*
X106610000Y-92040000D01*
X102890000Y-96170000D02*
X102960000Y-96210000D01*
X102960000Y-96210000D02*
X103040000Y-96230000D01*
X103040000Y-96230000D02*
X103110000Y-96240000D01*
X103110000Y-96240000D02*
X103180000Y-96240000D01*
X103180000Y-96240000D02*
X103280000Y-96240000D01*
X103280000Y-96240000D02*
X103370000Y-96240000D01*
X103370000Y-96240000D02*
X103450000Y-96240000D01*
X103450000Y-96240000D02*
X103520000Y-96230000D01*
X103520000Y-96230000D02*
X103600000Y-96210000D01*
X103600000Y-96210000D02*
X103670000Y-96180000D01*
X103670000Y-96180000D02*
X103710000Y-96130000D01*
X103710000Y-96130000D02*
X103710000Y-95970000D01*
X103710000Y-95970000D02*
X103650000Y-95930000D01*
X103650000Y-95930000D02*
X103580000Y-95900000D01*
X103580000Y-95900000D02*
X103500000Y-95890000D01*
X103500000Y-95890000D02*
X103430000Y-95880000D01*
X103430000Y-95880000D02*
X103350000Y-95880000D01*
X103350000Y-95880000D02*
X103250000Y-95880000D01*
X103250000Y-95880000D02*
X103160000Y-95880000D01*
X103160000Y-95880000D02*
X103090000Y-95890000D01*
X103090000Y-95890000D02*
X103010000Y-95900000D01*
X103010000Y-95900000D02*
X102940000Y-95930000D01*
X102940000Y-95930000D02*
X102870000Y-95960000D01*
X102870000Y-95960000D02*
X102860000Y-96030000D01*
X102860000Y-96030000D02*
X102860000Y-96110000D01*
X102860000Y-96110000D02*
X102890000Y-96170000D01*
X102890000Y-96170000D02*
X102890000Y-96170000D01*
G36*
X103500000Y-95890000D02*
G01*
X103580000Y-95900000D01*
X103650000Y-95930000D01*
X103710000Y-95970000D01*
X103710000Y-96130000D01*
X103670000Y-96180000D01*
X103600000Y-96210000D01*
X103520000Y-96230000D01*
X103450000Y-96240000D01*
X103110000Y-96240000D01*
X103040000Y-96230000D01*
X102960000Y-96210000D01*
X102890000Y-96170000D01*
X102860000Y-96110000D01*
X102860000Y-96030000D01*
X102870000Y-95960000D01*
X103010000Y-95900000D01*
X103090000Y-95890000D01*
X103160000Y-95880000D01*
X103430000Y-95880000D01*
X103500000Y-95890000D01*
G37*
X103500000Y-95890000D02*
X103580000Y-95900000D01*
X103650000Y-95930000D01*
X103710000Y-95970000D01*
X103710000Y-96130000D01*
X103670000Y-96180000D01*
X103600000Y-96210000D01*
X103520000Y-96230000D01*
X103450000Y-96240000D01*
X103110000Y-96240000D01*
X103040000Y-96230000D01*
X102960000Y-96210000D01*
X102890000Y-96170000D01*
X102860000Y-96110000D01*
X102860000Y-96030000D01*
X102870000Y-95960000D01*
X103010000Y-95900000D01*
X103090000Y-95890000D01*
X103160000Y-95880000D01*
X103430000Y-95880000D01*
X103500000Y-95890000D01*
X102880000Y-95200000D02*
X102910000Y-95280000D01*
X102910000Y-95280000D02*
X102960000Y-95330000D01*
X102960000Y-95330000D02*
X103020000Y-95360000D01*
X103020000Y-95360000D02*
X103110000Y-95370000D01*
X103110000Y-95370000D02*
X103180000Y-95370000D01*
X103180000Y-95370000D02*
X103360000Y-95370000D01*
X103360000Y-95370000D02*
X103440000Y-95370000D01*
X103440000Y-95370000D02*
X103510000Y-95370000D01*
X103510000Y-95370000D02*
X103590000Y-95350000D01*
X103590000Y-95350000D02*
X103640000Y-95310000D01*
X103640000Y-95310000D02*
X103690000Y-95240000D01*
X103690000Y-95240000D02*
X103690000Y-95080000D01*
X103690000Y-95080000D02*
X103650000Y-95040000D01*
X103650000Y-95040000D02*
X102940000Y-95040000D01*
X102940000Y-95040000D02*
X102880000Y-95060000D01*
X102880000Y-95060000D02*
X102880000Y-95140000D01*
X102880000Y-95140000D02*
X102880000Y-95200000D01*
X102880000Y-95200000D02*
X102880000Y-95200000D01*
G36*
X103690000Y-95080000D02*
G01*
X103690000Y-95240000D01*
X103640000Y-95310000D01*
X103590000Y-95350000D01*
X103510000Y-95370000D01*
X103110000Y-95370000D01*
X103020000Y-95360000D01*
X102960000Y-95330000D01*
X102910000Y-95280000D01*
X102880000Y-95200000D01*
X102880000Y-95060000D01*
X102940000Y-95040000D01*
X103650000Y-95040000D01*
X103690000Y-95080000D01*
G37*
X103690000Y-95080000D02*
X103690000Y-95240000D01*
X103640000Y-95310000D01*
X103590000Y-95350000D01*
X103510000Y-95370000D01*
X103110000Y-95370000D01*
X103020000Y-95360000D01*
X102960000Y-95330000D01*
X102910000Y-95280000D01*
X102880000Y-95200000D01*
X102880000Y-95060000D01*
X102940000Y-95040000D01*
X103650000Y-95040000D01*
X103690000Y-95080000D01*
X104070000Y-92370000D02*
X104070000Y-92050000D01*
X104070000Y-92050000D02*
X104040000Y-92000000D01*
X104040000Y-92000000D02*
X102530000Y-92000000D01*
X102530000Y-92000000D02*
X102470000Y-92020000D01*
X102470000Y-92020000D02*
X102470000Y-96480000D01*
X102470000Y-96480000D02*
X102480000Y-96560000D01*
X102480000Y-96560000D02*
X102490000Y-96640000D01*
X102490000Y-96640000D02*
X102510000Y-96720000D01*
X102510000Y-96720000D02*
X102530000Y-96790000D01*
X102530000Y-96790000D02*
X102570000Y-96870000D01*
X102570000Y-96870000D02*
X102610000Y-96930000D01*
X102610000Y-96930000D02*
X102650000Y-97000000D01*
X102650000Y-97000000D02*
X102710000Y-97060000D01*
X102710000Y-97060000D02*
X102770000Y-97110000D01*
X102770000Y-97110000D02*
X102830000Y-97160000D01*
X102830000Y-97160000D02*
X102900000Y-97200000D01*
X102900000Y-97200000D02*
X102970000Y-97230000D01*
X102970000Y-97230000D02*
X103050000Y-97260000D01*
X103050000Y-97260000D02*
X103120000Y-97280000D01*
X103120000Y-97280000D02*
X103200000Y-97290000D01*
X103200000Y-97290000D02*
X103280000Y-97290000D01*
X103280000Y-97290000D02*
X103360000Y-97290000D01*
X103360000Y-97290000D02*
X103440000Y-97270000D01*
X103440000Y-97270000D02*
X103520000Y-97250000D01*
X103520000Y-97250000D02*
X103590000Y-97220000D01*
X103590000Y-97220000D02*
X103660000Y-97190000D01*
X103660000Y-97190000D02*
X103730000Y-97140000D01*
X103730000Y-97140000D02*
X103790000Y-97100000D01*
X103790000Y-97100000D02*
X103850000Y-97040000D01*
X103850000Y-97040000D02*
X103900000Y-96980000D01*
X103900000Y-96980000D02*
X103950000Y-96910000D01*
X103950000Y-96910000D02*
X103990000Y-96840000D01*
X103990000Y-96840000D02*
X104020000Y-96770000D01*
X104020000Y-96770000D02*
X104040000Y-96690000D01*
X104040000Y-96690000D02*
X104060000Y-96620000D01*
X104060000Y-96620000D02*
X104060000Y-96540000D01*
X104060000Y-96540000D02*
X104070000Y-96460000D01*
X104070000Y-96460000D02*
X103650000Y-95460000D01*
X103650000Y-95460000D02*
X103590000Y-95490000D01*
X103590000Y-95490000D02*
X103510000Y-95500000D01*
X103510000Y-95500000D02*
X103360000Y-95510000D01*
X103360000Y-95510000D02*
X103180000Y-95510000D01*
X103180000Y-95510000D02*
X103210000Y-95750000D01*
X103210000Y-95750000D02*
X103300000Y-95750000D01*
X103300000Y-95750000D02*
X103390000Y-95750000D01*
X103390000Y-95750000D02*
X103470000Y-95750000D01*
X103470000Y-95750000D02*
X103540000Y-95760000D01*
X103540000Y-95760000D02*
X103620000Y-95780000D01*
X103620000Y-95780000D02*
X103680000Y-95810000D01*
X103680000Y-95810000D02*
X103730000Y-95850000D01*
X103730000Y-95850000D02*
X103790000Y-95920000D01*
X103790000Y-95920000D02*
X103820000Y-96000000D01*
X103820000Y-96000000D02*
X103820000Y-96080000D01*
X103820000Y-96080000D02*
X103810000Y-96160000D01*
X103810000Y-96160000D02*
X103760000Y-96240000D01*
X103760000Y-96240000D02*
X103710000Y-96300000D01*
X103710000Y-96300000D02*
X103660000Y-96330000D01*
X103660000Y-96330000D02*
X103580000Y-96350000D01*
X103580000Y-96350000D02*
X103500000Y-96370000D01*
X103500000Y-96370000D02*
X103430000Y-96370000D01*
X103430000Y-96370000D02*
X103350000Y-96370000D01*
X103350000Y-96370000D02*
X103250000Y-96380000D01*
X103250000Y-96380000D02*
X103170000Y-96370000D01*
X103170000Y-96370000D02*
X103090000Y-96370000D01*
X103090000Y-96370000D02*
X103020000Y-96360000D01*
X103020000Y-96360000D02*
X102940000Y-96340000D01*
X102940000Y-96340000D02*
X102880000Y-96310000D01*
X102880000Y-96310000D02*
X102830000Y-96260000D01*
X102830000Y-96260000D02*
X102780000Y-96190000D01*
X102780000Y-96190000D02*
X102750000Y-96110000D01*
X102750000Y-96110000D02*
X102750000Y-96030000D01*
X102750000Y-96030000D02*
X102750000Y-95980000D01*
X102750000Y-95980000D02*
X102810000Y-95890000D01*
X102810000Y-95890000D02*
X102860000Y-95840000D01*
X102860000Y-95840000D02*
X102910000Y-95800000D01*
X102910000Y-95800000D02*
X102980000Y-95770000D01*
X102980000Y-95770000D02*
X103060000Y-95760000D01*
X103060000Y-95760000D02*
X103130000Y-95750000D01*
X103130000Y-95750000D02*
X103210000Y-95750000D01*
X103210000Y-95750000D02*
X103170000Y-95510000D01*
X103170000Y-95510000D02*
X103100000Y-95500000D01*
X103100000Y-95500000D02*
X103020000Y-95500000D01*
X103020000Y-95500000D02*
X102950000Y-95480000D01*
X102950000Y-95480000D02*
X102890000Y-95450000D01*
X102890000Y-95450000D02*
X102840000Y-95400000D01*
X102840000Y-95400000D02*
X102780000Y-95330000D01*
X102780000Y-95330000D02*
X102750000Y-95250000D01*
X102750000Y-95250000D02*
X102750000Y-95010000D01*
X102750000Y-95010000D02*
X102770000Y-94910000D01*
X102770000Y-94910000D02*
X102850000Y-94900000D01*
X102850000Y-94900000D02*
X103800000Y-94900000D01*
X103800000Y-94900000D02*
X103820000Y-94970000D01*
X103820000Y-94970000D02*
X103820000Y-95290000D01*
X103820000Y-95290000D02*
X103760000Y-95370000D01*
X103760000Y-95370000D02*
X103710000Y-95430000D01*
X103710000Y-95430000D02*
X103660000Y-95460000D01*
X103660000Y-95460000D02*
X104070000Y-96460000D01*
X104070000Y-96460000D02*
X104070000Y-92400000D01*
X104070000Y-92400000D02*
X104070000Y-92370000D01*
X104070000Y-92370000D02*
X104070000Y-92370000D01*
G36*
X104070000Y-92050000D02*
G01*
X104070000Y-96460000D01*
X103660000Y-95460000D01*
X103710000Y-95430000D01*
X103760000Y-95370000D01*
X103820000Y-95290000D01*
X103820000Y-94970000D01*
X103800000Y-94900000D01*
X102850000Y-94900000D01*
X102770000Y-94910000D01*
X102750000Y-95010000D01*
X102750000Y-95250000D01*
X102780000Y-95330000D01*
X102840000Y-95400000D01*
X102890000Y-95450000D01*
X102950000Y-95480000D01*
X103020000Y-95500000D01*
X103100000Y-95500000D01*
X103170000Y-95510000D01*
X103210000Y-95750000D01*
X103130000Y-95750000D01*
X103060000Y-95760000D01*
X102980000Y-95770000D01*
X102910000Y-95800000D01*
X102860000Y-95840000D01*
X102810000Y-95890000D01*
X102750000Y-95980000D01*
X102750000Y-96110000D01*
X102780000Y-96190000D01*
X102830000Y-96260000D01*
X102880000Y-96310000D01*
X102940000Y-96340000D01*
X103020000Y-96360000D01*
X103090000Y-96370000D01*
X103170000Y-96370000D01*
X103250000Y-96380000D01*
X103350000Y-96370000D01*
X103500000Y-96370000D01*
X103660000Y-96330000D01*
X103710000Y-96300000D01*
X103760000Y-96240000D01*
X103810000Y-96160000D01*
X103820000Y-96080000D01*
X103820000Y-96000000D01*
X103790000Y-95920000D01*
X103730000Y-95850000D01*
X103680000Y-95810000D01*
X103620000Y-95780000D01*
X103540000Y-95760000D01*
X103470000Y-95750000D01*
X103210000Y-95750000D01*
X103180000Y-95510000D01*
X103360000Y-95510000D01*
X103510000Y-95500000D01*
X103590000Y-95490000D01*
X103650000Y-95460000D01*
X104070000Y-96460000D01*
X104060000Y-96540000D01*
X104060000Y-96620000D01*
X104040000Y-96690000D01*
X104020000Y-96770000D01*
X103990000Y-96840000D01*
X103950000Y-96910000D01*
X103900000Y-96980000D01*
X103850000Y-97040000D01*
X103790000Y-97100000D01*
X103730000Y-97140000D01*
X103660000Y-97190000D01*
X103520000Y-97250000D01*
X103360000Y-97290000D01*
X103200000Y-97290000D01*
X103120000Y-97280000D01*
X103050000Y-97260000D01*
X102970000Y-97230000D01*
X102900000Y-97200000D01*
X102830000Y-97160000D01*
X102710000Y-97060000D01*
X102650000Y-97000000D01*
X102610000Y-96930000D01*
X102570000Y-96870000D01*
X102530000Y-96790000D01*
X102510000Y-96720000D01*
X102490000Y-96640000D01*
X102470000Y-96480000D01*
X102470000Y-92020000D01*
X102530000Y-92000000D01*
X104040000Y-92000000D01*
X104070000Y-92050000D01*
G37*
X104070000Y-92050000D02*
X104070000Y-96460000D01*
X103660000Y-95460000D01*
X103710000Y-95430000D01*
X103760000Y-95370000D01*
X103820000Y-95290000D01*
X103820000Y-94970000D01*
X103800000Y-94900000D01*
X102850000Y-94900000D01*
X102770000Y-94910000D01*
X102750000Y-95010000D01*
X102750000Y-95250000D01*
X102780000Y-95330000D01*
X102840000Y-95400000D01*
X102890000Y-95450000D01*
X102950000Y-95480000D01*
X103020000Y-95500000D01*
X103100000Y-95500000D01*
X103170000Y-95510000D01*
X103210000Y-95750000D01*
X103130000Y-95750000D01*
X103060000Y-95760000D01*
X102980000Y-95770000D01*
X102910000Y-95800000D01*
X102860000Y-95840000D01*
X102810000Y-95890000D01*
X102750000Y-95980000D01*
X102750000Y-96110000D01*
X102780000Y-96190000D01*
X102830000Y-96260000D01*
X102880000Y-96310000D01*
X102940000Y-96340000D01*
X103020000Y-96360000D01*
X103090000Y-96370000D01*
X103170000Y-96370000D01*
X103250000Y-96380000D01*
X103350000Y-96370000D01*
X103500000Y-96370000D01*
X103660000Y-96330000D01*
X103710000Y-96300000D01*
X103760000Y-96240000D01*
X103810000Y-96160000D01*
X103820000Y-96080000D01*
X103820000Y-96000000D01*
X103790000Y-95920000D01*
X103730000Y-95850000D01*
X103680000Y-95810000D01*
X103620000Y-95780000D01*
X103540000Y-95760000D01*
X103470000Y-95750000D01*
X103210000Y-95750000D01*
X103180000Y-95510000D01*
X103360000Y-95510000D01*
X103510000Y-95500000D01*
X103590000Y-95490000D01*
X103650000Y-95460000D01*
X104070000Y-96460000D01*
X104060000Y-96540000D01*
X104060000Y-96620000D01*
X104040000Y-96690000D01*
X104020000Y-96770000D01*
X103990000Y-96840000D01*
X103950000Y-96910000D01*
X103900000Y-96980000D01*
X103850000Y-97040000D01*
X103790000Y-97100000D01*
X103730000Y-97140000D01*
X103660000Y-97190000D01*
X103520000Y-97250000D01*
X103360000Y-97290000D01*
X103200000Y-97290000D01*
X103120000Y-97280000D01*
X103050000Y-97260000D01*
X102970000Y-97230000D01*
X102900000Y-97200000D01*
X102830000Y-97160000D01*
X102710000Y-97060000D01*
X102650000Y-97000000D01*
X102610000Y-96930000D01*
X102570000Y-96870000D01*
X102530000Y-96790000D01*
X102510000Y-96720000D01*
X102490000Y-96640000D01*
X102470000Y-96480000D01*
X102470000Y-92020000D01*
X102530000Y-92000000D01*
X104040000Y-92000000D01*
X104070000Y-92050000D01*
X100350000Y-96250000D02*
X100420000Y-96280000D01*
X100420000Y-96280000D02*
X100500000Y-96300000D01*
X100500000Y-96300000D02*
X100570000Y-96310000D01*
X100570000Y-96310000D02*
X100640000Y-96310000D01*
X100640000Y-96310000D02*
X100740000Y-96310000D01*
X100740000Y-96310000D02*
X100840000Y-96310000D01*
X100840000Y-96310000D02*
X100920000Y-96310000D01*
X100920000Y-96310000D02*
X100980000Y-96300000D01*
X100980000Y-96300000D02*
X101060000Y-96290000D01*
X101060000Y-96290000D02*
X101130000Y-96250000D01*
X101130000Y-96250000D02*
X101170000Y-96200000D01*
X101170000Y-96200000D02*
X101170000Y-96040000D01*
X101170000Y-96040000D02*
X101100000Y-96000000D01*
X101100000Y-96000000D02*
X101030000Y-95980000D01*
X101030000Y-95980000D02*
X100960000Y-95960000D01*
X100960000Y-95960000D02*
X100890000Y-95960000D01*
X100890000Y-95960000D02*
X100800000Y-95950000D01*
X100800000Y-95950000D02*
X100700000Y-95950000D01*
X100700000Y-95950000D02*
X100610000Y-95960000D01*
X100610000Y-95960000D02*
X100550000Y-95960000D01*
X100550000Y-95960000D02*
X100470000Y-95970000D01*
X100470000Y-95970000D02*
X100400000Y-96000000D01*
X100400000Y-96000000D02*
X100330000Y-96030000D01*
X100330000Y-96030000D02*
X100320000Y-96110000D01*
X100320000Y-96110000D02*
X100320000Y-96190000D01*
X100320000Y-96190000D02*
X100350000Y-96250000D01*
X100350000Y-96250000D02*
X100350000Y-96250000D01*
G36*
X100890000Y-95960000D02*
G01*
X100960000Y-95960000D01*
X101100000Y-96000000D01*
X101170000Y-96040000D01*
X101170000Y-96200000D01*
X101130000Y-96250000D01*
X101060000Y-96290000D01*
X100980000Y-96300000D01*
X100920000Y-96310000D01*
X100570000Y-96310000D01*
X100500000Y-96300000D01*
X100420000Y-96280000D01*
X100350000Y-96250000D01*
X100320000Y-96190000D01*
X100320000Y-96110000D01*
X100330000Y-96030000D01*
X100470000Y-95970000D01*
X100550000Y-95960000D01*
X100610000Y-95960000D01*
X100700000Y-95950000D01*
X100800000Y-95950000D01*
X100890000Y-95960000D01*
G37*
X100890000Y-95960000D02*
X100960000Y-95960000D01*
X101100000Y-96000000D01*
X101170000Y-96040000D01*
X101170000Y-96200000D01*
X101130000Y-96250000D01*
X101060000Y-96290000D01*
X100980000Y-96300000D01*
X100920000Y-96310000D01*
X100570000Y-96310000D01*
X100500000Y-96300000D01*
X100420000Y-96280000D01*
X100350000Y-96250000D01*
X100320000Y-96190000D01*
X100320000Y-96110000D01*
X100330000Y-96030000D01*
X100470000Y-95970000D01*
X100550000Y-95960000D01*
X100610000Y-95960000D01*
X100700000Y-95950000D01*
X100800000Y-95950000D01*
X100890000Y-95960000D01*
X100460000Y-95350000D02*
X100540000Y-95340000D01*
X100540000Y-95340000D02*
X101010000Y-95260000D01*
X101010000Y-95260000D02*
X100990000Y-95230000D01*
X100990000Y-95230000D02*
X100510000Y-95160000D01*
X100510000Y-95160000D02*
X100460000Y-95170000D01*
X100460000Y-95170000D02*
X100460000Y-95330000D01*
X100460000Y-95330000D02*
X100460000Y-95350000D01*
X100460000Y-95350000D02*
X100460000Y-95350000D01*
G36*
X100990000Y-95230000D02*
G01*
X101010000Y-95260000D01*
X100540000Y-95340000D01*
X100460000Y-95350000D01*
X100460000Y-95170000D01*
X100510000Y-95160000D01*
X100990000Y-95230000D01*
G37*
X100990000Y-95230000D02*
X101010000Y-95260000D01*
X100540000Y-95340000D01*
X100460000Y-95350000D01*
X100460000Y-95170000D01*
X100510000Y-95160000D01*
X100990000Y-95230000D01*
X101530000Y-92320000D02*
X101530000Y-92000000D01*
X101530000Y-92000000D02*
X100010000Y-92000000D01*
X100010000Y-92000000D02*
X99930000Y-92000000D01*
X99930000Y-92000000D02*
X99930000Y-96540000D01*
X99930000Y-96540000D02*
X100220000Y-95580000D01*
X100220000Y-95580000D02*
X100210000Y-95510000D01*
X100210000Y-95510000D02*
X100240000Y-95440000D01*
X100240000Y-95440000D02*
X100310000Y-95400000D01*
X100310000Y-95400000D02*
X100330000Y-95330000D01*
X100330000Y-95330000D02*
X100330000Y-95170000D01*
X100330000Y-95170000D02*
X100310000Y-95100000D01*
X100310000Y-95100000D02*
X100250000Y-95050000D01*
X100250000Y-95050000D02*
X100210000Y-95000000D01*
X100210000Y-95000000D02*
X100230000Y-94910000D01*
X100230000Y-94910000D02*
X100310000Y-94920000D01*
X100310000Y-94920000D02*
X101240000Y-95170000D01*
X101240000Y-95170000D02*
X101280000Y-95220000D01*
X101280000Y-95220000D02*
X101280000Y-95300000D01*
X101280000Y-95300000D02*
X101220000Y-95330000D01*
X101220000Y-95330000D02*
X100300000Y-95580000D01*
X100300000Y-95580000D02*
X100440000Y-95840000D01*
X100440000Y-95840000D02*
X100520000Y-95830000D01*
X100520000Y-95830000D02*
X100590000Y-95820000D01*
X100590000Y-95820000D02*
X100670000Y-95820000D01*
X100670000Y-95820000D02*
X100760000Y-95820000D01*
X100760000Y-95820000D02*
X100850000Y-95820000D01*
X100850000Y-95820000D02*
X100930000Y-95820000D01*
X100930000Y-95820000D02*
X101000000Y-95830000D01*
X101000000Y-95830000D02*
X101080000Y-95850000D01*
X101080000Y-95850000D02*
X101140000Y-95890000D01*
X101140000Y-95890000D02*
X101190000Y-95920000D01*
X101190000Y-95920000D02*
X101250000Y-95990000D01*
X101250000Y-95990000D02*
X101280000Y-96080000D01*
X101280000Y-96080000D02*
X101280000Y-96160000D01*
X101280000Y-96160000D02*
X101270000Y-96240000D01*
X101270000Y-96240000D02*
X101220000Y-96310000D01*
X101220000Y-96310000D02*
X101170000Y-96370000D01*
X101170000Y-96370000D02*
X101110000Y-96400000D01*
X101110000Y-96400000D02*
X101040000Y-96430000D01*
X101040000Y-96430000D02*
X100960000Y-96440000D01*
X100960000Y-96440000D02*
X100890000Y-96440000D01*
X100890000Y-96440000D02*
X100810000Y-96450000D01*
X100810000Y-96450000D02*
X100710000Y-96450000D01*
X100710000Y-96450000D02*
X100630000Y-96440000D01*
X100630000Y-96440000D02*
X100550000Y-96440000D01*
X100550000Y-96440000D02*
X100480000Y-96430000D01*
X100480000Y-96430000D02*
X100400000Y-96410000D01*
X100400000Y-96410000D02*
X100340000Y-96380000D01*
X100340000Y-96380000D02*
X100290000Y-96330000D01*
X100290000Y-96330000D02*
X100240000Y-96260000D01*
X100240000Y-96260000D02*
X100210000Y-96180000D01*
X100210000Y-96180000D02*
X100210000Y-96100000D01*
X100210000Y-96100000D02*
X100210000Y-96050000D01*
X100210000Y-96050000D02*
X100270000Y-95970000D01*
X100270000Y-95970000D02*
X100320000Y-95910000D01*
X100320000Y-95910000D02*
X100370000Y-95870000D01*
X100370000Y-95870000D02*
X100440000Y-95850000D01*
X100440000Y-95850000D02*
X100300000Y-95580000D01*
X100300000Y-95580000D02*
X100220000Y-95580000D01*
X100220000Y-95580000D02*
X99930000Y-96540000D01*
X99930000Y-96540000D02*
X99940000Y-96620000D01*
X99940000Y-96620000D02*
X99950000Y-96700000D01*
X99950000Y-96700000D02*
X99960000Y-96780000D01*
X99960000Y-96780000D02*
X99990000Y-96850000D01*
X99990000Y-96850000D02*
X100020000Y-96930000D01*
X100020000Y-96930000D02*
X100060000Y-97000000D01*
X100060000Y-97000000D02*
X100110000Y-97060000D01*
X100110000Y-97060000D02*
X100160000Y-97120000D01*
X100160000Y-97120000D02*
X100220000Y-97180000D01*
X100220000Y-97180000D02*
X100280000Y-97220000D01*
X100280000Y-97220000D02*
X100350000Y-97260000D01*
X100350000Y-97260000D02*
X100420000Y-97300000D01*
X100420000Y-97300000D02*
X100500000Y-97330000D01*
X100500000Y-97330000D02*
X100570000Y-97350000D01*
X100570000Y-97350000D02*
X100650000Y-97360000D01*
X100650000Y-97360000D02*
X100730000Y-97360000D01*
X100730000Y-97360000D02*
X100810000Y-97360000D01*
X100810000Y-97360000D02*
X100890000Y-97350000D01*
X100890000Y-97350000D02*
X100970000Y-97330000D01*
X100970000Y-97330000D02*
X101040000Y-97300000D01*
X101040000Y-97300000D02*
X101110000Y-97260000D01*
X101110000Y-97260000D02*
X101180000Y-97220000D01*
X101180000Y-97220000D02*
X101240000Y-97170000D01*
X101240000Y-97170000D02*
X101300000Y-97120000D01*
X101300000Y-97120000D02*
X101350000Y-97060000D01*
X101350000Y-97060000D02*
X101400000Y-96990000D01*
X101400000Y-96990000D02*
X101440000Y-96930000D01*
X101440000Y-96930000D02*
X101470000Y-96850000D01*
X101470000Y-96850000D02*
X101500000Y-96780000D01*
X101500000Y-96780000D02*
X101510000Y-96700000D01*
X101510000Y-96700000D02*
X101520000Y-96620000D01*
X101520000Y-96620000D02*
X101530000Y-96540000D01*
X101530000Y-96540000D02*
X101530000Y-92400000D01*
X101530000Y-92400000D02*
X101530000Y-92320000D01*
X101530000Y-92320000D02*
X101530000Y-92320000D01*
G36*
X101530000Y-92000000D02*
G01*
X101530000Y-96540000D01*
X101500000Y-96780000D01*
X101470000Y-96850000D01*
X101440000Y-96930000D01*
X101400000Y-96990000D01*
X101350000Y-97060000D01*
X101300000Y-97120000D01*
X101180000Y-97220000D01*
X101040000Y-97300000D01*
X100970000Y-97330000D01*
X100890000Y-97350000D01*
X100810000Y-97360000D01*
X100650000Y-97360000D01*
X100570000Y-97350000D01*
X100500000Y-97330000D01*
X100420000Y-97300000D01*
X100280000Y-97220000D01*
X100220000Y-97180000D01*
X100160000Y-97120000D01*
X100060000Y-97000000D01*
X100020000Y-96930000D01*
X99990000Y-96850000D01*
X99960000Y-96780000D01*
X99930000Y-96540000D01*
X99930000Y-95000000D01*
X100210000Y-95000000D01*
X100250000Y-95050000D01*
X100310000Y-95100000D01*
X100330000Y-95170000D01*
X100330000Y-95330000D01*
X100310000Y-95400000D01*
X100240000Y-95440000D01*
X100210000Y-95510000D01*
X100220000Y-95580000D01*
X100300000Y-95580000D01*
X100440000Y-95850000D01*
X100370000Y-95870000D01*
X100320000Y-95910000D01*
X100270000Y-95970000D01*
X100210000Y-96050000D01*
X100210000Y-96180000D01*
X100240000Y-96260000D01*
X100290000Y-96330000D01*
X100340000Y-96380000D01*
X100400000Y-96410000D01*
X100480000Y-96430000D01*
X100550000Y-96440000D01*
X100630000Y-96440000D01*
X100710000Y-96450000D01*
X100810000Y-96450000D01*
X100890000Y-96440000D01*
X100960000Y-96440000D01*
X101040000Y-96430000D01*
X101110000Y-96400000D01*
X101170000Y-96370000D01*
X101220000Y-96310000D01*
X101270000Y-96240000D01*
X101280000Y-96160000D01*
X101280000Y-96080000D01*
X101250000Y-95990000D01*
X101190000Y-95920000D01*
X101140000Y-95890000D01*
X101080000Y-95850000D01*
X101000000Y-95830000D01*
X100930000Y-95820000D01*
X100590000Y-95820000D01*
X100520000Y-95830000D01*
X100440000Y-95840000D01*
X100300000Y-95580000D01*
X101220000Y-95330000D01*
X101280000Y-95300000D01*
X101280000Y-95220000D01*
X101240000Y-95170000D01*
X100310000Y-94920000D01*
X100230000Y-94910000D01*
X100210000Y-95000000D01*
X99930000Y-95000000D01*
X99930000Y-92000000D01*
X101530000Y-92000000D01*
G37*
X101530000Y-92000000D02*
X101530000Y-96540000D01*
X101500000Y-96780000D01*
X101470000Y-96850000D01*
X101440000Y-96930000D01*
X101400000Y-96990000D01*
X101350000Y-97060000D01*
X101300000Y-97120000D01*
X101180000Y-97220000D01*
X101040000Y-97300000D01*
X100970000Y-97330000D01*
X100890000Y-97350000D01*
X100810000Y-97360000D01*
X100650000Y-97360000D01*
X100570000Y-97350000D01*
X100500000Y-97330000D01*
X100420000Y-97300000D01*
X100280000Y-97220000D01*
X100220000Y-97180000D01*
X100160000Y-97120000D01*
X100060000Y-97000000D01*
X100020000Y-96930000D01*
X99990000Y-96850000D01*
X99960000Y-96780000D01*
X99930000Y-96540000D01*
X99930000Y-95000000D01*
X100210000Y-95000000D01*
X100250000Y-95050000D01*
X100310000Y-95100000D01*
X100330000Y-95170000D01*
X100330000Y-95330000D01*
X100310000Y-95400000D01*
X100240000Y-95440000D01*
X100210000Y-95510000D01*
X100220000Y-95580000D01*
X100300000Y-95580000D01*
X100440000Y-95850000D01*
X100370000Y-95870000D01*
X100320000Y-95910000D01*
X100270000Y-95970000D01*
X100210000Y-96050000D01*
X100210000Y-96180000D01*
X100240000Y-96260000D01*
X100290000Y-96330000D01*
X100340000Y-96380000D01*
X100400000Y-96410000D01*
X100480000Y-96430000D01*
X100550000Y-96440000D01*
X100630000Y-96440000D01*
X100710000Y-96450000D01*
X100810000Y-96450000D01*
X100890000Y-96440000D01*
X100960000Y-96440000D01*
X101040000Y-96430000D01*
X101110000Y-96400000D01*
X101170000Y-96370000D01*
X101220000Y-96310000D01*
X101270000Y-96240000D01*
X101280000Y-96160000D01*
X101280000Y-96080000D01*
X101250000Y-95990000D01*
X101190000Y-95920000D01*
X101140000Y-95890000D01*
X101080000Y-95850000D01*
X101000000Y-95830000D01*
X100930000Y-95820000D01*
X100590000Y-95820000D01*
X100520000Y-95830000D01*
X100440000Y-95840000D01*
X100300000Y-95580000D01*
X101220000Y-95330000D01*
X101280000Y-95300000D01*
X101280000Y-95220000D01*
X101240000Y-95170000D01*
X100310000Y-94920000D01*
X100230000Y-94910000D01*
X100210000Y-95000000D01*
X99930000Y-95000000D01*
X99930000Y-92000000D01*
X101530000Y-92000000D01*
X97800000Y-96960000D02*
X97860000Y-97030000D01*
X97860000Y-97030000D02*
X97910000Y-97070000D01*
X97910000Y-97070000D02*
X97990000Y-97090000D01*
X97990000Y-97090000D02*
X98060000Y-97090000D01*
X98060000Y-97090000D02*
X98140000Y-97090000D01*
X98140000Y-97090000D02*
X98320000Y-97090000D01*
X98320000Y-97090000D02*
X98390000Y-97090000D01*
X98390000Y-97090000D02*
X98480000Y-97080000D01*
X98480000Y-97080000D02*
X98530000Y-97050000D01*
X98530000Y-97050000D02*
X98590000Y-97000000D01*
X98590000Y-97000000D02*
X98610000Y-96920000D01*
X98610000Y-96920000D02*
X98610000Y-96760000D01*
X98610000Y-96760000D02*
X97820000Y-96760000D01*
X97820000Y-96760000D02*
X97800000Y-96820000D01*
X97800000Y-96820000D02*
X97800000Y-96900000D01*
X97800000Y-96900000D02*
X97800000Y-96960000D01*
X97800000Y-96960000D02*
X97800000Y-96960000D01*
G36*
X98610000Y-96920000D02*
G01*
X98590000Y-97000000D01*
X98530000Y-97050000D01*
X98480000Y-97080000D01*
X98390000Y-97090000D01*
X97990000Y-97090000D01*
X97910000Y-97070000D01*
X97860000Y-97030000D01*
X97800000Y-96960000D01*
X97800000Y-96820000D01*
X97820000Y-96760000D01*
X98610000Y-96760000D01*
X98610000Y-96920000D01*
G37*
X98610000Y-96920000D02*
X98590000Y-97000000D01*
X98530000Y-97050000D01*
X98480000Y-97080000D01*
X98390000Y-97090000D01*
X97990000Y-97090000D01*
X97910000Y-97070000D01*
X97860000Y-97030000D01*
X97800000Y-96960000D01*
X97800000Y-96820000D01*
X97820000Y-96760000D01*
X98610000Y-96760000D01*
X98610000Y-96920000D01*
X98990000Y-92360000D02*
X98990000Y-92040000D01*
X98990000Y-92040000D02*
X98950000Y-92000000D01*
X98950000Y-92000000D02*
X97440000Y-92000000D01*
X97440000Y-92000000D02*
X97390000Y-92030000D01*
X97390000Y-92030000D02*
X97390000Y-97680000D01*
X97390000Y-97680000D02*
X97910000Y-95540000D01*
X97910000Y-95540000D02*
X97840000Y-95520000D01*
X97840000Y-95520000D02*
X97750000Y-95790000D01*
X97750000Y-95790000D02*
X98710000Y-95790000D01*
X98710000Y-95790000D02*
X98740000Y-95840000D01*
X98740000Y-95840000D02*
X98740000Y-95920000D01*
X98740000Y-95920000D02*
X98700000Y-95970000D01*
X98700000Y-95970000D02*
X97950000Y-96240000D01*
X97950000Y-96240000D02*
X97960000Y-96260000D01*
X97960000Y-96260000D02*
X98680000Y-96260000D01*
X98680000Y-96260000D02*
X98740000Y-96280000D01*
X98740000Y-96280000D02*
X98740000Y-96360000D01*
X98740000Y-96360000D02*
X98680000Y-96380000D01*
X98680000Y-96380000D02*
X98690000Y-96620000D01*
X98690000Y-96620000D02*
X98740000Y-96660000D01*
X98740000Y-96660000D02*
X98740000Y-96980000D01*
X98740000Y-96980000D02*
X98710000Y-97060000D01*
X98710000Y-97060000D02*
X98650000Y-97120000D01*
X98650000Y-97120000D02*
X98600000Y-97170000D01*
X98600000Y-97170000D02*
X98540000Y-97200000D01*
X98540000Y-97200000D02*
X98470000Y-97220000D01*
X98470000Y-97220000D02*
X98390000Y-97220000D01*
X98390000Y-97220000D02*
X98320000Y-97230000D01*
X98320000Y-97230000D02*
X98130000Y-97230000D01*
X98130000Y-97230000D02*
X97980000Y-97220000D01*
X97980000Y-97220000D02*
X97900000Y-97210000D01*
X97900000Y-97210000D02*
X97840000Y-97180000D01*
X97840000Y-97180000D02*
X97780000Y-97150000D01*
X97780000Y-97150000D02*
X97730000Y-97090000D01*
X97730000Y-97090000D02*
X97670000Y-97010000D01*
X97670000Y-97010000D02*
X97670000Y-96690000D01*
X97670000Y-96690000D02*
X97670000Y-96650000D01*
X97670000Y-96650000D02*
X97730000Y-96620000D01*
X97730000Y-96620000D02*
X98690000Y-96620000D01*
X98690000Y-96620000D02*
X98670000Y-96380000D01*
X98670000Y-96380000D02*
X97720000Y-96380000D01*
X97720000Y-96380000D02*
X97670000Y-96340000D01*
X97670000Y-96340000D02*
X97670000Y-96260000D01*
X97670000Y-96260000D02*
X97710000Y-96200000D01*
X97710000Y-96200000D02*
X98460000Y-95940000D01*
X98460000Y-95940000D02*
X98440000Y-95920000D01*
X98440000Y-95920000D02*
X97720000Y-95920000D01*
X97720000Y-95920000D02*
X97670000Y-95880000D01*
X97670000Y-95880000D02*
X97680000Y-95800000D01*
X97680000Y-95800000D02*
X97750000Y-95790000D01*
X97750000Y-95790000D02*
X97840000Y-95520000D01*
X97840000Y-95520000D02*
X97790000Y-95480000D01*
X97790000Y-95480000D02*
X97730000Y-95420000D01*
X97730000Y-95420000D02*
X97680000Y-95350000D01*
X97680000Y-95350000D02*
X97670000Y-95260000D01*
X97670000Y-95260000D02*
X97670000Y-95180000D01*
X97670000Y-95180000D02*
X97730000Y-95060000D01*
X97730000Y-95060000D02*
X97780000Y-95000000D01*
X97780000Y-95000000D02*
X97830000Y-94960000D01*
X97830000Y-94960000D02*
X97900000Y-94940000D01*
X97900000Y-94940000D02*
X97980000Y-94920000D01*
X97980000Y-94920000D02*
X98050000Y-94910000D01*
X98050000Y-94910000D02*
X98120000Y-94910000D01*
X98120000Y-94910000D02*
X98310000Y-94910000D01*
X98310000Y-94910000D02*
X98380000Y-94920000D01*
X98380000Y-94920000D02*
X98450000Y-94920000D01*
X98450000Y-94920000D02*
X98530000Y-94940000D01*
X98530000Y-94940000D02*
X98590000Y-94970000D01*
X98590000Y-94970000D02*
X98640000Y-95010000D01*
X98640000Y-95010000D02*
X98700000Y-95080000D01*
X98700000Y-95080000D02*
X98740000Y-95160000D01*
X98740000Y-95160000D02*
X98740000Y-95320000D01*
X98740000Y-95320000D02*
X98730000Y-95400000D01*
X98730000Y-95400000D02*
X98660000Y-95460000D01*
X98660000Y-95460000D02*
X98590000Y-95510000D01*
X98590000Y-95510000D02*
X98530000Y-95540000D01*
X98530000Y-95540000D02*
X98460000Y-95560000D01*
X98460000Y-95560000D02*
X98430000Y-95500000D01*
X98430000Y-95500000D02*
X98440000Y-95430000D01*
X98440000Y-95430000D02*
X98510000Y-95410000D01*
X98510000Y-95410000D02*
X98570000Y-95370000D01*
X98570000Y-95370000D02*
X98620000Y-95300000D01*
X98620000Y-95300000D02*
X98620000Y-95220000D01*
X98620000Y-95220000D02*
X98590000Y-95140000D01*
X98590000Y-95140000D02*
X98530000Y-95090000D01*
X98530000Y-95090000D02*
X98470000Y-95070000D01*
X98470000Y-95070000D02*
X98390000Y-95050000D01*
X98390000Y-95050000D02*
X98310000Y-95050000D01*
X98310000Y-95050000D02*
X98230000Y-95050000D01*
X98230000Y-95050000D02*
X98140000Y-95050000D01*
X98140000Y-95050000D02*
X98060000Y-95050000D01*
X98060000Y-95050000D02*
X97980000Y-95060000D01*
X97980000Y-95060000D02*
X97910000Y-95080000D01*
X97910000Y-95080000D02*
X97850000Y-95110000D01*
X97850000Y-95110000D02*
X97800000Y-95180000D01*
X97800000Y-95180000D02*
X97800000Y-95260000D01*
X97800000Y-95260000D02*
X97810000Y-95340000D01*
X97810000Y-95340000D02*
X97890000Y-95380000D01*
X97890000Y-95380000D02*
X97960000Y-95410000D01*
X97960000Y-95410000D02*
X98030000Y-95420000D01*
X98030000Y-95420000D02*
X98110000Y-95420000D01*
X98110000Y-95420000D02*
X98150000Y-95380000D01*
X98150000Y-95380000D02*
X98150000Y-95300000D01*
X98150000Y-95300000D02*
X98190000Y-95250000D01*
X98190000Y-95250000D02*
X98270000Y-95270000D01*
X98270000Y-95270000D02*
X98270000Y-95350000D01*
X98270000Y-95350000D02*
X98270000Y-95500000D01*
X98270000Y-95500000D02*
X98230000Y-95560000D01*
X98230000Y-95560000D02*
X97990000Y-95550000D01*
X97990000Y-95550000D02*
X97910000Y-95540000D01*
X97910000Y-95540000D02*
X97390000Y-97680000D01*
X97390000Y-97680000D02*
X97410000Y-97740000D01*
X97410000Y-97740000D02*
X98920000Y-97740000D01*
X98920000Y-97740000D02*
X98990000Y-97730000D01*
X98990000Y-97730000D02*
X98990000Y-92400000D01*
X98990000Y-92400000D02*
X98990000Y-92360000D01*
X98990000Y-92360000D02*
X98990000Y-92360000D01*
G36*
X97440000Y-92000000D02*
G01*
X98950000Y-92000000D01*
X98990000Y-92040000D01*
X98990000Y-97730000D01*
X98920000Y-97740000D01*
X97410000Y-97740000D01*
X97390000Y-97680000D01*
X97390000Y-96650000D01*
X97670000Y-96650000D01*
X97670000Y-97010000D01*
X97730000Y-97090000D01*
X97780000Y-97150000D01*
X97900000Y-97210000D01*
X97980000Y-97220000D01*
X98130000Y-97230000D01*
X98320000Y-97230000D01*
X98390000Y-97220000D01*
X98470000Y-97220000D01*
X98540000Y-97200000D01*
X98600000Y-97170000D01*
X98710000Y-97060000D01*
X98740000Y-96980000D01*
X98740000Y-96660000D01*
X98690000Y-96620000D01*
X97730000Y-96620000D01*
X97670000Y-96650000D01*
X97390000Y-96650000D01*
X97390000Y-96260000D01*
X97670000Y-96260000D01*
X97670000Y-96340000D01*
X97708185Y-96370548D01*
X97720000Y-96380000D01*
X98670000Y-96380000D01*
X98690000Y-96620000D01*
X98680000Y-96380000D01*
X98740000Y-96360000D01*
X98740000Y-96280000D01*
X98680000Y-96260000D01*
X97960000Y-96260000D01*
X97950000Y-96240000D01*
X98700000Y-95970000D01*
X98740000Y-95920000D01*
X98740000Y-95840000D01*
X98710000Y-95790000D01*
X97849252Y-95790000D01*
X97817664Y-95920000D01*
X98440000Y-95920000D01*
X98460000Y-95940000D01*
X97753271Y-96184999D01*
X97708185Y-96370548D01*
X97753271Y-96184999D01*
X97710000Y-96200000D01*
X97670000Y-96260000D01*
X97390000Y-96260000D01*
X97390000Y-95880000D01*
X97670000Y-95880000D01*
X97720000Y-95920000D01*
X97817664Y-95920000D01*
X97849252Y-95790000D01*
X97750000Y-95790000D01*
X97680000Y-95800000D01*
X97670000Y-95880000D01*
X97390000Y-95880000D01*
X97390000Y-95180000D01*
X97670000Y-95180000D01*
X97670000Y-95260000D01*
X97680000Y-95350000D01*
X97730000Y-95420000D01*
X97790000Y-95480000D01*
X97840000Y-95520000D01*
X97910000Y-95540000D01*
X97990000Y-95550000D01*
X98230000Y-95560000D01*
X98270000Y-95500000D01*
X98270000Y-95270000D01*
X98190000Y-95250000D01*
X98150000Y-95300000D01*
X98150000Y-95380000D01*
X98110000Y-95420000D01*
X98030000Y-95420000D01*
X97960000Y-95410000D01*
X97890000Y-95380000D01*
X97810000Y-95340000D01*
X97800000Y-95260000D01*
X97800000Y-95180000D01*
X97850000Y-95110000D01*
X97910000Y-95080000D01*
X97980000Y-95060000D01*
X98060000Y-95050000D01*
X98390000Y-95050000D01*
X98470000Y-95070000D01*
X98530000Y-95090000D01*
X98590000Y-95140000D01*
X98620000Y-95220000D01*
X98620000Y-95300000D01*
X98570000Y-95370000D01*
X98510000Y-95410000D01*
X98440000Y-95430000D01*
X98430000Y-95500000D01*
X98460000Y-95560000D01*
X98530000Y-95540000D01*
X98590000Y-95510000D01*
X98660000Y-95460000D01*
X98730000Y-95400000D01*
X98740000Y-95320000D01*
X98740000Y-95160000D01*
X98700000Y-95080000D01*
X98640000Y-95010000D01*
X98590000Y-94970000D01*
X98530000Y-94940000D01*
X98450000Y-94920000D01*
X98380000Y-94920000D01*
X98310000Y-94910000D01*
X98050000Y-94910000D01*
X97980000Y-94920000D01*
X97900000Y-94940000D01*
X97830000Y-94960000D01*
X97780000Y-95000000D01*
X97730000Y-95060000D01*
X97670000Y-95180000D01*
X97390000Y-95180000D01*
X97390000Y-92030000D01*
X97440000Y-92000000D01*
G37*
X97440000Y-92000000D02*
X98950000Y-92000000D01*
X98990000Y-92040000D01*
X98990000Y-97730000D01*
X98920000Y-97740000D01*
X97410000Y-97740000D01*
X97390000Y-97680000D01*
X97390000Y-96650000D01*
X97670000Y-96650000D01*
X97670000Y-97010000D01*
X97730000Y-97090000D01*
X97780000Y-97150000D01*
X97900000Y-97210000D01*
X97980000Y-97220000D01*
X98130000Y-97230000D01*
X98320000Y-97230000D01*
X98390000Y-97220000D01*
X98470000Y-97220000D01*
X98540000Y-97200000D01*
X98600000Y-97170000D01*
X98710000Y-97060000D01*
X98740000Y-96980000D01*
X98740000Y-96660000D01*
X98690000Y-96620000D01*
X97730000Y-96620000D01*
X97670000Y-96650000D01*
X97390000Y-96650000D01*
X97390000Y-96260000D01*
X97670000Y-96260000D01*
X97670000Y-96340000D01*
X97708185Y-96370548D01*
X97720000Y-96380000D01*
X98670000Y-96380000D01*
X98690000Y-96620000D01*
X98680000Y-96380000D01*
X98740000Y-96360000D01*
X98740000Y-96280000D01*
X98680000Y-96260000D01*
X97960000Y-96260000D01*
X97950000Y-96240000D01*
X98700000Y-95970000D01*
X98740000Y-95920000D01*
X98740000Y-95840000D01*
X98710000Y-95790000D01*
X97849252Y-95790000D01*
X97817664Y-95920000D01*
X98440000Y-95920000D01*
X98460000Y-95940000D01*
X97753271Y-96184999D01*
X97708185Y-96370548D01*
X97753271Y-96184999D01*
X97710000Y-96200000D01*
X97670000Y-96260000D01*
X97390000Y-96260000D01*
X97390000Y-95880000D01*
X97670000Y-95880000D01*
X97720000Y-95920000D01*
X97817664Y-95920000D01*
X97849252Y-95790000D01*
X97750000Y-95790000D01*
X97680000Y-95800000D01*
X97670000Y-95880000D01*
X97390000Y-95880000D01*
X97390000Y-95180000D01*
X97670000Y-95180000D01*
X97670000Y-95260000D01*
X97680000Y-95350000D01*
X97730000Y-95420000D01*
X97790000Y-95480000D01*
X97840000Y-95520000D01*
X97910000Y-95540000D01*
X97990000Y-95550000D01*
X98230000Y-95560000D01*
X98270000Y-95500000D01*
X98270000Y-95270000D01*
X98190000Y-95250000D01*
X98150000Y-95300000D01*
X98150000Y-95380000D01*
X98110000Y-95420000D01*
X98030000Y-95420000D01*
X97960000Y-95410000D01*
X97890000Y-95380000D01*
X97810000Y-95340000D01*
X97800000Y-95260000D01*
X97800000Y-95180000D01*
X97850000Y-95110000D01*
X97910000Y-95080000D01*
X97980000Y-95060000D01*
X98060000Y-95050000D01*
X98390000Y-95050000D01*
X98470000Y-95070000D01*
X98530000Y-95090000D01*
X98590000Y-95140000D01*
X98620000Y-95220000D01*
X98620000Y-95300000D01*
X98570000Y-95370000D01*
X98510000Y-95410000D01*
X98440000Y-95430000D01*
X98430000Y-95500000D01*
X98460000Y-95560000D01*
X98530000Y-95540000D01*
X98590000Y-95510000D01*
X98660000Y-95460000D01*
X98730000Y-95400000D01*
X98740000Y-95320000D01*
X98740000Y-95160000D01*
X98700000Y-95080000D01*
X98640000Y-95010000D01*
X98590000Y-94970000D01*
X98530000Y-94940000D01*
X98450000Y-94920000D01*
X98380000Y-94920000D01*
X98310000Y-94910000D01*
X98050000Y-94910000D01*
X97980000Y-94920000D01*
X97900000Y-94940000D01*
X97830000Y-94960000D01*
X97780000Y-95000000D01*
X97730000Y-95060000D01*
X97670000Y-95180000D01*
X97390000Y-95180000D01*
X97390000Y-92030000D01*
X97440000Y-92000000D01*
X109480000Y-105170000D02*
X109480000Y-105240000D01*
X109480000Y-105240000D02*
X109520000Y-105330000D01*
X109520000Y-105330000D02*
X109590000Y-105280000D01*
X109590000Y-105280000D02*
X109590000Y-105120000D01*
X109590000Y-105120000D02*
X109630000Y-105070000D01*
X109630000Y-105070000D02*
X109700000Y-105040000D01*
X109700000Y-105040000D02*
X109780000Y-105010000D01*
X109780000Y-105010000D02*
X109840000Y-105010000D01*
X109840000Y-105010000D02*
X109920000Y-105000000D01*
X109920000Y-105000000D02*
X110010000Y-105000000D01*
X110010000Y-105000000D02*
X110110000Y-105000000D01*
X110110000Y-105000000D02*
X110190000Y-105010000D01*
X110190000Y-105010000D02*
X110250000Y-105010000D01*
X110250000Y-105010000D02*
X110330000Y-105030000D01*
X110330000Y-105030000D02*
X110400000Y-105060000D01*
X110400000Y-105060000D02*
X110440000Y-105120000D01*
X110440000Y-105120000D02*
X110440000Y-105280000D01*
X110440000Y-105280000D02*
X110380000Y-105320000D01*
X110380000Y-105320000D02*
X110310000Y-105340000D01*
X110310000Y-105340000D02*
X110230000Y-105350000D01*
X110230000Y-105350000D02*
X110160000Y-105360000D01*
X110160000Y-105360000D02*
X110080000Y-105360000D01*
X110080000Y-105360000D02*
X109980000Y-105360000D01*
X109980000Y-105360000D02*
X109890000Y-105360000D01*
X109890000Y-105360000D02*
X109820000Y-105350000D01*
X109820000Y-105350000D02*
X109750000Y-105340000D01*
X109750000Y-105340000D02*
X109670000Y-105320000D01*
X109670000Y-105320000D02*
X109600000Y-105290000D01*
X109600000Y-105290000D02*
X109600000Y-105280000D01*
X109600000Y-105280000D02*
X109520000Y-105330000D01*
X109520000Y-105330000D02*
X109570000Y-105390000D01*
X109570000Y-105390000D02*
X109620000Y-105440000D01*
X109620000Y-105440000D02*
X109680000Y-105460000D01*
X109680000Y-105460000D02*
X109760000Y-105480000D01*
X109760000Y-105480000D02*
X109830000Y-105490000D01*
X109830000Y-105490000D02*
X109910000Y-105490000D01*
X109910000Y-105490000D02*
X110000000Y-105500000D01*
X110000000Y-105500000D02*
X110090000Y-105500000D01*
X110090000Y-105500000D02*
X110170000Y-105490000D01*
X110170000Y-105490000D02*
X110240000Y-105490000D01*
X110240000Y-105490000D02*
X110320000Y-105470000D01*
X110320000Y-105470000D02*
X110390000Y-105450000D01*
X110390000Y-105450000D02*
X110440000Y-105410000D01*
X110440000Y-105410000D02*
X110490000Y-105350000D01*
X110490000Y-105350000D02*
X110550000Y-105280000D01*
X110550000Y-105280000D02*
X110550000Y-105190000D01*
X110550000Y-105190000D02*
X110550000Y-105120000D01*
X110550000Y-105120000D02*
X110510000Y-105030000D01*
X110510000Y-105030000D02*
X110460000Y-104970000D01*
X110460000Y-104970000D02*
X110410000Y-104930000D01*
X110410000Y-104930000D02*
X110340000Y-104900000D01*
X110340000Y-104900000D02*
X110260000Y-104880000D01*
X110260000Y-104880000D02*
X110200000Y-104870000D01*
X110200000Y-104870000D02*
X110120000Y-104870000D01*
X110120000Y-104870000D02*
X110030000Y-104870000D01*
X110030000Y-104870000D02*
X109940000Y-104870000D01*
X109940000Y-104870000D02*
X109860000Y-104870000D01*
X109860000Y-104870000D02*
X109790000Y-104880000D01*
X109790000Y-104880000D02*
X109710000Y-104890000D01*
X109710000Y-104890000D02*
X109640000Y-104920000D01*
X109640000Y-104920000D02*
X109590000Y-104960000D01*
X109590000Y-104960000D02*
X109540000Y-105020000D01*
X109540000Y-105020000D02*
X109480000Y-105100000D01*
X109480000Y-105100000D02*
X109480000Y-105170000D01*
X109480000Y-105170000D02*
X109480000Y-105170000D01*
G36*
X110260000Y-104880000D02*
G01*
X110340000Y-104900000D01*
X110410000Y-104930000D01*
X110460000Y-104970000D01*
X110510000Y-105030000D01*
X110550000Y-105120000D01*
X110550000Y-105280000D01*
X110490000Y-105350000D01*
X110440000Y-105410000D01*
X110390000Y-105450000D01*
X110320000Y-105470000D01*
X110240000Y-105490000D01*
X110170000Y-105490000D01*
X110090000Y-105500000D01*
X110000000Y-105500000D01*
X109910000Y-105490000D01*
X109830000Y-105490000D01*
X109760000Y-105480000D01*
X109680000Y-105460000D01*
X109620000Y-105440000D01*
X109570000Y-105390000D01*
X109520000Y-105330000D01*
X109600000Y-105280000D01*
X109600000Y-105290000D01*
X109670000Y-105320000D01*
X109750000Y-105340000D01*
X109890000Y-105360000D01*
X110160000Y-105360000D01*
X110230000Y-105350000D01*
X110310000Y-105340000D01*
X110380000Y-105320000D01*
X110440000Y-105280000D01*
X110440000Y-105120000D01*
X110400000Y-105060000D01*
X110330000Y-105030000D01*
X110250000Y-105010000D01*
X110190000Y-105010000D01*
X110110000Y-105000000D01*
X109920000Y-105000000D01*
X109840000Y-105010000D01*
X109780000Y-105010000D01*
X109700000Y-105040000D01*
X109630000Y-105070000D01*
X109590000Y-105120000D01*
X109590000Y-105280000D01*
X109520000Y-105330000D01*
X109480000Y-105240000D01*
X109480000Y-105100000D01*
X109540000Y-105020000D01*
X109590000Y-104960000D01*
X109640000Y-104920000D01*
X109710000Y-104890000D01*
X109790000Y-104880000D01*
X109860000Y-104870000D01*
X110200000Y-104870000D01*
X110260000Y-104880000D01*
G37*
X110260000Y-104880000D02*
X110340000Y-104900000D01*
X110410000Y-104930000D01*
X110460000Y-104970000D01*
X110510000Y-105030000D01*
X110550000Y-105120000D01*
X110550000Y-105280000D01*
X110490000Y-105350000D01*
X110440000Y-105410000D01*
X110390000Y-105450000D01*
X110320000Y-105470000D01*
X110240000Y-105490000D01*
X110170000Y-105490000D01*
X110090000Y-105500000D01*
X110000000Y-105500000D01*
X109910000Y-105490000D01*
X109830000Y-105490000D01*
X109760000Y-105480000D01*
X109680000Y-105460000D01*
X109620000Y-105440000D01*
X109570000Y-105390000D01*
X109520000Y-105330000D01*
X109600000Y-105280000D01*
X109600000Y-105290000D01*
X109670000Y-105320000D01*
X109750000Y-105340000D01*
X109890000Y-105360000D01*
X110160000Y-105360000D01*
X110230000Y-105350000D01*
X110310000Y-105340000D01*
X110380000Y-105320000D01*
X110440000Y-105280000D01*
X110440000Y-105120000D01*
X110400000Y-105060000D01*
X110330000Y-105030000D01*
X110250000Y-105010000D01*
X110190000Y-105010000D01*
X110110000Y-105000000D01*
X109920000Y-105000000D01*
X109840000Y-105010000D01*
X109780000Y-105010000D01*
X109700000Y-105040000D01*
X109630000Y-105070000D01*
X109590000Y-105120000D01*
X109590000Y-105280000D01*
X109520000Y-105330000D01*
X109480000Y-105240000D01*
X109480000Y-105100000D01*
X109540000Y-105020000D01*
X109590000Y-104960000D01*
X109640000Y-104920000D01*
X109710000Y-104890000D01*
X109790000Y-104880000D01*
X109860000Y-104870000D01*
X110200000Y-104870000D01*
X110260000Y-104880000D01*
X109480000Y-104080000D02*
X109480000Y-104400000D01*
X109480000Y-104400000D02*
X109530000Y-104480000D01*
X109530000Y-104480000D02*
X109590000Y-104540000D01*
X109590000Y-104540000D02*
X109670000Y-104440000D01*
X109670000Y-104440000D02*
X109620000Y-104380000D01*
X109620000Y-104380000D02*
X109610000Y-104320000D01*
X109610000Y-104320000D02*
X109610000Y-104160000D01*
X109610000Y-104160000D02*
X110410000Y-104160000D01*
X110410000Y-104160000D02*
X110420000Y-104220000D01*
X110420000Y-104220000D02*
X110420000Y-104300000D01*
X110420000Y-104300000D02*
X110410000Y-104390000D01*
X110410000Y-104390000D02*
X110350000Y-104450000D01*
X110350000Y-104450000D02*
X110300000Y-104480000D01*
X110300000Y-104480000D02*
X110210000Y-104490000D01*
X110210000Y-104490000D02*
X110140000Y-104490000D01*
X110140000Y-104490000D02*
X109970000Y-104490000D01*
X109970000Y-104490000D02*
X109810000Y-104490000D01*
X109810000Y-104490000D02*
X109730000Y-104470000D01*
X109730000Y-104470000D02*
X109680000Y-104440000D01*
X109680000Y-104440000D02*
X109590000Y-104540000D01*
X109590000Y-104540000D02*
X109640000Y-104580000D01*
X109640000Y-104580000D02*
X109700000Y-104610000D01*
X109700000Y-104610000D02*
X109790000Y-104620000D01*
X109790000Y-104620000D02*
X109940000Y-104630000D01*
X109940000Y-104630000D02*
X110120000Y-104630000D01*
X110120000Y-104630000D02*
X110190000Y-104630000D01*
X110190000Y-104630000D02*
X110270000Y-104620000D01*
X110270000Y-104620000D02*
X110350000Y-104600000D01*
X110350000Y-104600000D02*
X110400000Y-104570000D01*
X110400000Y-104570000D02*
X110460000Y-104530000D01*
X110460000Y-104530000D02*
X110520000Y-104460000D01*
X110520000Y-104460000D02*
X110550000Y-104380000D01*
X110550000Y-104380000D02*
X110550000Y-104060000D01*
X110550000Y-104060000D02*
X110500000Y-104020000D01*
X110500000Y-104020000D02*
X109540000Y-104020000D01*
X109540000Y-104020000D02*
X109480000Y-104060000D01*
X109480000Y-104060000D02*
X109480000Y-104080000D01*
X109480000Y-104080000D02*
X109480000Y-104080000D01*
G36*
X110550000Y-104060000D02*
G01*
X110550000Y-104380000D01*
X110520000Y-104460000D01*
X110460000Y-104530000D01*
X110400000Y-104570000D01*
X110350000Y-104600000D01*
X110270000Y-104620000D01*
X110190000Y-104630000D01*
X109940000Y-104630000D01*
X109790000Y-104620000D01*
X109700000Y-104610000D01*
X109640000Y-104580000D01*
X109590000Y-104540000D01*
X109680000Y-104440000D01*
X109730000Y-104470000D01*
X109810000Y-104490000D01*
X110210000Y-104490000D01*
X110300000Y-104480000D01*
X110350000Y-104450000D01*
X110410000Y-104390000D01*
X110420000Y-104300000D01*
X110420000Y-104220000D01*
X110410000Y-104160000D01*
X109610000Y-104160000D01*
X109610000Y-104320000D01*
X109620000Y-104380000D01*
X109670000Y-104440000D01*
X109590000Y-104540000D01*
X109530000Y-104480000D01*
X109480000Y-104400000D01*
X109480000Y-104060000D01*
X109540000Y-104020000D01*
X110500000Y-104020000D01*
X110550000Y-104060000D01*
G37*
X110550000Y-104060000D02*
X110550000Y-104380000D01*
X110520000Y-104460000D01*
X110460000Y-104530000D01*
X110400000Y-104570000D01*
X110350000Y-104600000D01*
X110270000Y-104620000D01*
X110190000Y-104630000D01*
X109940000Y-104630000D01*
X109790000Y-104620000D01*
X109700000Y-104610000D01*
X109640000Y-104580000D01*
X109590000Y-104540000D01*
X109680000Y-104440000D01*
X109730000Y-104470000D01*
X109810000Y-104490000D01*
X110210000Y-104490000D01*
X110300000Y-104480000D01*
X110350000Y-104450000D01*
X110410000Y-104390000D01*
X110420000Y-104300000D01*
X110420000Y-104220000D01*
X110410000Y-104160000D01*
X109610000Y-104160000D01*
X109610000Y-104320000D01*
X109620000Y-104380000D01*
X109670000Y-104440000D01*
X109590000Y-104540000D01*
X109530000Y-104480000D01*
X109480000Y-104400000D01*
X109480000Y-104060000D01*
X109540000Y-104020000D01*
X110500000Y-104020000D01*
X110550000Y-104060000D01*
X96010000Y-107720000D02*
X96080000Y-107720000D01*
X96080000Y-107720000D02*
X96120000Y-107660000D01*
X96120000Y-107660000D02*
X96120000Y-106780000D01*
X96120000Y-106780000D02*
X96190000Y-106780000D01*
X96190000Y-106780000D02*
X96270000Y-106780000D01*
X96270000Y-106780000D02*
X96340000Y-106760000D01*
X96340000Y-106760000D02*
X96340000Y-106680000D01*
X96340000Y-106680000D02*
X96280000Y-106650000D01*
X96280000Y-106650000D02*
X95810000Y-106650000D01*
X95810000Y-106650000D02*
X95750000Y-106680000D01*
X95750000Y-106680000D02*
X95750000Y-106760000D01*
X95750000Y-106760000D02*
X95820000Y-106780000D01*
X95820000Y-106780000D02*
X95980000Y-106780000D01*
X95980000Y-106780000D02*
X95980000Y-106860000D01*
X95980000Y-106860000D02*
X95980000Y-107650000D01*
X95980000Y-107650000D02*
X96010000Y-107720000D01*
X96010000Y-107720000D02*
X96010000Y-107720000D01*
G36*
X96340000Y-106680000D02*
G01*
X96340000Y-106760000D01*
X96270000Y-106780000D01*
X96120000Y-106780000D01*
X96120000Y-107660000D01*
X96080000Y-107720000D01*
X96010000Y-107720000D01*
X95980000Y-107650000D01*
X95980000Y-106780000D01*
X95820000Y-106780000D01*
X95750000Y-106760000D01*
X95750000Y-106680000D01*
X95810000Y-106650000D01*
X96280000Y-106650000D01*
X96340000Y-106680000D01*
G37*
X96340000Y-106680000D02*
X96340000Y-106760000D01*
X96270000Y-106780000D01*
X96120000Y-106780000D01*
X96120000Y-107660000D01*
X96080000Y-107720000D01*
X96010000Y-107720000D01*
X95980000Y-107650000D01*
X95980000Y-106780000D01*
X95820000Y-106780000D01*
X95750000Y-106760000D01*
X95750000Y-106680000D01*
X95810000Y-106650000D01*
X96280000Y-106650000D01*
X96340000Y-106680000D01*
X95110000Y-107720000D02*
X95270000Y-107720000D01*
X95270000Y-107720000D02*
X95360000Y-107680000D01*
X95360000Y-107680000D02*
X95430000Y-107630000D01*
X95430000Y-107630000D02*
X95470000Y-107580000D01*
X95470000Y-107580000D02*
X95500000Y-107520000D01*
X95500000Y-107520000D02*
X95520000Y-107440000D01*
X95520000Y-107440000D02*
X95520000Y-107360000D01*
X95520000Y-107360000D02*
X95500000Y-107280000D01*
X95500000Y-107280000D02*
X95460000Y-107210000D01*
X95460000Y-107210000D02*
X95410000Y-107160000D01*
X95410000Y-107160000D02*
X95340000Y-107120000D01*
X95340000Y-107120000D02*
X95180000Y-107060000D01*
X95180000Y-107060000D02*
X95110000Y-107030000D01*
X95110000Y-107030000D02*
X95060000Y-106980000D01*
X95060000Y-106980000D02*
X95050000Y-106900000D01*
X95050000Y-106900000D02*
X95070000Y-106840000D01*
X95070000Y-106840000D02*
X95140000Y-106770000D01*
X95140000Y-106770000D02*
X95220000Y-106770000D01*
X95220000Y-106770000D02*
X95300000Y-106780000D01*
X95300000Y-106780000D02*
X95350000Y-106850000D01*
X95350000Y-106850000D02*
X95380000Y-106910000D01*
X95380000Y-106910000D02*
X95410000Y-106970000D01*
X95410000Y-106970000D02*
X95490000Y-106960000D01*
X95490000Y-106960000D02*
X95510000Y-106900000D01*
X95510000Y-106900000D02*
X95490000Y-106840000D01*
X95490000Y-106840000D02*
X95460000Y-106770000D01*
X95460000Y-106770000D02*
X95410000Y-106700000D01*
X95410000Y-106700000D02*
X95330000Y-106650000D01*
X95330000Y-106650000D02*
X95180000Y-106650000D01*
X95180000Y-106650000D02*
X95090000Y-106670000D01*
X95090000Y-106670000D02*
X95010000Y-106720000D01*
X95010000Y-106720000D02*
X94960000Y-106760000D01*
X94960000Y-106760000D02*
X94930000Y-106820000D01*
X94930000Y-106820000D02*
X94920000Y-106900000D01*
X94920000Y-106900000D02*
X94920000Y-106980000D01*
X94920000Y-106980000D02*
X94940000Y-107060000D01*
X94940000Y-107060000D02*
X94980000Y-107130000D01*
X94980000Y-107130000D02*
X95030000Y-107180000D01*
X95030000Y-107180000D02*
X95100000Y-107210000D01*
X95100000Y-107210000D02*
X95180000Y-107240000D01*
X95180000Y-107240000D02*
X95270000Y-107270000D01*
X95270000Y-107270000D02*
X95330000Y-107310000D01*
X95330000Y-107310000D02*
X95370000Y-107360000D01*
X95370000Y-107360000D02*
X95380000Y-107440000D01*
X95380000Y-107440000D02*
X95360000Y-107500000D01*
X95360000Y-107500000D02*
X95310000Y-107570000D01*
X95310000Y-107570000D02*
X95230000Y-107590000D01*
X95230000Y-107590000D02*
X95150000Y-107590000D01*
X95150000Y-107590000D02*
X95080000Y-107550000D01*
X95080000Y-107550000D02*
X95030000Y-107480000D01*
X95030000Y-107480000D02*
X95020000Y-107420000D01*
X95020000Y-107420000D02*
X94990000Y-107360000D01*
X94990000Y-107360000D02*
X94910000Y-107360000D01*
X94910000Y-107360000D02*
X94880000Y-107430000D01*
X94880000Y-107430000D02*
X94890000Y-107510000D01*
X94890000Y-107510000D02*
X94920000Y-107580000D01*
X94920000Y-107580000D02*
X94960000Y-107620000D01*
X94960000Y-107620000D02*
X95030000Y-107670000D01*
X95030000Y-107670000D02*
X95110000Y-107720000D01*
X95110000Y-107720000D02*
X95110000Y-107720000D01*
G36*
X95410000Y-106700000D02*
G01*
X95460000Y-106770000D01*
X95490000Y-106840000D01*
X95510000Y-106900000D01*
X95490000Y-106960000D01*
X95410000Y-106970000D01*
X95350000Y-106850000D01*
X95300000Y-106780000D01*
X95220000Y-106770000D01*
X95140000Y-106770000D01*
X95070000Y-106840000D01*
X95050000Y-106900000D01*
X95060000Y-106980000D01*
X95110000Y-107030000D01*
X95180000Y-107060000D01*
X95340000Y-107120000D01*
X95410000Y-107160000D01*
X95460000Y-107210000D01*
X95500000Y-107280000D01*
X95520000Y-107360000D01*
X95520000Y-107440000D01*
X95500000Y-107520000D01*
X95470000Y-107580000D01*
X95430000Y-107630000D01*
X95360000Y-107680000D01*
X95270000Y-107720000D01*
X95110000Y-107720000D01*
X95030000Y-107670000D01*
X94960000Y-107620000D01*
X94920000Y-107580000D01*
X94890000Y-107510000D01*
X94880000Y-107430000D01*
X94910000Y-107360000D01*
X94990000Y-107360000D01*
X95020000Y-107420000D01*
X95030000Y-107480000D01*
X95080000Y-107550000D01*
X95150000Y-107590000D01*
X95230000Y-107590000D01*
X95310000Y-107570000D01*
X95360000Y-107500000D01*
X95380000Y-107440000D01*
X95370000Y-107360000D01*
X95330000Y-107310000D01*
X95270000Y-107270000D01*
X95180000Y-107240000D01*
X95100000Y-107210000D01*
X95030000Y-107180000D01*
X94980000Y-107130000D01*
X94940000Y-107060000D01*
X94920000Y-106980000D01*
X94920000Y-106900000D01*
X94930000Y-106820000D01*
X94960000Y-106760000D01*
X95010000Y-106720000D01*
X95090000Y-106670000D01*
X95180000Y-106650000D01*
X95330000Y-106650000D01*
X95410000Y-106700000D01*
G37*
X95410000Y-106700000D02*
X95460000Y-106770000D01*
X95490000Y-106840000D01*
X95510000Y-106900000D01*
X95490000Y-106960000D01*
X95410000Y-106970000D01*
X95350000Y-106850000D01*
X95300000Y-106780000D01*
X95220000Y-106770000D01*
X95140000Y-106770000D01*
X95070000Y-106840000D01*
X95050000Y-106900000D01*
X95060000Y-106980000D01*
X95110000Y-107030000D01*
X95180000Y-107060000D01*
X95340000Y-107120000D01*
X95410000Y-107160000D01*
X95460000Y-107210000D01*
X95500000Y-107280000D01*
X95520000Y-107360000D01*
X95520000Y-107440000D01*
X95500000Y-107520000D01*
X95470000Y-107580000D01*
X95430000Y-107630000D01*
X95360000Y-107680000D01*
X95270000Y-107720000D01*
X95110000Y-107720000D01*
X95030000Y-107670000D01*
X94960000Y-107620000D01*
X94920000Y-107580000D01*
X94890000Y-107510000D01*
X94880000Y-107430000D01*
X94910000Y-107360000D01*
X94990000Y-107360000D01*
X95020000Y-107420000D01*
X95030000Y-107480000D01*
X95080000Y-107550000D01*
X95150000Y-107590000D01*
X95230000Y-107590000D01*
X95310000Y-107570000D01*
X95360000Y-107500000D01*
X95380000Y-107440000D01*
X95370000Y-107360000D01*
X95330000Y-107310000D01*
X95270000Y-107270000D01*
X95180000Y-107240000D01*
X95100000Y-107210000D01*
X95030000Y-107180000D01*
X94980000Y-107130000D01*
X94940000Y-107060000D01*
X94920000Y-106980000D01*
X94920000Y-106900000D01*
X94930000Y-106820000D01*
X94960000Y-106760000D01*
X95010000Y-106720000D01*
X95090000Y-106670000D01*
X95180000Y-106650000D01*
X95330000Y-106650000D01*
X95410000Y-106700000D01*
X94170000Y-107720000D02*
X94410000Y-107720000D01*
X94410000Y-107720000D02*
X94480000Y-107690000D01*
X94480000Y-107690000D02*
X94540000Y-107620000D01*
X94540000Y-107620000D02*
X94590000Y-107550000D01*
X94590000Y-107550000D02*
X94620000Y-107480000D01*
X94620000Y-107480000D02*
X94630000Y-107410000D01*
X94630000Y-107410000D02*
X94640000Y-107340000D01*
X94640000Y-107340000D02*
X94640000Y-106700000D01*
X94640000Y-106700000D02*
X94590000Y-106650000D01*
X94590000Y-106650000D02*
X94510000Y-106650000D01*
X94510000Y-106650000D02*
X94500000Y-106730000D01*
X94500000Y-106730000D02*
X94500000Y-107370000D01*
X94500000Y-107370000D02*
X94500000Y-107440000D01*
X94500000Y-107440000D02*
X94470000Y-107510000D01*
X94470000Y-107510000D02*
X94420000Y-107580000D01*
X94420000Y-107580000D02*
X94340000Y-107590000D01*
X94340000Y-107590000D02*
X94260000Y-107590000D01*
X94260000Y-107590000D02*
X94190000Y-107550000D01*
X94190000Y-107550000D02*
X94140000Y-107490000D01*
X94140000Y-107490000D02*
X94130000Y-107420000D01*
X94130000Y-107420000D02*
X94130000Y-106700000D01*
X94130000Y-106700000D02*
X94090000Y-106650000D01*
X94090000Y-106650000D02*
X94010000Y-106660000D01*
X94010000Y-106660000D02*
X93990000Y-106730000D01*
X93990000Y-106730000D02*
X93990000Y-107370000D01*
X93990000Y-107370000D02*
X94000000Y-107440000D01*
X94000000Y-107440000D02*
X94020000Y-107510000D01*
X94020000Y-107510000D02*
X94050000Y-107580000D01*
X94050000Y-107580000D02*
X94100000Y-107650000D01*
X94100000Y-107650000D02*
X94170000Y-107720000D01*
X94170000Y-107720000D02*
X94170000Y-107720000D01*
G36*
X94640000Y-106700000D02*
G01*
X94640000Y-107340000D01*
X94620000Y-107480000D01*
X94590000Y-107550000D01*
X94540000Y-107620000D01*
X94480000Y-107690000D01*
X94410000Y-107720000D01*
X94170000Y-107720000D01*
X94100000Y-107650000D01*
X94050000Y-107580000D01*
X94020000Y-107510000D01*
X94000000Y-107440000D01*
X93990000Y-107370000D01*
X93990000Y-106730000D01*
X94010000Y-106660000D01*
X94090000Y-106650000D01*
X94130000Y-106700000D01*
X94130000Y-107420000D01*
X94140000Y-107490000D01*
X94190000Y-107550000D01*
X94260000Y-107590000D01*
X94340000Y-107590000D01*
X94420000Y-107580000D01*
X94470000Y-107510000D01*
X94500000Y-107440000D01*
X94500000Y-106730000D01*
X94510000Y-106650000D01*
X94590000Y-106650000D01*
X94640000Y-106700000D01*
G37*
X94640000Y-106700000D02*
X94640000Y-107340000D01*
X94620000Y-107480000D01*
X94590000Y-107550000D01*
X94540000Y-107620000D01*
X94480000Y-107690000D01*
X94410000Y-107720000D01*
X94170000Y-107720000D01*
X94100000Y-107650000D01*
X94050000Y-107580000D01*
X94020000Y-107510000D01*
X94000000Y-107440000D01*
X93990000Y-107370000D01*
X93990000Y-106730000D01*
X94010000Y-106660000D01*
X94090000Y-106650000D01*
X94130000Y-106700000D01*
X94130000Y-107420000D01*
X94140000Y-107490000D01*
X94190000Y-107550000D01*
X94260000Y-107590000D01*
X94340000Y-107590000D01*
X94420000Y-107580000D01*
X94470000Y-107510000D01*
X94500000Y-107440000D01*
X94500000Y-106730000D01*
X94510000Y-106650000D01*
X94590000Y-106650000D01*
X94640000Y-106700000D01*
X93390000Y-107720000D02*
X93560000Y-107720000D01*
X93560000Y-107720000D02*
X93630000Y-107690000D01*
X93630000Y-107690000D02*
X93680000Y-107620000D01*
X93680000Y-107620000D02*
X93720000Y-107540000D01*
X93720000Y-107540000D02*
X93740000Y-107470000D01*
X93740000Y-107470000D02*
X93740000Y-107400000D01*
X93740000Y-107400000D02*
X93740000Y-106680000D01*
X93740000Y-106680000D02*
X93680000Y-106650000D01*
X93680000Y-106650000D02*
X93610000Y-106670000D01*
X93610000Y-106670000D02*
X93610000Y-106750000D01*
X93610000Y-106750000D02*
X93610000Y-107390000D01*
X93610000Y-107390000D02*
X93600000Y-107470000D01*
X93600000Y-107470000D02*
X93580000Y-107540000D01*
X93580000Y-107540000D02*
X93520000Y-107590000D01*
X93520000Y-107590000D02*
X93440000Y-107590000D01*
X93440000Y-107590000D02*
X93380000Y-107540000D01*
X93380000Y-107540000D02*
X93340000Y-107470000D01*
X93340000Y-107470000D02*
X93340000Y-107400000D01*
X93340000Y-107400000D02*
X93280000Y-107370000D01*
X93280000Y-107370000D02*
X93210000Y-107390000D01*
X93210000Y-107390000D02*
X93210000Y-107470000D01*
X93210000Y-107470000D02*
X93230000Y-107550000D01*
X93230000Y-107550000D02*
X93260000Y-107610000D01*
X93260000Y-107610000D02*
X93310000Y-107660000D01*
X93310000Y-107660000D02*
X93390000Y-107720000D01*
X93390000Y-107720000D02*
X93390000Y-107720000D01*
G36*
X93740000Y-106680000D02*
G01*
X93740000Y-107470000D01*
X93720000Y-107540000D01*
X93680000Y-107620000D01*
X93630000Y-107690000D01*
X93560000Y-107720000D01*
X93390000Y-107720000D01*
X93310000Y-107660000D01*
X93260000Y-107610000D01*
X93230000Y-107550000D01*
X93210000Y-107470000D01*
X93210000Y-107390000D01*
X93280000Y-107370000D01*
X93340000Y-107400000D01*
X93340000Y-107470000D01*
X93380000Y-107540000D01*
X93440000Y-107590000D01*
X93520000Y-107590000D01*
X93580000Y-107540000D01*
X93600000Y-107470000D01*
X93610000Y-107390000D01*
X93610000Y-106670000D01*
X93680000Y-106650000D01*
X93740000Y-106680000D01*
G37*
X93740000Y-106680000D02*
X93740000Y-107470000D01*
X93720000Y-107540000D01*
X93680000Y-107620000D01*
X93630000Y-107690000D01*
X93560000Y-107720000D01*
X93390000Y-107720000D01*
X93310000Y-107660000D01*
X93260000Y-107610000D01*
X93230000Y-107550000D01*
X93210000Y-107470000D01*
X93210000Y-107390000D01*
X93280000Y-107370000D01*
X93340000Y-107400000D01*
X93340000Y-107470000D01*
X93380000Y-107540000D01*
X93440000Y-107590000D01*
X93520000Y-107590000D01*
X93580000Y-107540000D01*
X93600000Y-107470000D01*
X93610000Y-107390000D01*
X93610000Y-106670000D01*
X93680000Y-106650000D01*
X93740000Y-106680000D01*
X92430000Y-107720000D02*
X92750000Y-107720000D01*
X92750000Y-107720000D02*
X92830000Y-107670000D01*
X92830000Y-107670000D02*
X92890000Y-107610000D01*
X92890000Y-107610000D02*
X92790000Y-107530000D01*
X92790000Y-107530000D02*
X92730000Y-107580000D01*
X92730000Y-107580000D02*
X92670000Y-107590000D01*
X92670000Y-107590000D02*
X92510000Y-107590000D01*
X92510000Y-107590000D02*
X92510000Y-106790000D01*
X92510000Y-106790000D02*
X92580000Y-106780000D01*
X92580000Y-106780000D02*
X92660000Y-106780000D01*
X92660000Y-106780000D02*
X92740000Y-106790000D01*
X92740000Y-106790000D02*
X92800000Y-106850000D01*
X92800000Y-106850000D02*
X92830000Y-106900000D01*
X92830000Y-106900000D02*
X92840000Y-106990000D01*
X92840000Y-106990000D02*
X92840000Y-107060000D01*
X92840000Y-107060000D02*
X92850000Y-107230000D01*
X92850000Y-107230000D02*
X92840000Y-107390000D01*
X92840000Y-107390000D02*
X92820000Y-107470000D01*
X92820000Y-107470000D02*
X92800000Y-107520000D01*
X92800000Y-107520000D02*
X92890000Y-107610000D01*
X92890000Y-107610000D02*
X92930000Y-107560000D01*
X92930000Y-107560000D02*
X92960000Y-107500000D01*
X92960000Y-107500000D02*
X92980000Y-107410000D01*
X92980000Y-107410000D02*
X92980000Y-107260000D01*
X92980000Y-107260000D02*
X92980000Y-107080000D01*
X92980000Y-107080000D02*
X92980000Y-107010000D01*
X92980000Y-107010000D02*
X92970000Y-106930000D01*
X92970000Y-106930000D02*
X92950000Y-106850000D01*
X92950000Y-106850000D02*
X92930000Y-106800000D01*
X92930000Y-106800000D02*
X92880000Y-106740000D01*
X92880000Y-106740000D02*
X92820000Y-106680000D01*
X92820000Y-106680000D02*
X92730000Y-106650000D01*
X92730000Y-106650000D02*
X92410000Y-106650000D01*
X92410000Y-106650000D02*
X92380000Y-106700000D01*
X92380000Y-106700000D02*
X92380000Y-107660000D01*
X92380000Y-107660000D02*
X92410000Y-107720000D01*
X92410000Y-107720000D02*
X92430000Y-107720000D01*
X92430000Y-107720000D02*
X92430000Y-107720000D01*
G36*
X92820000Y-106680000D02*
G01*
X92880000Y-106740000D01*
X92930000Y-106800000D01*
X92950000Y-106850000D01*
X92970000Y-106930000D01*
X92980000Y-107010000D01*
X92980000Y-107410000D01*
X92960000Y-107500000D01*
X92930000Y-107560000D01*
X92890000Y-107610000D01*
X92800000Y-107520000D01*
X92820000Y-107470000D01*
X92840000Y-107390000D01*
X92850000Y-107230000D01*
X92840000Y-107060000D01*
X92840000Y-106990000D01*
X92830000Y-106900000D01*
X92800000Y-106850000D01*
X92740000Y-106790000D01*
X92660000Y-106780000D01*
X92580000Y-106780000D01*
X92510000Y-106790000D01*
X92510000Y-107590000D01*
X92670000Y-107590000D01*
X92730000Y-107580000D01*
X92790000Y-107530000D01*
X92890000Y-107610000D01*
X92830000Y-107670000D01*
X92750000Y-107720000D01*
X92410000Y-107720000D01*
X92380000Y-107660000D01*
X92380000Y-106700000D01*
X92410000Y-106650000D01*
X92730000Y-106650000D01*
X92820000Y-106680000D01*
G37*
X92820000Y-106680000D02*
X92880000Y-106740000D01*
X92930000Y-106800000D01*
X92950000Y-106850000D01*
X92970000Y-106930000D01*
X92980000Y-107010000D01*
X92980000Y-107410000D01*
X92960000Y-107500000D01*
X92930000Y-107560000D01*
X92890000Y-107610000D01*
X92800000Y-107520000D01*
X92820000Y-107470000D01*
X92840000Y-107390000D01*
X92850000Y-107230000D01*
X92840000Y-107060000D01*
X92840000Y-106990000D01*
X92830000Y-106900000D01*
X92800000Y-106850000D01*
X92740000Y-106790000D01*
X92660000Y-106780000D01*
X92580000Y-106780000D01*
X92510000Y-106790000D01*
X92510000Y-107590000D01*
X92670000Y-107590000D01*
X92730000Y-107580000D01*
X92790000Y-107530000D01*
X92890000Y-107610000D01*
X92830000Y-107670000D01*
X92750000Y-107720000D01*
X92410000Y-107720000D01*
X92380000Y-107660000D01*
X92380000Y-106700000D01*
X92410000Y-106650000D01*
X92730000Y-106650000D01*
X92820000Y-106680000D01*
X91540000Y-107720000D02*
X91600000Y-107700000D01*
X91600000Y-107700000D02*
X91650000Y-107630000D01*
X91650000Y-107630000D02*
X91710000Y-107600000D01*
X91710000Y-107600000D02*
X91730000Y-107470000D01*
X91730000Y-107470000D02*
X91710000Y-107420000D01*
X91710000Y-107420000D02*
X91790000Y-106950000D01*
X91790000Y-106950000D02*
X91810000Y-106910000D01*
X91810000Y-106910000D02*
X91890000Y-107380000D01*
X91890000Y-107380000D02*
X91910000Y-107460000D01*
X91910000Y-107460000D02*
X91890000Y-107470000D01*
X91890000Y-107470000D02*
X91730000Y-107470000D01*
X91730000Y-107470000D02*
X91710000Y-107600000D01*
X91710000Y-107600000D02*
X91870000Y-107600000D01*
X91870000Y-107600000D02*
X91950000Y-107610000D01*
X91950000Y-107610000D02*
X91990000Y-107670000D01*
X91990000Y-107670000D02*
X92040000Y-107720000D01*
X92040000Y-107720000D02*
X92120000Y-107720000D01*
X92120000Y-107720000D02*
X92140000Y-107650000D01*
X92140000Y-107650000D02*
X91880000Y-106660000D01*
X91880000Y-106660000D02*
X91810000Y-106650000D01*
X91810000Y-106650000D02*
X91730000Y-106660000D01*
X91730000Y-106660000D02*
X91470000Y-107660000D01*
X91470000Y-107660000D02*
X91490000Y-107720000D01*
X91490000Y-107720000D02*
X91540000Y-107720000D01*
X91540000Y-107720000D02*
X91540000Y-107720000D01*
G36*
X91600000Y-107700000D02*
G01*
X91540000Y-107720000D01*
X91490000Y-107720000D01*
X91470000Y-107660000D01*
X91532400Y-107420000D01*
X91710000Y-107420000D01*
X91730000Y-107470000D01*
X91890000Y-107470000D01*
X91910000Y-107460000D01*
X91890000Y-107380000D01*
X91810000Y-106910000D01*
X91790000Y-106950000D01*
X91710000Y-107420000D01*
X91532400Y-107420000D01*
X91730000Y-106660000D01*
X91810000Y-106650000D01*
X91880000Y-106660000D01*
X92140000Y-107650000D01*
X92120000Y-107720000D01*
X92040000Y-107720000D01*
X91990000Y-107670000D01*
X91950000Y-107610000D01*
X91870000Y-107600000D01*
X91710000Y-107600000D01*
X91650000Y-107630000D01*
X91600000Y-107700000D01*
G37*
X91600000Y-107700000D02*
X91540000Y-107720000D01*
X91490000Y-107720000D01*
X91470000Y-107660000D01*
X91532400Y-107420000D01*
X91710000Y-107420000D01*
X91730000Y-107470000D01*
X91890000Y-107470000D01*
X91910000Y-107460000D01*
X91890000Y-107380000D01*
X91810000Y-106910000D01*
X91790000Y-106950000D01*
X91710000Y-107420000D01*
X91532400Y-107420000D01*
X91730000Y-106660000D01*
X91810000Y-106650000D01*
X91880000Y-106660000D01*
X92140000Y-107650000D01*
X92120000Y-107720000D01*
X92040000Y-107720000D01*
X91990000Y-107670000D01*
X91950000Y-107610000D01*
X91870000Y-107600000D01*
X91710000Y-107600000D01*
X91650000Y-107630000D01*
X91600000Y-107700000D01*
%TO.C,G\u002A\u002A\u002A*%
G36*
X108297945Y-95650251D02*
G01*
X108298773Y-95641732D01*
X108300169Y-95634055D01*
X108302280Y-95625967D01*
X108303701Y-95621209D01*
X108311283Y-95599785D01*
X108320341Y-95581013D01*
X108331826Y-95562969D01*
X108334152Y-95559750D01*
X108337489Y-95555806D01*
X108343835Y-95548908D01*
X108352920Y-95539331D01*
X108364473Y-95527352D01*
X108378223Y-95513245D01*
X108393900Y-95497288D01*
X108411234Y-95479756D01*
X108429953Y-95460925D01*
X108449789Y-95441070D01*
X108470470Y-95420468D01*
X108478814Y-95412183D01*
X108612496Y-95279576D01*
X108564172Y-95231438D01*
X108514850Y-95180731D01*
X108469526Y-95130751D01*
X108427784Y-95080921D01*
X108389208Y-95030666D01*
X108353380Y-94979411D01*
X108319883Y-94926578D01*
X108288302Y-94871593D01*
X108258220Y-94813879D01*
X108250068Y-94797273D01*
X108216215Y-94722190D01*
X108186602Y-94645452D01*
X108161253Y-94567260D01*
X108140195Y-94487813D01*
X108123453Y-94407309D01*
X108111052Y-94325950D01*
X108103018Y-94243933D01*
X108099378Y-94161460D01*
X108099639Y-94133709D01*
X108357276Y-94133709D01*
X108357394Y-94159798D01*
X108357834Y-94184566D01*
X108358603Y-94207031D01*
X108359705Y-94226214D01*
X108360152Y-94231751D01*
X108369095Y-94309305D01*
X108382108Y-94384766D01*
X108399243Y-94458294D01*
X108420557Y-94530051D01*
X108446106Y-94600196D01*
X108475944Y-94668893D01*
X108510126Y-94736300D01*
X108548709Y-94802581D01*
X108564762Y-94827854D01*
X108577117Y-94846195D01*
X108591739Y-94866807D01*
X108607786Y-94888569D01*
X108624414Y-94910358D01*
X108640782Y-94931051D01*
X108656047Y-94949527D01*
X108656310Y-94949837D01*
X108660261Y-94954197D01*
X108667297Y-94961629D01*
X108677243Y-94971957D01*
X108689924Y-94985003D01*
X108705163Y-95000590D01*
X108722787Y-95018540D01*
X108742620Y-95038677D01*
X108764487Y-95060824D01*
X108788212Y-95084802D01*
X108813621Y-95110435D01*
X108840539Y-95137546D01*
X108868790Y-95165957D01*
X108898199Y-95195491D01*
X108928591Y-95225970D01*
X108959791Y-95257219D01*
X108985145Y-95282582D01*
X109023225Y-95320655D01*
X109058210Y-95355626D01*
X109090259Y-95387645D01*
X109119534Y-95416865D01*
X109146195Y-95443437D01*
X109170402Y-95467512D01*
X109192315Y-95489241D01*
X109212095Y-95508776D01*
X109229902Y-95526268D01*
X109245897Y-95541869D01*
X109260240Y-95555730D01*
X109273091Y-95568003D01*
X109284612Y-95578838D01*
X109294961Y-95588388D01*
X109304300Y-95596804D01*
X109312789Y-95604236D01*
X109320588Y-95610837D01*
X109327858Y-95616758D01*
X109334759Y-95622150D01*
X109341452Y-95627165D01*
X109348097Y-95631954D01*
X109354854Y-95636668D01*
X109361884Y-95641459D01*
X109369347Y-95646479D01*
X109373877Y-95649514D01*
X109415652Y-95674996D01*
X109460647Y-95697767D01*
X109508212Y-95717606D01*
X109557695Y-95734294D01*
X109608448Y-95747611D01*
X109659819Y-95757337D01*
X109710357Y-95763192D01*
X109722425Y-95763772D01*
X109738070Y-95763980D01*
X109756288Y-95763851D01*
X109776070Y-95763419D01*
X109796410Y-95762721D01*
X109816300Y-95761790D01*
X109834736Y-95760661D01*
X109850708Y-95759371D01*
X109863211Y-95757953D01*
X109863937Y-95757849D01*
X109920298Y-95747365D01*
X109975244Y-95732631D01*
X110028545Y-95713770D01*
X110079969Y-95690906D01*
X110129285Y-95664164D01*
X110176263Y-95633667D01*
X110220671Y-95599540D01*
X110262280Y-95561906D01*
X110297110Y-95525176D01*
X110333399Y-95480815D01*
X110365521Y-95434752D01*
X110393559Y-95386815D01*
X110417590Y-95336834D01*
X110437694Y-95284636D01*
X110453952Y-95230049D01*
X110466442Y-95172903D01*
X110469921Y-95152374D01*
X110471469Y-95139720D01*
X110472786Y-95123448D01*
X110473853Y-95104539D01*
X110474646Y-95083973D01*
X110475144Y-95062731D01*
X110475326Y-95041794D01*
X110475169Y-95022142D01*
X110474651Y-95004755D01*
X110473752Y-94990615D01*
X110473557Y-94988575D01*
X110465446Y-94930838D01*
X110453085Y-94874675D01*
X110436533Y-94820227D01*
X110415851Y-94767640D01*
X110391100Y-94717056D01*
X110362340Y-94668620D01*
X110329632Y-94622475D01*
X110308298Y-94596137D01*
X110304227Y-94591637D01*
X110297191Y-94584205D01*
X110287396Y-94574044D01*
X110275045Y-94561359D01*
X110260342Y-94546353D01*
X110243493Y-94529230D01*
X110224700Y-94510195D01*
X110204168Y-94489451D01*
X110182102Y-94467202D01*
X110158705Y-94443652D01*
X110134181Y-94419005D01*
X110108735Y-94393465D01*
X110082570Y-94367236D01*
X110055892Y-94340522D01*
X110028903Y-94313527D01*
X110001809Y-94286454D01*
X109974813Y-94259508D01*
X109948119Y-94232893D01*
X109921932Y-94206812D01*
X109896456Y-94181470D01*
X109871895Y-94157070D01*
X109848453Y-94133816D01*
X109826334Y-94111913D01*
X109805742Y-94091564D01*
X109786882Y-94072974D01*
X109769957Y-94056345D01*
X109755173Y-94041883D01*
X109742732Y-94029790D01*
X109732839Y-94020272D01*
X109725699Y-94013531D01*
X109721515Y-94009772D01*
X109720714Y-94009149D01*
X109696433Y-93995468D01*
X109671195Y-93986244D01*
X109645182Y-93981513D01*
X109618576Y-93981312D01*
X109597581Y-93984313D01*
X109574307Y-93991443D01*
X109552469Y-94002592D01*
X109532574Y-94017269D01*
X109515129Y-94034983D01*
X109500642Y-94055245D01*
X109489621Y-94077564D01*
X109484368Y-94093657D01*
X109481370Y-94110454D01*
X109480263Y-94129351D01*
X109481018Y-94148545D01*
X109483608Y-94166234D01*
X109485661Y-94174212D01*
X109486956Y-94178567D01*
X109488092Y-94182511D01*
X109489209Y-94186192D01*
X109490446Y-94189762D01*
X109491942Y-94193368D01*
X109493836Y-94197161D01*
X109496266Y-94201291D01*
X109499372Y-94205907D01*
X109503293Y-94211158D01*
X109508167Y-94217194D01*
X109514133Y-94224166D01*
X109521332Y-94232222D01*
X109529900Y-94241512D01*
X109539978Y-94252186D01*
X109551705Y-94264393D01*
X109565219Y-94278283D01*
X109580659Y-94294005D01*
X109598164Y-94311710D01*
X109617874Y-94331547D01*
X109639927Y-94353665D01*
X109664462Y-94378214D01*
X109691618Y-94405344D01*
X109721535Y-94435205D01*
X109754350Y-94467945D01*
X109790203Y-94503714D01*
X109810582Y-94524048D01*
X109847834Y-94561227D01*
X109881968Y-94595305D01*
X109913128Y-94626429D01*
X109941458Y-94654746D01*
X109967101Y-94680405D01*
X109990202Y-94703551D01*
X110010903Y-94724333D01*
X110029350Y-94742896D01*
X110045686Y-94759390D01*
X110060055Y-94773959D01*
X110072601Y-94786753D01*
X110083467Y-94797917D01*
X110092797Y-94807599D01*
X110100736Y-94815947D01*
X110107426Y-94823107D01*
X110113013Y-94829227D01*
X110117639Y-94834453D01*
X110121449Y-94838934D01*
X110124586Y-94842815D01*
X110127195Y-94846245D01*
X110129419Y-94849370D01*
X110131260Y-94852120D01*
X110151470Y-94886811D01*
X110167721Y-94923039D01*
X110180288Y-94961472D01*
X110186018Y-94985133D01*
X110188883Y-95002951D01*
X110190723Y-95023912D01*
X110191536Y-95046671D01*
X110191320Y-95069882D01*
X110190074Y-95092200D01*
X110187795Y-95112280D01*
X110186218Y-95121309D01*
X110176573Y-95159785D01*
X110163559Y-95195699D01*
X110146784Y-95230004D01*
X110129958Y-95257581D01*
X110124758Y-95265150D01*
X110119258Y-95272537D01*
X110113023Y-95280228D01*
X110105616Y-95288711D01*
X110096599Y-95298471D01*
X110085536Y-95309994D01*
X110071990Y-95323767D01*
X110056906Y-95338895D01*
X110037705Y-95357910D01*
X110021071Y-95373957D01*
X110006462Y-95387462D01*
X109993333Y-95398852D01*
X109981144Y-95408553D01*
X109969351Y-95416991D01*
X109957410Y-95424591D01*
X109944780Y-95431780D01*
X109930916Y-95438984D01*
X109926703Y-95441079D01*
X109906038Y-95450735D01*
X109886759Y-95458444D01*
X109867111Y-95464814D01*
X109845344Y-95470451D01*
X109835270Y-95472719D01*
X109826156Y-95474561D01*
X109817565Y-95475913D01*
X109808519Y-95476848D01*
X109798038Y-95477436D01*
X109785144Y-95477749D01*
X109768856Y-95477857D01*
X109764444Y-95477860D01*
X109747244Y-95477791D01*
X109733657Y-95477534D01*
X109722696Y-95477019D01*
X109713372Y-95476171D01*
X109704696Y-95474920D01*
X109695680Y-95473193D01*
X109693095Y-95472644D01*
X109651866Y-95461547D01*
X109612886Y-95446573D01*
X109576369Y-95427814D01*
X109550114Y-95410884D01*
X109546827Y-95408405D01*
X109542646Y-95404968D01*
X109537434Y-95400437D01*
X109531056Y-95394679D01*
X109523373Y-95387561D01*
X109514250Y-95378949D01*
X109503549Y-95368709D01*
X109491134Y-95356707D01*
X109476868Y-95342810D01*
X109460614Y-95326884D01*
X109442235Y-95308795D01*
X109421596Y-95288410D01*
X109398558Y-95265594D01*
X109372985Y-95240214D01*
X109344741Y-95212137D01*
X109313688Y-95181228D01*
X109279691Y-95147354D01*
X109242611Y-95110381D01*
X109234157Y-95101948D01*
X109203023Y-95070883D01*
X109172536Y-95040450D01*
X109142875Y-95010830D01*
X109114222Y-94982202D01*
X109086758Y-94954749D01*
X109060662Y-94928651D01*
X109036116Y-94904089D01*
X109013300Y-94881244D01*
X108992396Y-94860297D01*
X108973582Y-94841429D01*
X108957041Y-94824820D01*
X108942953Y-94810652D01*
X108931498Y-94799105D01*
X108922857Y-94790361D01*
X108917211Y-94784601D01*
X108915642Y-94782974D01*
X108882461Y-94745748D01*
X108850229Y-94704846D01*
X108819571Y-94661182D01*
X108791111Y-94615672D01*
X108765473Y-94569229D01*
X108753893Y-94545913D01*
X108727953Y-94486316D01*
X108706187Y-94424992D01*
X108688634Y-94362234D01*
X108675331Y-94298337D01*
X108666316Y-94233594D01*
X108661629Y-94168298D01*
X108661306Y-94102745D01*
X108665387Y-94037227D01*
X108673909Y-93972037D01*
X108676955Y-93954647D01*
X108688909Y-93899712D01*
X108704442Y-93844309D01*
X108723141Y-93789678D01*
X108744593Y-93737060D01*
X108761003Y-93702137D01*
X108793125Y-93642661D01*
X108828709Y-93586209D01*
X108867736Y-93532802D01*
X108910190Y-93482461D01*
X108956053Y-93435208D01*
X109005308Y-93391062D01*
X109045207Y-93359448D01*
X109098475Y-93322196D01*
X109154491Y-93288288D01*
X109212536Y-93258126D01*
X109271891Y-93232113D01*
X109274496Y-93231080D01*
X109336065Y-93209229D01*
X109399008Y-93191678D01*
X109463030Y-93178434D01*
X109527838Y-93169506D01*
X109593136Y-93164903D01*
X109658632Y-93164632D01*
X109724031Y-93168703D01*
X109789039Y-93177124D01*
X109853363Y-93189903D01*
X109916707Y-93207048D01*
X109932708Y-93212133D01*
X109974645Y-93227032D01*
X110017285Y-93244364D01*
X110059257Y-93263510D01*
X110099189Y-93283848D01*
X110131207Y-93302031D01*
X110149454Y-93313497D01*
X110170049Y-93327318D01*
X110191946Y-93342739D01*
X110214101Y-93359005D01*
X110235466Y-93375362D01*
X110254995Y-93391055D01*
X110257426Y-93393074D01*
X110264093Y-93398900D01*
X110273680Y-93407656D01*
X110285852Y-93419021D01*
X110300273Y-93432672D01*
X110316606Y-93448286D01*
X110334516Y-93465542D01*
X110353666Y-93484117D01*
X110373721Y-93503689D01*
X110394345Y-93523935D01*
X110413483Y-93542830D01*
X110437050Y-93566148D01*
X110457599Y-93586438D01*
X110475370Y-93603923D01*
X110490601Y-93618828D01*
X110503533Y-93631376D01*
X110514404Y-93641793D01*
X110523454Y-93650302D01*
X110530922Y-93657127D01*
X110537047Y-93662492D01*
X110542069Y-93666622D01*
X110546227Y-93669741D01*
X110549760Y-93672073D01*
X110552908Y-93673841D01*
X110553878Y-93674327D01*
X110573948Y-93681628D01*
X110595015Y-93684673D01*
X110616320Y-93683463D01*
X110637105Y-93677998D01*
X110645750Y-93674312D01*
X110650857Y-93671628D01*
X110656066Y-93668306D01*
X110661862Y-93663926D01*
X110668732Y-93658065D01*
X110677159Y-93650303D01*
X110687631Y-93640218D01*
X110700633Y-93627389D01*
X110706046Y-93621997D01*
X110720009Y-93607989D01*
X110731066Y-93596682D01*
X110739639Y-93587592D01*
X110746148Y-93580238D01*
X110751013Y-93574136D01*
X110754656Y-93568806D01*
X110757498Y-93563764D01*
X110758372Y-93561997D01*
X110766064Y-93541212D01*
X110769533Y-93520044D01*
X110768666Y-93499223D01*
X110768365Y-93497354D01*
X110767388Y-93491609D01*
X110766422Y-93486458D01*
X110765258Y-93481655D01*
X110763692Y-93476957D01*
X110761516Y-93472119D01*
X110758523Y-93466897D01*
X110754508Y-93461046D01*
X110749264Y-93454323D01*
X110742585Y-93446483D01*
X110734264Y-93437282D01*
X110724094Y-93426475D01*
X110711870Y-93413818D01*
X110697384Y-93399067D01*
X110680431Y-93381978D01*
X110660803Y-93362306D01*
X110638295Y-93339807D01*
X110618622Y-93320154D01*
X110592640Y-93294215D01*
X110569598Y-93271271D01*
X110549198Y-93251047D01*
X110531140Y-93233265D01*
X110515126Y-93217651D01*
X110500857Y-93203928D01*
X110488034Y-93191822D01*
X110476358Y-93181056D01*
X110465531Y-93171354D01*
X110455252Y-93162441D01*
X110445224Y-93154042D01*
X110435147Y-93145880D01*
X110424723Y-93137680D01*
X110413652Y-93129166D01*
X110401975Y-93120318D01*
X110338772Y-93075467D01*
X110273709Y-93034825D01*
X110206825Y-92998406D01*
X110138156Y-92966222D01*
X110067739Y-92938288D01*
X109995613Y-92914619D01*
X109921813Y-92895227D01*
X109846377Y-92880127D01*
X109769343Y-92869333D01*
X109718412Y-92864630D01*
X109702218Y-92863712D01*
X109682500Y-92863039D01*
X109660311Y-92862609D01*
X109636701Y-92862421D01*
X109612723Y-92862475D01*
X109589428Y-92862771D01*
X109567868Y-92863306D01*
X109549094Y-92864080D01*
X109537870Y-92864786D01*
X109460004Y-92872949D01*
X109383595Y-92885450D01*
X109308724Y-92902257D01*
X109235474Y-92923336D01*
X109163926Y-92948655D01*
X109094164Y-92978180D01*
X109026269Y-93011877D01*
X108960324Y-93049714D01*
X108896410Y-93091658D01*
X108834611Y-93137675D01*
X108806995Y-93160134D01*
X108760393Y-93201427D01*
X108714681Y-93246529D01*
X108670553Y-93294650D01*
X108628701Y-93345002D01*
X108589820Y-93396795D01*
X108558845Y-93442577D01*
X108519566Y-93507717D01*
X108484623Y-93574010D01*
X108453954Y-93641641D01*
X108427496Y-93710793D01*
X108405186Y-93781650D01*
X108386959Y-93854397D01*
X108372754Y-93929217D01*
X108362507Y-94006294D01*
X108361342Y-94017706D01*
X108359927Y-94035715D01*
X108358807Y-94057299D01*
X108357988Y-94081479D01*
X108357476Y-94107276D01*
X108357276Y-94133709D01*
X108099639Y-94133709D01*
X108100156Y-94078729D01*
X108105379Y-93995940D01*
X108115071Y-93913293D01*
X108127125Y-93841842D01*
X108144996Y-93761243D01*
X108167247Y-93681794D01*
X108193776Y-93603719D01*
X108224480Y-93527240D01*
X108259256Y-93452583D01*
X108298002Y-93379970D01*
X108340614Y-93309626D01*
X108386991Y-93241774D01*
X108426459Y-93189783D01*
X108480561Y-93125331D01*
X108537743Y-93064208D01*
X108597867Y-93006509D01*
X108660798Y-92952330D01*
X108726397Y-92901766D01*
X108794530Y-92854912D01*
X108865057Y-92811865D01*
X108937844Y-92772719D01*
X109012754Y-92737570D01*
X109089649Y-92706515D01*
X109146717Y-92686562D01*
X109227492Y-92662519D01*
X109309045Y-92642974D01*
X109391208Y-92627919D01*
X109473814Y-92617346D01*
X109556695Y-92611247D01*
X109639683Y-92609617D01*
X109722611Y-92612445D01*
X109805311Y-92619727D01*
X109887616Y-92631452D01*
X109969357Y-92647615D01*
X110050368Y-92668208D01*
X110130479Y-92693223D01*
X110209525Y-92722652D01*
X110240866Y-92735684D01*
X110310761Y-92767963D01*
X110379895Y-92804507D01*
X110447738Y-92844984D01*
X110513757Y-92889063D01*
X110577420Y-92936410D01*
X110626377Y-92976487D01*
X110631951Y-92981472D01*
X110640477Y-92989402D01*
X110651690Y-93000016D01*
X110665324Y-93013053D01*
X110681116Y-93028253D01*
X110698799Y-93045356D01*
X110718110Y-93064101D01*
X110738784Y-93084228D01*
X110760555Y-93105476D01*
X110783159Y-93127585D01*
X110806331Y-93150294D01*
X110829806Y-93173344D01*
X110853319Y-93196473D01*
X110876606Y-93219421D01*
X110899401Y-93241928D01*
X110921439Y-93263733D01*
X110942457Y-93284575D01*
X110962188Y-93304196D01*
X110980368Y-93322333D01*
X110996733Y-93338726D01*
X111011017Y-93353116D01*
X111022956Y-93365241D01*
X111032284Y-93374842D01*
X111038737Y-93381657D01*
X111041164Y-93384354D01*
X111057037Y-93404530D01*
X111069419Y-93424598D01*
X111079129Y-93446068D01*
X111086015Y-93466969D01*
X111088317Y-93476052D01*
X111089841Y-93484994D01*
X111090728Y-93495141D01*
X111091119Y-93507833D01*
X111091173Y-93515966D01*
X111090774Y-93534634D01*
X111089310Y-93550387D01*
X111086471Y-93564850D01*
X111081946Y-93579647D01*
X111076164Y-93594626D01*
X111073648Y-93600484D01*
X111070940Y-93606130D01*
X111067826Y-93611803D01*
X111064088Y-93617748D01*
X111059511Y-93624205D01*
X111053878Y-93631416D01*
X111046973Y-93639623D01*
X111038580Y-93649069D01*
X111028483Y-93659995D01*
X111016465Y-93672642D01*
X111002310Y-93687253D01*
X110985803Y-93704071D01*
X110966726Y-93723335D01*
X110944864Y-93745289D01*
X110920001Y-93770175D01*
X110913050Y-93777123D01*
X110779556Y-93910543D01*
X110837748Y-93969303D01*
X110861600Y-93993572D01*
X110882619Y-94015386D01*
X110901381Y-94035382D01*
X110918464Y-94054198D01*
X110934444Y-94072472D01*
X110949897Y-94090840D01*
X110965400Y-94109941D01*
X110968709Y-94114095D01*
X111005504Y-94162798D01*
X111041387Y-94214900D01*
X111075739Y-94269368D01*
X111107941Y-94325165D01*
X111137374Y-94381257D01*
X111163419Y-94436607D01*
X111168671Y-94448671D01*
X111200027Y-94527555D01*
X111226894Y-94607402D01*
X111249260Y-94688107D01*
X111267115Y-94769566D01*
X111280447Y-94851672D01*
X111289244Y-94934321D01*
X111293495Y-95017407D01*
X111293190Y-95100826D01*
X111288315Y-95184472D01*
X111278860Y-95268240D01*
X111266034Y-95345705D01*
X111248511Y-95425872D01*
X111226866Y-95504335D01*
X111201030Y-95581260D01*
X111170935Y-95656812D01*
X111136515Y-95731157D01*
X111097700Y-95804458D01*
X111054423Y-95876882D01*
X111035592Y-95906030D01*
X110992190Y-95968019D01*
X110944787Y-96028691D01*
X110893933Y-96087433D01*
X110840176Y-96143631D01*
X110784064Y-96196672D01*
X110746058Y-96229610D01*
X110679818Y-96282038D01*
X110611334Y-96330468D01*
X110540718Y-96374854D01*
X110468082Y-96415152D01*
X110393537Y-96451319D01*
X110317195Y-96483310D01*
X110239167Y-96511082D01*
X110159565Y-96534589D01*
X110078501Y-96553788D01*
X109996086Y-96568634D01*
X109912431Y-96579084D01*
X109850752Y-96583905D01*
X109837215Y-96584522D01*
X109820269Y-96585022D01*
X109800891Y-96585399D01*
X109780059Y-96585649D01*
X109758751Y-96585767D01*
X109737943Y-96585747D01*
X109718615Y-96585586D01*
X109701743Y-96585277D01*
X109688306Y-96584818D01*
X109686191Y-96584711D01*
X109657442Y-96582844D01*
X109626475Y-96580266D01*
X109594574Y-96577118D01*
X109563025Y-96573538D01*
X109533113Y-96569665D01*
X109506124Y-96565640D01*
X109498614Y-96564393D01*
X109489879Y-96562791D01*
X109477729Y-96560406D01*
X109463238Y-96557459D01*
X109447483Y-96554168D01*
X109431541Y-96550752D01*
X109429567Y-96550323D01*
X109349093Y-96530442D01*
X109270106Y-96506226D01*
X109192708Y-96477729D01*
X109117000Y-96445004D01*
X109043085Y-96408107D01*
X108971064Y-96367091D01*
X108901041Y-96322012D01*
X108833116Y-96272923D01*
X108767392Y-96219878D01*
X108706655Y-96165466D01*
X108696352Y-96155651D01*
X108683720Y-96143430D01*
X108669010Y-96129058D01*
X108652476Y-96112790D01*
X108634369Y-96094880D01*
X108614943Y-96075585D01*
X108594450Y-96055158D01*
X108573143Y-96033856D01*
X108551274Y-96011934D01*
X108529096Y-95989646D01*
X108506861Y-95967247D01*
X108484822Y-95944993D01*
X108463232Y-95923140D01*
X108442343Y-95901941D01*
X108422408Y-95881652D01*
X108403679Y-95862528D01*
X108386410Y-95844824D01*
X108370852Y-95828796D01*
X108357258Y-95814698D01*
X108345881Y-95802786D01*
X108336973Y-95793314D01*
X108330788Y-95786539D01*
X108327577Y-95782714D01*
X108327367Y-95782409D01*
X108315958Y-95762164D01*
X108306789Y-95739848D01*
X108302365Y-95725823D01*
X108300223Y-95717535D01*
X108298773Y-95709476D01*
X108297899Y-95700433D01*
X108297482Y-95689196D01*
X108297403Y-95674828D01*
X108297436Y-95671375D01*
X108626962Y-95671375D01*
X108628419Y-95691484D01*
X108633047Y-95709225D01*
X108641233Y-95725894D01*
X108644920Y-95731582D01*
X108648119Y-95735449D01*
X108654333Y-95742212D01*
X108663260Y-95751573D01*
X108674599Y-95763236D01*
X108688048Y-95776905D01*
X108703306Y-95792282D01*
X108720072Y-95809071D01*
X108738043Y-95826974D01*
X108756918Y-95845696D01*
X108776397Y-95864939D01*
X108796176Y-95884407D01*
X108815956Y-95903803D01*
X108835434Y-95922830D01*
X108854308Y-95941191D01*
X108872278Y-95958589D01*
X108889042Y-95974728D01*
X108904298Y-95989312D01*
X108917745Y-96002042D01*
X108929082Y-96012623D01*
X108938006Y-96020758D01*
X108943938Y-96025918D01*
X108997971Y-96068748D01*
X109052379Y-96107606D01*
X109108077Y-96143089D01*
X109165981Y-96175796D01*
X109198260Y-96192402D01*
X109233588Y-96209492D01*
X109266840Y-96224448D01*
X109299599Y-96237928D01*
X109333450Y-96250590D01*
X109362972Y-96260769D01*
X109435699Y-96282656D01*
X109509184Y-96300019D01*
X109583481Y-96312867D01*
X109658646Y-96321208D01*
X109734731Y-96325047D01*
X109811793Y-96324394D01*
X109824284Y-96323870D01*
X109899658Y-96318272D01*
X109973309Y-96308531D01*
X110045584Y-96294563D01*
X110116826Y-96276286D01*
X110187381Y-96253616D01*
X110257594Y-96226471D01*
X110292749Y-96211164D01*
X110356738Y-96179862D01*
X110419601Y-96144349D01*
X110480856Y-96104969D01*
X110540017Y-96062069D01*
X110596601Y-96015995D01*
X110650123Y-95967093D01*
X110688228Y-95928488D01*
X110726843Y-95886119D01*
X110761902Y-95844532D01*
X110794107Y-95802760D01*
X110824161Y-95759836D01*
X110852765Y-95714792D01*
X110880622Y-95666660D01*
X110888131Y-95652963D01*
X110919642Y-95590217D01*
X110947649Y-95524820D01*
X110972044Y-95457227D01*
X110992719Y-95387894D01*
X111009566Y-95317276D01*
X111022477Y-95245829D01*
X111031344Y-95174010D01*
X111036060Y-95102273D01*
X111036516Y-95031074D01*
X111036409Y-95026939D01*
X111032146Y-94949562D01*
X111023684Y-94873995D01*
X111010984Y-94800075D01*
X110994007Y-94727639D01*
X110972713Y-94656524D01*
X110947062Y-94586566D01*
X110917014Y-94517604D01*
X110908509Y-94499882D01*
X110880577Y-94445509D01*
X110851573Y-94394670D01*
X110820844Y-94346393D01*
X110787735Y-94299707D01*
X110751588Y-94253641D01*
X110711751Y-94207224D01*
X110708982Y-94204132D01*
X110704041Y-94198821D01*
X110696126Y-94190569D01*
X110685442Y-94179581D01*
X110672193Y-94166061D01*
X110656585Y-94150213D01*
X110638824Y-94132242D01*
X110619113Y-94112353D01*
X110597659Y-94090750D01*
X110574665Y-94067637D01*
X110550338Y-94043220D01*
X110524882Y-94017702D01*
X110498503Y-93991288D01*
X110471405Y-93964182D01*
X110443793Y-93936590D01*
X110415873Y-93908715D01*
X110387850Y-93880763D01*
X110359928Y-93852937D01*
X110332313Y-93825442D01*
X110305210Y-93798483D01*
X110278824Y-93772264D01*
X110253359Y-93746989D01*
X110229022Y-93722864D01*
X110206016Y-93700093D01*
X110184548Y-93678880D01*
X110164822Y-93659429D01*
X110147043Y-93641946D01*
X110131416Y-93626635D01*
X110118147Y-93613700D01*
X110107440Y-93603345D01*
X110099501Y-93595776D01*
X110094534Y-93591197D01*
X110093566Y-93590364D01*
X110054965Y-93560031D01*
X110016956Y-93533570D01*
X109978664Y-93510492D01*
X109939219Y-93490305D01*
X109897745Y-93472519D01*
X109859163Y-93458558D01*
X109829287Y-93449121D01*
X109800796Y-93441376D01*
X109771850Y-93434876D01*
X109740608Y-93429176D01*
X109732251Y-93427828D01*
X109716866Y-93425940D01*
X109697847Y-93424457D01*
X109676142Y-93423385D01*
X109652703Y-93422725D01*
X109628478Y-93422484D01*
X109604417Y-93422664D01*
X109581469Y-93423270D01*
X109560586Y-93424306D01*
X109542715Y-93425776D01*
X109533137Y-93426971D01*
X109474988Y-93437765D01*
X109419156Y-93452512D01*
X109365491Y-93471273D01*
X109313849Y-93494112D01*
X109264080Y-93521091D01*
X109216039Y-93552275D01*
X109183288Y-93576694D01*
X109169345Y-93588353D01*
X109153433Y-93602809D01*
X109136390Y-93619209D01*
X109119054Y-93636703D01*
X109102262Y-93654437D01*
X109086853Y-93671561D01*
X109073663Y-93687223D01*
X109069835Y-93692061D01*
X109036319Y-93738914D01*
X109006882Y-93787680D01*
X108981566Y-93838127D01*
X108960409Y-93890024D01*
X108943454Y-93943141D01*
X108930742Y-93997247D01*
X108922311Y-94052109D01*
X108918205Y-94107499D01*
X108918462Y-94163184D01*
X108923124Y-94218933D01*
X108932232Y-94274515D01*
X108945827Y-94329701D01*
X108953219Y-94353733D01*
X108972752Y-94406655D01*
X108995938Y-94456892D01*
X109022956Y-94504773D01*
X109053980Y-94550628D01*
X109068813Y-94570080D01*
X109072760Y-94574628D01*
X109079893Y-94582323D01*
X109090122Y-94593075D01*
X109103359Y-94606793D01*
X109119516Y-94623388D01*
X109138504Y-94642770D01*
X109160234Y-94664849D01*
X109184618Y-94689535D01*
X109211567Y-94716739D01*
X109240993Y-94746371D01*
X109272808Y-94778341D01*
X109306922Y-94812559D01*
X109343247Y-94848936D01*
X109377501Y-94883189D01*
X109414324Y-94919992D01*
X109448040Y-94953686D01*
X109478800Y-94984416D01*
X109506759Y-95012321D01*
X109532068Y-95037545D01*
X109554881Y-95060230D01*
X109575350Y-95080516D01*
X109593627Y-95098547D01*
X109609867Y-95114463D01*
X109624221Y-95128408D01*
X109636843Y-95140522D01*
X109647884Y-95150949D01*
X109657499Y-95159829D01*
X109665839Y-95167305D01*
X109673057Y-95173519D01*
X109679306Y-95178612D01*
X109684739Y-95182727D01*
X109689508Y-95186006D01*
X109693767Y-95188590D01*
X109697668Y-95190621D01*
X109701364Y-95192242D01*
X109705008Y-95193594D01*
X109708751Y-95194820D01*
X109712748Y-95196060D01*
X109714960Y-95196753D01*
X109722840Y-95198984D01*
X109730604Y-95200475D01*
X109739497Y-95201360D01*
X109750763Y-95201775D01*
X109762142Y-95201857D01*
X109776157Y-95201720D01*
X109786819Y-95201217D01*
X109795370Y-95200215D01*
X109803055Y-95198579D01*
X109809324Y-95196753D01*
X109833359Y-95186830D01*
X109854783Y-95173306D01*
X109873320Y-95156545D01*
X109888693Y-95136912D01*
X109900626Y-95114773D01*
X109908843Y-95090492D01*
X109913069Y-95064434D01*
X109913405Y-95059161D01*
X109913378Y-95039698D01*
X109911069Y-95022026D01*
X109906136Y-95004519D01*
X109898236Y-94985553D01*
X109897673Y-94984360D01*
X109888390Y-94964797D01*
X109592434Y-94669047D01*
X109561442Y-94638064D01*
X109531223Y-94607830D01*
X109501948Y-94578515D01*
X109473786Y-94550292D01*
X109446907Y-94523331D01*
X109421483Y-94497805D01*
X109397684Y-94473885D01*
X109375680Y-94451741D01*
X109355641Y-94431547D01*
X109337738Y-94413473D01*
X109322142Y-94397691D01*
X109309021Y-94384372D01*
X109298548Y-94373689D01*
X109290893Y-94365812D01*
X109286224Y-94360913D01*
X109284940Y-94359487D01*
X109270041Y-94339939D01*
X109255610Y-94317837D01*
X109242902Y-94295161D01*
X109238599Y-94286407D01*
X109223185Y-94248344D01*
X109212216Y-94209463D01*
X109205671Y-94170060D01*
X109203526Y-94130428D01*
X109205761Y-94090864D01*
X109212353Y-94051662D01*
X109223281Y-94013116D01*
X109238522Y-93975523D01*
X109258056Y-93939176D01*
X109265151Y-93927945D01*
X109269747Y-93921262D01*
X109275027Y-93914299D01*
X109281373Y-93906637D01*
X109289166Y-93897854D01*
X109298791Y-93887531D01*
X109310629Y-93875247D01*
X109325062Y-93860581D01*
X109340717Y-93844868D01*
X109360491Y-93825268D01*
X109377656Y-93808677D01*
X109392707Y-93794706D01*
X109406135Y-93782961D01*
X109418436Y-93773052D01*
X109430101Y-93764587D01*
X109441624Y-93757174D01*
X109453499Y-93750423D01*
X109466219Y-93743942D01*
X109470496Y-93741886D01*
X109508271Y-93726417D01*
X109547197Y-93715238D01*
X109586881Y-93708355D01*
X109626932Y-93705777D01*
X109666957Y-93707510D01*
X109706565Y-93713562D01*
X109745364Y-93723940D01*
X109777554Y-93736229D01*
X109806024Y-93750379D01*
X109834317Y-93767605D01*
X109856182Y-93783335D01*
X109859647Y-93786393D01*
X109866159Y-93792518D01*
X109875519Y-93801511D01*
X109887529Y-93813174D01*
X109901990Y-93827308D01*
X109918704Y-93843716D01*
X109937471Y-93862200D01*
X109958094Y-93882561D01*
X109980374Y-93904601D01*
X110004112Y-93928121D01*
X110029110Y-93952925D01*
X110055169Y-93978813D01*
X110082091Y-94005588D01*
X110109676Y-94033051D01*
X110137728Y-94061004D01*
X110166046Y-94089249D01*
X110194433Y-94117588D01*
X110222689Y-94145823D01*
X110250617Y-94173755D01*
X110278018Y-94201186D01*
X110304693Y-94227919D01*
X110330443Y-94253754D01*
X110355071Y-94278494D01*
X110378377Y-94301941D01*
X110400163Y-94323897D01*
X110420230Y-94344163D01*
X110438380Y-94362541D01*
X110454415Y-94378832D01*
X110468135Y-94392840D01*
X110479342Y-94404366D01*
X110487838Y-94413211D01*
X110493424Y-94419177D01*
X110494594Y-94420478D01*
X110536117Y-94471030D01*
X110573992Y-94524272D01*
X110608115Y-94579960D01*
X110638383Y-94637851D01*
X110664694Y-94697700D01*
X110686945Y-94759263D01*
X110705033Y-94822296D01*
X110718856Y-94886554D01*
X110728311Y-94951794D01*
X110731215Y-94982715D01*
X110732397Y-95003469D01*
X110733034Y-95027341D01*
X110733153Y-95053250D01*
X110732778Y-95080113D01*
X110731936Y-95106850D01*
X110730652Y-95132378D01*
X110728953Y-95155616D01*
X110726863Y-95175483D01*
X110726573Y-95177691D01*
X110715395Y-95244153D01*
X110699967Y-95309289D01*
X110680374Y-95372857D01*
X110656704Y-95434616D01*
X110629042Y-95494323D01*
X110597475Y-95551737D01*
X110587179Y-95568601D01*
X110551681Y-95621248D01*
X110512445Y-95671765D01*
X110469832Y-95719809D01*
X110424198Y-95765039D01*
X110375904Y-95807116D01*
X110325308Y-95845698D01*
X110272769Y-95880443D01*
X110237338Y-95901034D01*
X110177985Y-95931075D01*
X110116984Y-95956882D01*
X110054559Y-95978428D01*
X109990939Y-95995683D01*
X109926348Y-96008619D01*
X109861012Y-96017207D01*
X109795159Y-96021417D01*
X109729014Y-96021221D01*
X109662803Y-96016590D01*
X109596752Y-96007495D01*
X109531087Y-95993908D01*
X109523931Y-95992146D01*
X109480226Y-95979857D01*
X109435008Y-95964607D01*
X109389486Y-95946900D01*
X109344869Y-95927237D01*
X109302367Y-95906121D01*
X109263190Y-95884056D01*
X109261673Y-95883139D01*
X109247077Y-95873924D01*
X109229931Y-95862508D01*
X109211246Y-95849611D01*
X109192030Y-95835955D01*
X109173292Y-95822258D01*
X109156042Y-95809241D01*
X109141287Y-95797624D01*
X109137269Y-95794330D01*
X109131927Y-95789627D01*
X109123640Y-95781967D01*
X109112714Y-95771650D01*
X109099459Y-95758975D01*
X109084184Y-95744240D01*
X109067196Y-95727745D01*
X109048806Y-95709788D01*
X109029320Y-95690667D01*
X109009049Y-95670683D01*
X108988300Y-95650133D01*
X108986517Y-95648362D01*
X108963045Y-95625057D01*
X108942593Y-95604774D01*
X108924918Y-95587287D01*
X108909777Y-95572371D01*
X108896928Y-95559800D01*
X108886128Y-95549348D01*
X108877133Y-95540791D01*
X108869702Y-95533901D01*
X108863591Y-95528455D01*
X108858557Y-95524227D01*
X108854359Y-95520990D01*
X108850753Y-95518520D01*
X108847495Y-95516590D01*
X108844345Y-95514976D01*
X108841519Y-95513661D01*
X108832593Y-95509850D01*
X108825029Y-95507417D01*
X108817107Y-95505990D01*
X108807107Y-95505196D01*
X108801241Y-95504937D01*
X108781262Y-95505417D01*
X108763839Y-95508730D01*
X108747676Y-95515188D01*
X108739493Y-95519798D01*
X108734813Y-95523334D01*
X108727550Y-95529626D01*
X108718293Y-95538094D01*
X108707630Y-95548159D01*
X108696152Y-95559242D01*
X108684446Y-95570763D01*
X108673102Y-95582142D01*
X108662710Y-95592801D01*
X108653858Y-95602159D01*
X108647135Y-95609637D01*
X108643272Y-95614451D01*
X108634512Y-95629977D01*
X108629194Y-95646961D01*
X108627040Y-95666379D01*
X108626962Y-95671375D01*
X108297436Y-95671375D01*
X108297537Y-95660865D01*
X108297945Y-95650251D01*
G37*
G36*
X94904213Y-95520478D02*
G01*
X95002020Y-95531265D01*
X95093100Y-95547723D01*
X95179274Y-95570657D01*
X95262364Y-95600877D01*
X95344190Y-95639191D01*
X95426576Y-95686404D01*
X95511343Y-95743327D01*
X95600313Y-95810766D01*
X95649830Y-95851079D01*
X95687833Y-95884223D01*
X95715457Y-95912447D01*
X95734079Y-95937810D01*
X95745080Y-95962371D01*
X95749838Y-95988187D01*
X95750310Y-96001083D01*
X95743999Y-96040130D01*
X95726590Y-96074717D01*
X95700368Y-96103193D01*
X95667616Y-96123907D01*
X95630618Y-96135209D01*
X95591661Y-96135448D01*
X95571126Y-96130566D01*
X95557492Y-96123459D01*
X95536093Y-96109234D01*
X95509496Y-96089725D01*
X95480269Y-96066768D01*
X95469481Y-96057916D01*
X95385709Y-95991543D01*
X95306897Y-95936253D01*
X95231149Y-95891293D01*
X95156573Y-95855912D01*
X95081275Y-95829359D01*
X95003360Y-95810881D01*
X94920935Y-95799728D01*
X94832107Y-95795148D01*
X94806783Y-95794941D01*
X94715004Y-95797955D01*
X94630159Y-95807497D01*
X94550379Y-95824317D01*
X94473794Y-95849162D01*
X94398535Y-95882783D01*
X94322732Y-95925927D01*
X94244515Y-95979344D01*
X94162016Y-96043783D01*
X94140162Y-96061990D01*
X94077679Y-96114386D01*
X94023962Y-96158811D01*
X93977549Y-96196372D01*
X93936980Y-96228176D01*
X93900796Y-96255332D01*
X93867535Y-96278947D01*
X93835738Y-96300130D01*
X93803945Y-96319987D01*
X93785770Y-96330840D01*
X93680406Y-96384997D01*
X93568362Y-96427512D01*
X93450367Y-96458236D01*
X93327153Y-96477021D01*
X93199448Y-96483715D01*
X93067984Y-96478172D01*
X93066056Y-96478001D01*
X92942933Y-96460317D01*
X92824088Y-96429646D01*
X92709553Y-96385999D01*
X92599358Y-96329386D01*
X92594966Y-96326808D01*
X92549550Y-96298626D01*
X92502348Y-96266863D01*
X92455049Y-96232881D01*
X92409338Y-96198042D01*
X92366903Y-96163707D01*
X92329428Y-96131238D01*
X92298602Y-96101999D01*
X92276110Y-96077349D01*
X92264078Y-96059589D01*
X92251990Y-96020505D01*
X92251950Y-95981342D01*
X92262698Y-95944386D01*
X92282972Y-95911924D01*
X92311511Y-95886240D01*
X92347054Y-95869621D01*
X92371481Y-95864925D01*
X92394355Y-95863993D01*
X92415127Y-95866694D01*
X92436115Y-95874153D01*
X92459637Y-95887493D01*
X92488011Y-95907841D01*
X92523556Y-95936319D01*
X92530520Y-95942085D01*
X92614212Y-96008403D01*
X92692935Y-96063650D01*
X92768589Y-96108581D01*
X92843073Y-96143949D01*
X92918288Y-96170507D01*
X92996134Y-96189009D01*
X93078509Y-96200207D01*
X93167315Y-96204856D01*
X93193721Y-96205087D01*
X93285623Y-96202044D01*
X93370687Y-96192369D01*
X93450770Y-96175317D01*
X93527728Y-96150144D01*
X93603419Y-96116107D01*
X93679698Y-96072459D01*
X93758423Y-96018457D01*
X93841451Y-95953356D01*
X93859839Y-95938010D01*
X93922321Y-95885614D01*
X93976038Y-95841189D01*
X94022451Y-95803629D01*
X94063020Y-95771824D01*
X94099204Y-95744668D01*
X94132465Y-95721053D01*
X94164262Y-95699870D01*
X94196055Y-95680013D01*
X94214231Y-95669160D01*
X94318065Y-95615811D01*
X94428921Y-95573568D01*
X94545454Y-95542721D01*
X94666322Y-95523561D01*
X94790179Y-95516376D01*
X94904213Y-95520478D01*
G37*
G36*
X94863082Y-94773013D02*
G01*
X94923142Y-94775218D01*
X94976938Y-94779006D01*
X95021160Y-94784375D01*
X95028991Y-94785716D01*
X95132818Y-94809369D01*
X95232035Y-94841885D01*
X95328482Y-94884146D01*
X95423999Y-94937036D01*
X95520425Y-95001439D01*
X95592888Y-95056584D01*
X95639865Y-95094710D01*
X95676761Y-95126391D01*
X95704708Y-95153000D01*
X95724841Y-95175912D01*
X95738296Y-95196501D01*
X95746206Y-95216142D01*
X95749706Y-95236209D01*
X95750159Y-95247121D01*
X95744428Y-95286586D01*
X95728125Y-95322282D01*
X95703380Y-95352290D01*
X95672320Y-95374689D01*
X95637075Y-95387559D01*
X95599773Y-95388980D01*
X95593912Y-95388046D01*
X95574299Y-95383257D01*
X95555947Y-95375719D01*
X95536101Y-95363763D01*
X95512009Y-95345723D01*
X95480917Y-95319929D01*
X95479630Y-95318833D01*
X95392200Y-95248445D01*
X95308489Y-95189839D01*
X95226908Y-95142194D01*
X95145866Y-95104690D01*
X95063774Y-95076506D01*
X94979041Y-95056824D01*
X94967980Y-95054885D01*
X94937467Y-95051311D01*
X94896857Y-95048802D01*
X94849685Y-95047358D01*
X94799488Y-95046979D01*
X94749802Y-95047666D01*
X94704161Y-95049417D01*
X94666102Y-95052233D01*
X94645587Y-95054885D01*
X94543509Y-95078826D01*
X94443032Y-95115462D01*
X94346375Y-95163828D01*
X94255760Y-95222959D01*
X94251437Y-95226174D01*
X94223109Y-95247906D01*
X94187582Y-95275977D01*
X94148042Y-95307824D01*
X94107670Y-95340885D01*
X94073342Y-95369489D01*
X93998429Y-95431373D01*
X93931111Y-95484292D01*
X93869670Y-95529291D01*
X93812389Y-95567417D01*
X93757549Y-95599715D01*
X93703431Y-95627231D01*
X93648318Y-95651011D01*
X93590491Y-95672102D01*
X93560065Y-95681952D01*
X93509348Y-95696951D01*
X93463198Y-95708500D01*
X93418367Y-95717054D01*
X93371608Y-95723070D01*
X93319673Y-95727004D01*
X93259314Y-95729312D01*
X93217147Y-95730113D01*
X93172893Y-95730581D01*
X93132155Y-95730735D01*
X93097328Y-95730588D01*
X93070809Y-95730153D01*
X93054991Y-95729442D01*
X93053055Y-95729232D01*
X92949812Y-95712171D01*
X92857047Y-95690925D01*
X92771901Y-95664325D01*
X92691517Y-95631204D01*
X92613034Y-95590396D01*
X92533596Y-95540733D01*
X92456410Y-95485619D01*
X92401773Y-95443405D01*
X92354618Y-95404517D01*
X92315897Y-95369823D01*
X92286562Y-95340194D01*
X92267565Y-95316498D01*
X92263168Y-95309062D01*
X92251621Y-95272192D01*
X92252204Y-95233407D01*
X92264195Y-95195475D01*
X92286879Y-95161165D01*
X92306351Y-95142642D01*
X92324763Y-95130144D01*
X92343918Y-95123158D01*
X92369724Y-95119691D01*
X92375548Y-95119285D01*
X92397304Y-95118587D01*
X92416115Y-95120281D01*
X92434168Y-95125474D01*
X92453652Y-95135272D01*
X92476755Y-95150781D01*
X92505666Y-95173108D01*
X92542573Y-95203359D01*
X92543688Y-95204285D01*
X92624353Y-95268009D01*
X92700311Y-95320758D01*
X92773533Y-95363489D01*
X92845992Y-95397159D01*
X92919659Y-95422724D01*
X92996507Y-95441142D01*
X93049637Y-95449808D01*
X93155806Y-95458814D01*
X93261551Y-95457214D01*
X93364675Y-95445302D01*
X93462981Y-95423373D01*
X93554275Y-95391722D01*
X93585197Y-95377911D01*
X93633906Y-95352602D01*
X93684439Y-95321962D01*
X93738532Y-95284789D01*
X93797920Y-95239882D01*
X93864341Y-95186039D01*
X93873760Y-95178171D01*
X93938918Y-95123896D01*
X93995371Y-95077674D01*
X94044616Y-95038447D01*
X94088146Y-95005157D01*
X94127455Y-94976749D01*
X94164038Y-94952164D01*
X94199389Y-94930345D01*
X94235003Y-94910235D01*
X94272374Y-94890776D01*
X94297416Y-94878412D01*
X94399252Y-94835261D01*
X94506027Y-94802662D01*
X94584576Y-94785716D01*
X94626344Y-94780012D01*
X94678387Y-94775889D01*
X94737396Y-94773348D01*
X94800063Y-94772390D01*
X94863082Y-94773013D01*
G37*
G36*
X94851932Y-96269855D02*
G01*
X94912511Y-96271644D01*
X94967655Y-96274893D01*
X95014194Y-96279602D01*
X95035544Y-96282918D01*
X95138440Y-96306632D01*
X95237070Y-96339416D01*
X95333221Y-96382132D01*
X95428676Y-96435638D01*
X95525222Y-96500795D01*
X95589102Y-96549560D01*
X95637063Y-96588455D01*
X95674844Y-96620995D01*
X95703557Y-96648538D01*
X95724311Y-96672445D01*
X95738217Y-96694075D01*
X95746386Y-96714789D01*
X95749927Y-96735944D01*
X95750310Y-96746947D01*
X95744191Y-96783126D01*
X95727388Y-96818959D01*
X95702232Y-96849901D01*
X95693649Y-96857358D01*
X95675237Y-96869856D01*
X95656082Y-96876842D01*
X95630276Y-96880310D01*
X95624452Y-96880715D01*
X95602696Y-96881413D01*
X95583885Y-96879719D01*
X95565832Y-96874526D01*
X95546348Y-96864728D01*
X95523245Y-96849219D01*
X95494334Y-96826892D01*
X95457427Y-96796642D01*
X95456312Y-96795715D01*
X95374551Y-96731327D01*
X95297365Y-96677762D01*
X95225527Y-96635541D01*
X95198763Y-96622089D01*
X95109264Y-96586523D01*
X95012853Y-96561071D01*
X94911823Y-96545735D01*
X94808465Y-96540514D01*
X94705070Y-96545407D01*
X94603928Y-96560416D01*
X94507332Y-96585539D01*
X94417573Y-96620778D01*
X94414803Y-96622089D01*
X94366094Y-96647398D01*
X94315561Y-96678039D01*
X94261468Y-96715211D01*
X94202080Y-96760118D01*
X94135660Y-96813961D01*
X94126240Y-96821829D01*
X94089036Y-96852887D01*
X94051332Y-96884162D01*
X94015856Y-96913407D01*
X93985332Y-96938375D01*
X93962487Y-96956820D01*
X93962148Y-96957090D01*
X93854254Y-97035563D01*
X93744178Y-97100647D01*
X93631574Y-97152505D01*
X93516098Y-97191299D01*
X93415424Y-97214123D01*
X93389526Y-97217549D01*
X93353295Y-97220711D01*
X93309738Y-97223502D01*
X93261859Y-97225816D01*
X93212663Y-97227546D01*
X93165156Y-97228587D01*
X93122343Y-97228833D01*
X93087230Y-97228176D01*
X93063311Y-97226570D01*
X92953836Y-97209764D01*
X92851997Y-97185630D01*
X92755599Y-97153220D01*
X92662449Y-97111589D01*
X92570353Y-97059789D01*
X92477115Y-96996874D01*
X92407112Y-96943417D01*
X92360135Y-96905290D01*
X92323239Y-96873609D01*
X92295292Y-96847000D01*
X92275159Y-96824088D01*
X92261704Y-96803499D01*
X92253794Y-96783858D01*
X92250294Y-96763791D01*
X92249841Y-96752879D01*
X92255572Y-96713414D01*
X92271875Y-96677718D01*
X92296621Y-96647710D01*
X92327680Y-96625311D01*
X92362925Y-96612441D01*
X92400227Y-96611020D01*
X92406088Y-96611954D01*
X92425701Y-96616743D01*
X92444053Y-96624281D01*
X92463899Y-96636237D01*
X92487991Y-96654277D01*
X92519083Y-96680071D01*
X92520370Y-96681167D01*
X92607494Y-96751334D01*
X92690870Y-96809767D01*
X92772128Y-96857308D01*
X92852897Y-96894796D01*
X92934804Y-96923072D01*
X93019479Y-96942977D01*
X93032020Y-96945207D01*
X93055481Y-96947980D01*
X93089075Y-96950302D01*
X93129264Y-96952006D01*
X93172510Y-96952930D01*
X93200054Y-96953035D01*
X93279898Y-96950672D01*
X93353561Y-96943734D01*
X93422671Y-96931514D01*
X93488861Y-96913307D01*
X93553760Y-96888405D01*
X93618998Y-96856101D01*
X93686205Y-96815689D01*
X93757013Y-96766462D01*
X93833052Y-96707714D01*
X93906485Y-96646813D01*
X93994321Y-96574048D01*
X94075397Y-96511299D01*
X94151265Y-96457723D01*
X94223479Y-96412480D01*
X94293591Y-96374729D01*
X94363154Y-96343628D01*
X94433722Y-96318337D01*
X94506849Y-96298014D01*
X94578534Y-96282831D01*
X94618709Y-96277311D01*
X94669307Y-96273254D01*
X94727159Y-96270659D01*
X94789091Y-96269526D01*
X94851932Y-96269855D01*
G37*
D12*
%TO.C,R1*%
X112200000Y-116150000D02*
X112200000Y-115850000D01*
X111500000Y-116150000D02*
X111500000Y-115850000D01*
D13*
%TO.C,U1*%
X110400000Y-116000000D02*
G75*
G03*
X110400000Y-116000000I-8400000J0D01*
G01*
D12*
%TO.C,D1*%
X110950000Y-105662500D02*
G75*
G03*
X110950000Y-105662500I-50000J0D01*
G01*
D13*
%TO.C,R2*%
X91800000Y-101800000D02*
X95500000Y-101800000D01*
X95500000Y-101800000D02*
X95500000Y-105600000D01*
X95500000Y-105600000D02*
X91800000Y-105600000D01*
X91800000Y-105600000D02*
X91800000Y-101800000D01*
D12*
%TO.C,C1*%
X96850000Y-105150000D02*
X96850000Y-104750000D01*
X97650000Y-105150000D02*
X97650000Y-104750000D01*
%TO.C,C2*%
X107550000Y-102200000D02*
X107150000Y-102200000D01*
X107550000Y-101400000D02*
X107150000Y-101400000D01*
%TO.C,R3*%
X96900000Y-101150000D02*
X96900000Y-100850000D01*
X97600000Y-101150000D02*
X97600000Y-100850000D01*
D14*
%TO.C,U2*%
X101350000Y-101795000D02*
G75*
G03*
X101350000Y-101795000I-350000J0D01*
G01*
D13*
X99390000Y-101200000D02*
X104600000Y-101200000D01*
X104600000Y-101200000D02*
X104600000Y-106200000D01*
X104600000Y-106200000D02*
X99390000Y-106200000D01*
X99390000Y-106200000D02*
X99390000Y-101200000D01*
%TD*%
M02*
